<?xml version="1.0" encoding="UTF-8"?>
<svg xmlns="http://www.w3.org/2000/svg" width="237" height="254" viewBox="0 0 237 254" fill="none">
  <g clip-path="url(#clip0_12004_25646)">
    <path d="M17.3739 190.955C17.2593 190.955 17.1425 190.929 17.0331 190.874L1.06871 182.807C0.481817 182.51 0.112234 181.926 0.105582 181.283C0.09819 180.639 0.454471 180.048 1.03471 179.739L16.8742 171.312C17.0139 171.237 17.0346 171.114 17.0346 171.048C17.0353 170.982 17.0146 170.859 16.8757 170.784L1.2269 162.321C0.662921 162.016 0.319938 161.459 0.308851 160.831C0.297763 160.203 0.621514 159.636 1.17515 159.312L23.1933 146.453C24.8394 145.493 26.8987 145.467 28.5685 146.387L40.8038 153.128C41.1593 153.324 41.2843 153.763 41.0825 154.108C40.8807 154.453 40.4313 154.574 40.075 154.379L27.8397 147.638C26.6319 146.972 25.1432 146.99 23.9546 147.685L1.93723 160.544C1.80344 160.622 1.78569 160.742 1.78643 160.808C1.78791 160.872 1.8101 160.992 1.94536 161.065L17.5941 169.527C18.1633 169.835 18.5151 170.42 18.5129 171.052C18.5114 171.685 18.1552 172.267 17.5838 172.572L1.74431 180.999C1.60313 181.076 1.58316 181.2 1.5839 181.267C1.58464 181.334 1.60682 181.459 1.75096 181.531L17.7154 189.598C18.0775 189.781 18.2187 190.215 18.0302 190.567C17.8987 190.814 17.6407 190.955 17.3739 190.955Z" fill="#5F92D3"></path>
    <path d="M11.7227 189.839L13.694 186.497L21.113 190.633L19.1416 193.975L11.7227 189.839Z" fill="#5F92D3"></path>
    <path d="M11.3086 188.959C11.3064 188.09 11.9302 187.032 12.7027 186.595C13.4751 186.159 14.1041 186.509 14.1063 187.378C14.1085 188.247 13.4847 189.305 12.7123 189.741C11.9398 190.178 11.3116 189.827 11.3086 188.959Z" fill="#5F92D3"></path>
    <path d="M17.2305 194.289L20.4251 188.874L32.0603 195.36L28.8664 200.776L17.2305 194.289Z" fill="#5F92D3"></path>
    <path d="M19.8924 189.952L17.3815 188.553C16.3422 189.277 15.5277 190.658 15.4102 191.895L17.9211 193.295C18.9603 192.571 19.7742 191.19 19.8924 189.952Z" fill="#006CAC"></path>
    <path d="M16.5625 192.863C16.5581 191.455 17.5692 189.741 18.8206 189.033C20.0728 188.326 21.0913 188.893 21.0958 190.301C21.0995 191.709 20.0883 193.422 18.8362 194.13C17.5848 194.837 16.5662 194.27 16.5625 192.863Z" fill="#5F92D3"></path>
    <path d="M13.6483 188.067C13.2846 187.864 13.2839 187.534 13.6461 187.329C14.009 187.124 14.5974 187.123 14.961 187.325C15.3247 187.527 15.3255 187.858 14.9633 188.063C14.6003 188.268 14.012 188.27 13.6483 188.067Z" fill="#D9EFFB"></path>
    <path d="M67.5498 138.653L28.3808 116.941C26.9491 116.137 27.128 114.733 28.7822 113.804L51.3185 101.155C52.9727 100.227 55.4748 100.126 56.9073 100.931L96.0755 122.641C97.508 123.446 97.3283 124.85 95.6748 125.779L73.1378 138.427C71.4836 139.355 68.9815 139.457 67.5498 138.653Z" fill="#B8D8ED"></path>
    <path d="M99.5664 115.333V26.4397L63.2137 17.1902L56.5184 13.4321C54.9817 12.5698 52.2978 12.6776 50.5231 13.6743L44.2757 17.1802L24.8867 17.1694L30.6285 102.983C30.5849 103.567 30.9198 104.131 31.6582 104.545L67.9347 131.155C69.4715 132.017 72.1553 131.91 73.9301 130.914L98.1058 117.344C99.1296 116.77 99.6233 116.026 99.5664 115.333Z" fill="#006CAC"></path>
    <path d="M53.7368 12.8547C52.6125 12.8813 51.4454 13.1565 50.5229 13.6746L44.2755 17.1805L24.8866 17.1698V106.302C24.843 106.886 25.1778 107.45 25.9162 107.864L67.9346 131.155C68.673 131.57 69.6775 131.758 70.7168 131.733L71.1507 42.0438L53.7368 12.8547Z" fill="#D9EFFB"></path>
    <path d="M68.3203 131.339C69.6456 131.891 71.5623 131.861 73.1123 131.286V40.984H68.3203V131.339Z" fill="#5F92D3"></path>
    <path d="M67.9346 42.0545L25.9162 18.7627C24.3795 17.9005 24.5724 16.3936 26.3472 15.3977L50.5237 1.82889C52.2976 0.832951 54.9815 0.723717 56.5182 1.586L98.5366 24.8778C100.073 25.7408 99.8804 27.2476 98.1064 28.2436L73.9299 41.8124C72.1552 42.809 69.4713 42.9168 67.9346 42.0545Z" fill="#D9EFFB"></path>
    <path d="M98.1059 26.5901L73.9295 40.1597C72.1547 41.1556 69.4708 41.2641 67.9341 40.4011L25.9158 17.11C25.5735 16.9182 25.3215 16.6918 25.1493 16.4482C24.6215 17.2746 24.861 18.1706 25.9158 18.7627L67.9341 42.0545C69.4708 42.9168 72.1547 42.809 73.9295 41.8124L98.1059 28.2436C99.4845 27.4697 99.9028 26.3882 99.3034 25.5403C99.0617 25.9169 98.6611 26.279 98.1059 26.5901Z" fill="#FCFEFF"></path>
    <path d="M69.1252 32.6147L41.1502 16.8506C40.4302 16.4461 40.5204 15.7419 41.3512 15.2755L52.6649 8.92552C53.4949 8.45988 54.7508 8.40958 55.47 8.8127L83.445 24.5774C84.1635 24.9806 84.0733 25.6862 83.2432 26.1518L71.9303 32.5019C71.0995 32.9675 69.8437 33.0185 69.1252 32.6147Z" fill="#002245"></path>
    <path d="M54.0204 17.5582L52.3994 16.6485C52.2996 16.5917 52.3122 16.4947 52.4275 16.4308L53.9923 15.552C54.1068 15.4873 54.2813 15.4808 54.3803 15.5362L56.002 16.4459C56.1011 16.5012 56.0885 16.5989 55.974 16.6636L54.4084 17.5424C54.2938 17.6071 54.1201 17.6135 54.0204 17.5582Z" fill="#D9EFFB"></path>
    <path d="M59.4384 20.5859L57.8174 19.6762C57.7176 19.6194 57.7302 19.5224 57.8448 19.4577L59.4103 18.5796C59.5249 18.515 59.6993 18.5085 59.7984 18.5638L61.4193 19.4735C61.5191 19.5289 61.5066 19.6266 61.392 19.6913L59.8265 20.5693C59.7111 20.634 59.5374 20.6412 59.4384 20.5859Z" fill="#D9EFFB"></path>
    <path d="M64.8518 23.6121L63.2308 22.7031C63.1318 22.6464 63.1444 22.5486 63.2589 22.4847L64.8237 21.6066C64.9391 21.5419 65.1128 21.5355 65.2125 21.5901L66.8335 22.5005C66.9333 22.5558 66.92 22.6536 66.8054 22.7182L65.2406 23.5963C65.1253 23.661 64.9516 23.6682 64.8518 23.6121Z" fill="#D9EFFB"></path>
    <path d="M70.2664 26.6395L68.6455 25.7298C68.5457 25.6737 68.5582 25.576 68.6736 25.512L70.2384 24.6332C70.3537 24.5693 70.5274 24.5621 70.6272 24.6174L72.2474 25.5278C72.3472 25.5832 72.3346 25.6809 72.22 25.7456L70.6545 26.6237C70.5399 26.6883 70.3662 26.6955 70.2664 26.6395Z" fill="#D9EFFB"></path>
    <path d="M41.1502 16.8507L41.1835 16.8686L41.3512 16.7566L52.6649 10.4065C53.4949 9.94089 54.7508 9.88987 55.47 10.2937L83.4118 26.0391C84.074 25.5777 84.1088 24.9497 83.445 24.5775L55.47 8.81274C54.7508 8.40962 53.4949 8.45992 52.6649 8.92556L41.3512 15.2756C40.5204 15.7419 40.4302 16.4461 41.1502 16.8507Z" fill="#5F92D3"></path>
    <path d="M78.6515 59.6659L94.5575 50.8124C95.4526 50.3109 96.1778 48.9628 96.1778 47.803V42.2736C96.1778 41.1124 95.4526 40.5793 94.5575 41.0815L78.6515 49.9351C77.7564 50.4373 77.0312 51.7854 77.0312 52.9451V58.4753C77.0312 59.635 77.7564 60.1682 78.6515 59.6659Z" fill="#002245"></path>
    <path d="M95.3437 40.9156C95.5943 41.1441 95.751 41.535 95.751 42.0661V47.5955C95.751 48.7552 95.0259 50.1033 94.1307 50.6056L78.2247 59.4591C77.9372 59.6201 77.6718 59.6646 77.4375 59.6258C77.7346 59.8981 78.1656 59.9391 78.6512 59.666L94.5572 50.8125C95.4523 50.3109 96.1775 48.9629 96.1775 47.8031V42.2737C96.1775 41.4854 95.8389 40.9968 95.3437 40.9156Z" fill="white"></path>
    <path d="M83.4354 53.6588L84.8952 52.8404C85.0896 52.7304 85.2478 52.4372 85.2478 52.1843V50.6689C85.2478 50.4166 85.0896 50.3002 84.8952 50.4094L83.4354 51.2286C83.2402 51.3378 83.082 51.6317 83.082 51.8847V53.4001C83.082 53.6531 83.2402 53.7695 83.4354 53.6588Z" fill="#006CAC"></path>
    <path d="M88.3143 50.9208L89.7726 50.1016C89.9685 49.9924 90.1267 49.6992 90.1267 49.4456V47.9308C90.1267 47.6779 89.9685 47.5615 89.7726 47.6707L88.3143 48.4898C88.1191 48.5991 87.9609 48.8937 87.9609 49.1459V50.6614C87.9609 50.9143 88.1191 51.03 88.3143 50.9208Z" fill="white"></path>
    <path d="M78.6515 99.6235L94.5575 90.7707C95.4526 90.2684 96.1778 88.9203 96.1778 87.7599V82.2304C96.1778 81.0707 95.4526 80.5375 94.5575 81.0398L78.6515 89.8926C77.7564 90.3948 77.0312 91.7422 77.0312 92.9034V98.4321C77.0312 99.5926 77.7564 100.126 78.6515 99.6235Z" fill="#002245"></path>
    <path d="M95.3437 80.8732C95.5943 81.1024 95.751 81.4933 95.751 82.0236V87.5523C95.751 88.7135 95.0259 90.0608 94.1307 90.5631L78.2247 99.4159C77.9372 99.5776 77.6718 99.6214 77.4375 99.5834C77.7346 99.855 78.1656 99.8959 78.6512 99.6236L94.5572 90.7708C95.4523 90.2685 96.1775 88.9205 96.1775 87.76V82.2306C96.1775 81.4423 95.8389 80.9551 95.3437 80.8732Z" fill="white"></path>
    <path d="M83.4354 93.6172L84.8952 92.798C85.0896 92.6888 85.2478 92.3949 85.2478 92.1419V90.6272C85.2478 90.3735 85.0896 90.2578 84.8952 90.3671L83.4354 91.1862C83.2402 91.2955 83.082 91.5894 83.082 91.8423V93.3578C83.082 93.61 83.2402 93.7264 83.4354 93.6172Z" fill="#006CAC"></path>
    <path d="M88.3143 90.8785L89.7726 90.06C89.9685 89.9501 90.1267 89.6562 90.1267 89.404V87.8885C90.1267 87.6356 89.9685 87.5199 89.7726 87.6291L88.3143 88.4475C88.1191 88.5575 87.9609 88.8507 87.9609 89.1043V90.6191C87.9609 90.872 88.1191 90.9884 88.3143 90.8785Z" fill="white"></path>
    <path d="M78.6515 119.602L94.5575 110.749C95.4526 110.247 96.1778 108.899 96.1778 107.739V102.21C96.1778 101.049 95.4526 100.515 94.5575 101.018L78.6515 109.871C77.7564 110.373 77.0312 111.721 77.0312 112.881V118.411C77.0312 119.571 77.7564 120.104 78.6515 119.602Z" fill="#002245"></path>
    <path d="M95.3437 100.852C95.5943 101.081 95.751 101.472 95.751 102.002V107.532C95.751 108.691 95.0259 110.039 94.1307 110.542L78.2247 119.395C77.9372 119.556 77.6718 119.601 77.4375 119.562C77.7346 119.834 78.1656 119.875 78.6512 119.602L94.5572 110.749C95.4523 110.247 96.1775 108.899 96.1775 107.739V102.21C96.1775 101.421 95.8389 100.933 95.3437 100.852Z" fill="white"></path>
    <path d="M83.4354 113.595L84.8952 112.776C85.0896 112.667 85.2478 112.373 85.2478 112.12V110.605C85.2478 110.352 85.0896 110.236 84.8952 110.345L83.4354 111.164C83.2402 111.274 83.082 111.567 83.082 111.82V113.336C83.082 113.589 83.2402 113.705 83.4354 113.595Z" fill="#006CAC"></path>
    <path d="M88.3143 110.857L89.7726 110.038C89.9685 109.928 90.1267 109.635 90.1267 109.382V107.867C90.1267 107.614 89.9685 107.497 89.7726 107.607L88.3143 108.426C88.1191 108.536 87.9609 108.83 87.9609 109.082V110.597C87.9609 110.85 88.1191 110.966 88.3143 110.857Z" fill="white"></path>
    <path d="M78.6515 79.645L94.5575 70.7914C95.4526 70.2892 96.1778 68.9418 96.1778 67.7813V62.2512C96.1778 61.0914 95.4526 60.5583 94.5575 61.0605L78.6515 69.9141C77.7564 70.4164 77.0312 71.7644 77.0312 72.9242V78.4536C77.0312 79.6141 77.7564 80.1472 78.6515 79.645Z" fill="#002245"></path>
    <path d="M95.3437 60.8947C95.5943 61.1233 95.751 61.5142 95.751 62.0445V67.5746C95.751 68.7344 95.0259 70.0824 94.1307 70.5847L78.2247 79.4375C77.9372 79.5992 77.6718 79.643 77.4375 79.6042C77.7346 79.8765 78.1656 79.9175 78.6512 79.6452L94.5572 70.7916C95.4523 70.2894 96.1775 68.9413 96.1775 67.7815V62.2514C96.1775 61.4646 95.8389 60.9759 95.3437 60.8947Z" fill="white"></path>
    <path d="M83.4354 73.6376L84.8952 72.8184C85.0896 72.7092 85.2478 72.4153 85.2478 72.1623V70.6476C85.2478 70.3947 85.0896 70.2783 84.8952 70.3882L83.4354 71.2067C83.2402 71.3166 83.082 71.6105 83.082 71.8627V73.3782C83.082 73.6311 83.2402 73.7468 83.4354 73.6376Z" fill="#006CAC"></path>
    <path d="M88.3143 70.8999L89.7726 70.0807C89.9685 69.9715 90.1267 69.6769 90.1267 69.4247V67.9092C90.1267 67.657 89.9685 67.5406 89.7726 67.6498L88.3143 68.469C88.1191 68.5782 87.9609 68.8721 87.9609 69.125V70.6398C87.9609 70.8927 88.1191 71.0091 88.3143 70.8999Z" fill="white"></path>
    <path d="M64.8743 54.0058L28.1793 33.4101C27.3574 32.9488 26.6914 31.7121 26.6914 30.6472V23.8452C26.6914 22.781 27.3574 22.2909 28.1793 22.7523L64.8743 43.3487C65.6962 43.8086 66.3615 45.046 66.3615 46.1109V52.9129C66.3615 53.9778 65.6962 54.4664 64.8743 54.0058Z" fill="#5F92D3"></path>
    <path d="M64.1197 51.7085C64.028 51.7085 63.9267 51.6805 63.8203 51.6201L29.2312 32.2072C28.8144 31.9736 28.4766 31.3449 28.4766 30.806V25.6919C28.4766 25.2895 28.6636 25.0495 28.9319 25.0495C29.0235 25.0495 29.1248 25.0775 29.2312 25.1371L63.8203 44.5501C64.2364 44.785 64.5742 45.4124 64.5742 45.952V51.0661C64.5742 51.4685 64.3872 51.7085 64.1197 51.7085Z" fill="#90B9E6"></path>
    <path d="M36.4417 33.6671L31.2794 30.7699C30.8751 30.5428 30.5469 29.9341 30.5469 29.4089C30.5469 28.885 30.8751 28.6436 31.2794 28.8707L36.4417 31.7687C36.846 31.995 37.1742 32.6036 37.1742 33.1289C37.1742 33.6535 36.846 33.8949 36.4417 33.6671Z" fill="#D9EFFB"></path>
    <path d="M40.8404 35.1864C40.8404 35.7117 40.4612 35.9244 39.9941 35.6621C39.5269 35.3991 39.1484 34.761 39.1484 34.2372C39.1484 33.7126 39.5269 33.4999 39.9941 33.7622C40.4612 34.0245 40.8404 34.6626 40.8404 35.1864Z" fill="#002245"></path>
    <path d="M43.8255 36.8615C43.8255 37.3867 43.4463 37.5994 42.9799 37.3365C42.512 37.0749 42.1328 36.4368 42.1328 35.9122C42.1328 35.3884 42.512 35.1757 42.9799 35.4373C43.4463 35.6995 43.8255 36.3376 43.8255 36.8615Z" fill="#002245"></path>
    <path d="M46.8091 38.5372C46.8091 39.0618 46.4307 39.2745 45.9635 39.0122C45.4964 38.7499 45.1172 38.1125 45.1172 37.5873C45.1172 37.0634 45.4964 36.8507 45.9635 37.113C46.4307 37.3746 46.8091 38.0126 46.8091 38.5372Z" fill="#D9EFFB"></path>
    <path d="M49.7935 40.2118C49.7935 40.7363 49.415 40.949 48.9479 40.6875C48.4807 40.4245 48.1016 39.7871 48.1016 39.2625C48.1016 38.738 48.4807 38.5253 48.9479 38.7876C49.415 39.0505 49.7935 39.6872 49.7935 40.2118Z" fill="#002245"></path>
    <path d="M62.3649 48.7733L60.6256 47.7967C60.3669 47.6516 60.1562 47.26 60.1562 46.9237V45.1352C60.1562 44.7981 60.3669 44.6444 60.6256 44.7902L62.3649 45.7653C62.625 45.9112 62.8357 46.3021 62.8357 46.6391V48.4277C62.8357 48.7639 62.625 48.9191 62.3649 48.7733Z" fill="#002245"></path>
    <path d="M64.8743 66.0006L28.1793 45.4042C27.3574 44.9436 26.6914 43.707 26.6914 42.642V35.84C26.6914 34.7751 27.3574 34.2858 28.1793 34.7471L64.8743 55.3428C65.6962 55.8041 66.3615 57.0408 66.3615 58.1057V64.9077C66.3615 65.9726 65.6962 66.462 64.8743 66.0006Z" fill="#5F92D3"></path>
    <path d="M64.1197 63.7036C64.028 63.7036 63.9267 63.6756 63.8203 63.6159L29.2312 44.2023C28.8144 43.968 28.4766 43.3407 28.4766 42.8011V37.687C28.4766 37.2846 28.6636 37.0446 28.9311 37.0446C29.0235 37.0446 29.1248 37.0726 29.2312 37.1323L63.8203 56.5459C64.2364 56.7795 64.5742 57.4075 64.5742 57.9471V63.0612C64.5742 63.4636 64.3872 63.7036 64.1197 63.7036Z" fill="#90B9E6"></path>
    <path d="M36.4417 45.6622L31.2794 42.7649C30.8751 42.5386 30.5469 41.9285 30.5469 41.4047C30.5469 40.8801 30.8751 40.6387 31.2794 40.8658L36.4417 43.763C36.846 43.9908 37.1742 44.5994 37.1742 45.1247C37.1742 45.6486 36.846 45.89 36.4417 45.6622Z" fill="#D9EFFB"></path>
    <path d="M40.8404 47.1822C40.8404 47.706 40.4612 47.9187 39.9941 47.6572C39.5269 47.3949 39.1484 46.7568 39.1484 46.2322C39.1484 45.7077 39.5269 45.495 39.9941 45.7573C40.4612 46.0203 40.8404 46.6576 40.8404 47.1822Z" fill="white"></path>
    <path d="M43.8255 48.857C43.8255 49.3816 43.4463 49.5943 42.9799 49.332C42.512 49.0697 42.1328 48.4317 42.1328 47.9071C42.1328 47.3825 42.512 47.1705 42.9799 47.4321C43.4463 47.6951 43.8255 48.3325 43.8255 48.857Z" fill="#002245"></path>
    <path d="M46.8091 50.5323C46.8091 51.0569 46.4307 51.2696 45.9635 51.0073C45.4964 50.745 45.1172 50.1076 45.1172 49.5831C45.1172 49.0585 45.4964 48.8458 45.9635 49.1074C46.4307 49.3704 46.8091 50.0078 46.8091 50.5323Z" fill="#D9EFFB"></path>
    <path d="M49.7935 52.2078C49.7935 52.7317 49.415 52.9444 48.9479 52.6821C48.4807 52.4205 48.1016 51.7824 48.1016 51.2579C48.1016 50.7333 48.4807 50.5206 48.9479 50.7829C49.415 51.0452 49.7935 51.6826 49.7935 52.2078Z" fill="#002245"></path>
    <path d="M62.3649 60.7684L60.6256 59.7926C60.3669 59.646 60.1562 59.2558 60.1562 58.9188V57.1303C60.1562 56.794 60.3669 56.6395 60.6256 56.7853L62.3649 57.7604C62.625 57.907 62.8357 58.2979 62.8357 58.6342V60.4228C62.8357 60.7591 62.625 60.9143 62.3649 60.7684Z" fill="#002245"></path>
    <path d="M64.8743 77.9967L28.1793 57.4002C27.3574 56.9389 26.6914 55.7022 26.6914 54.638V47.8353C26.6914 46.7704 27.3574 46.2818 28.1793 46.7424L64.8743 67.3381C65.6962 67.7994 66.3615 69.0368 66.3615 70.101V76.903C66.3615 77.9679 65.6962 78.4573 64.8743 77.9967Z" fill="#5F92D3"></path>
    <path d="M64.1197 75.6992C64.0273 75.6992 63.9267 75.6705 63.8203 75.6108L29.2312 56.1979C28.8144 55.9629 28.4766 55.3356 28.4766 54.7953V49.6819C28.4766 49.2802 28.6636 49.0395 28.9311 49.0395C29.0228 49.0395 29.1248 49.0675 29.2312 49.1279L63.8203 68.5408C64.2364 68.7751 64.5742 69.4024 64.5742 69.9427V75.0568C64.5742 75.4585 64.3872 75.6992 64.1197 75.6992Z" fill="#90B9E6"></path>
    <path d="M36.4417 57.6583L31.2794 54.761C30.8751 54.5332 30.5469 53.9246 30.5469 53.4C30.5469 52.8754 30.8751 52.6347 31.2794 52.8611L36.4417 55.7584C36.846 55.9861 37.1742 56.5948 37.1742 57.12C37.1742 57.6439 36.846 57.8853 36.4417 57.6583Z" fill="#D9EFFB"></path>
    <path d="M40.8404 59.1773C40.8404 59.7019 40.4612 59.9146 39.9941 59.6523C39.5269 59.39 39.1484 58.7519 39.1484 58.2274C39.1484 57.7028 39.5269 57.4901 39.9941 57.7531C40.4612 58.0154 40.8404 58.6528 40.8404 59.1773Z" fill="white"></path>
    <path d="M43.8255 60.8525C43.8255 61.3778 43.4463 61.5898 42.9799 61.3275C42.512 61.0652 42.1328 60.4271 42.1328 59.9033C42.1328 59.378 42.512 59.166 42.9799 59.4283C43.4463 59.6906 43.8255 60.3287 43.8255 60.8525Z" fill="#002245"></path>
    <path d="M46.8091 62.527C46.8091 63.0523 46.4307 63.265 45.9635 63.002C45.4964 62.7397 45.1172 62.1016 45.1172 61.5778C45.1172 61.0525 45.4964 60.8412 45.9635 61.1028C46.4307 61.3651 46.8091 62.0032 46.8091 62.527Z" fill="#D9EFFB"></path>
    <path d="M49.7935 64.203C49.7935 64.7275 49.415 64.9403 48.9479 64.6773C48.4807 64.415 48.1016 63.7776 48.1016 63.253C48.1016 62.7292 48.4807 62.5165 48.9479 62.7781C49.415 63.0404 49.7935 63.6784 49.7935 64.203Z" fill="#002245"></path>
    <path d="M62.3649 72.7632L60.6256 71.7874C60.3669 71.6415 60.1562 71.2506 60.1562 70.9136V69.1258C60.1562 68.7888 60.3669 68.6343 60.6256 68.7795L62.3649 69.756C62.625 69.9019 62.8357 70.2928 62.8357 70.6298V72.4176C62.8357 72.7546 62.625 72.9084 62.3649 72.7632Z" fill="#002245"></path>
    <path d="M64.8743 89.9918L28.1793 69.3953C27.3574 68.934 26.6914 67.6974 26.6914 66.6332V59.8304C26.6914 58.7662 27.3574 58.2769 28.1793 58.7382L64.8743 79.3339C65.6962 79.7945 66.3615 81.0312 66.3615 82.0961V88.8981C66.3615 89.963 65.6962 90.4524 64.8743 89.9918Z" fill="#5F92D3"></path>
    <path d="M64.1197 87.6943C64.0273 87.6943 63.9267 87.6663 63.8203 87.6067L29.2312 68.1923C28.8144 67.9588 28.4766 67.3314 28.4766 66.7911V61.6777C28.4766 61.2753 28.6636 61.0346 28.9319 61.0346C29.0235 61.0346 29.1248 61.0626 29.2312 61.1223L63.8203 80.5366C64.2364 80.7702 64.5742 81.3975 64.5742 81.9378V87.0512C64.5742 87.4536 64.3872 87.6943 64.1197 87.6943Z" fill="#90B9E6"></path>
    <path d="M36.4417 69.6533L31.2794 66.756C30.8751 66.5289 30.5469 65.9196 30.5469 65.395C30.5469 64.8705 30.8751 64.6297 31.2794 64.8561L36.4417 67.7541C36.846 67.9812 37.1742 68.5905 37.1742 69.1143C37.1742 69.6396 36.846 69.8803 36.4417 69.6533Z" fill="#D9EFFB"></path>
    <path d="M40.8404 71.1725C40.8404 71.697 40.4612 71.9097 39.9941 71.6474C39.5269 71.3852 39.1484 70.7478 39.1484 70.2225C39.1484 69.6987 39.5269 69.486 39.9941 69.7483C40.4612 70.0098 40.8404 70.6479 40.8404 71.1725Z" fill="#002245"></path>
    <path d="M43.8255 72.8482C43.8255 73.372 43.4463 73.5847 42.9799 73.3232C42.512 73.0602 42.1328 72.4228 42.1328 71.8982C42.1328 71.3737 42.512 71.161 42.9799 71.4233C43.4463 71.6856 43.8255 72.3229 43.8255 72.8482Z" fill="#002245"></path>
    <path d="M46.8091 74.523C46.8091 75.0476 46.4307 75.2603 45.9635 74.998C45.4964 74.735 45.1172 74.0977 45.1172 73.5731C45.1172 73.0485 45.4964 72.8358 45.9635 73.0981C46.4307 73.3604 46.8091 73.9985 46.8091 74.523Z" fill="#D9EFFB"></path>
    <path d="M49.7935 76.1979C49.7935 76.7224 49.415 76.9351 48.9479 76.6728C48.4807 76.4106 48.1016 75.7725 48.1016 75.2479C48.1016 74.7241 48.4807 74.5114 48.9479 74.7729C49.415 75.0352 49.7935 75.6733 49.7935 76.1979Z" fill="#002245"></path>
    <path d="M62.3649 84.7585L60.6256 83.7827C60.3669 83.6368 60.1562 83.2459 60.1562 82.9089V81.1211C60.1562 80.7841 60.3669 80.6296 60.6256 80.7755L62.3649 81.7513C62.625 81.8972 62.8357 82.2881 62.8357 82.6244V84.4129C62.8357 84.7499 62.625 84.9044 62.3649 84.7585Z" fill="#D9EFFB"></path>
    <path d="M64.8743 101.986L28.1793 81.3903C27.3574 80.9297 26.6914 79.693 26.6914 78.6274V71.8261C26.6914 70.7612 27.3574 70.2718 28.1793 70.7324L64.8743 91.3288C65.6962 91.7902 66.3615 93.0268 66.3615 94.091V100.894C66.3615 101.958 65.6962 102.447 64.8743 101.986Z" fill="#5F92D3"></path>
    <path d="M64.1197 99.6895C64.028 99.6895 63.9267 99.6607 63.8203 99.6011L29.2312 80.1874C28.8144 79.9539 28.4766 79.3266 28.4766 78.7862V73.6721C28.4766 73.2704 28.6636 73.0297 28.9319 73.0297C29.0235 73.0297 29.1248 73.0585 29.2312 73.1181L63.8203 92.5318C64.2364 92.7653 64.5742 93.3926 64.5742 93.933V99.0463C64.5742 99.4487 64.3872 99.6895 64.1197 99.6895Z" fill="#90B9E6"></path>
    <path d="M36.4417 81.6484L31.2794 78.7511C30.8751 78.524 30.5469 77.9147 30.5469 77.3901C30.5469 76.8656 30.8751 76.6241 31.2794 76.8519L36.4417 79.7492C36.846 79.9756 37.1742 80.5856 37.1742 81.1102C37.1742 81.6347 36.846 81.8755 36.4417 81.6484Z" fill="#D9EFFB"></path>
    <path d="M40.8404 83.1683C40.8404 83.6921 40.4612 83.9048 39.9941 83.6425C39.5269 83.3803 39.1484 82.7429 39.1484 82.2183C39.1484 81.6938 39.5269 81.4811 39.9941 81.7426C40.4612 82.0056 40.8404 82.643 40.8404 83.1683Z" fill="#002245"></path>
    <path d="M43.8255 84.8431C43.8255 85.3669 43.4463 85.5796 42.9799 85.3173C42.512 85.0558 42.1328 84.4177 42.1328 83.8931C42.1328 83.3686 42.512 83.1559 42.9799 83.4182C43.4463 83.6804 43.8255 84.3178 43.8255 84.8431Z" fill="white"></path>
    <path d="M46.8091 86.5181C46.8091 87.042 46.4307 87.2547 45.9635 86.9931C45.4964 86.7308 45.1172 86.0927 45.1172 85.5689C45.1172 85.0436 45.4964 84.8309 45.9635 85.0939C46.4307 85.3562 46.8091 85.9936 46.8091 86.5181Z" fill="#D9EFFB"></path>
    <path d="M49.7935 88.193C49.7935 88.7175 49.415 88.9302 48.9479 88.668C48.4807 88.4057 48.1016 87.7676 48.1016 87.2437C48.1016 86.7185 48.4807 86.5058 48.9479 86.7688C49.415 87.031 49.7935 87.6691 49.7935 88.193Z" fill="white"></path>
    <path d="M62.3649 96.7537L60.6256 95.7786C60.3669 95.6328 60.1562 95.2419 60.1562 94.9048V93.1163C60.1562 92.78 60.3669 92.6248 60.6256 92.7707L62.3649 93.7472C62.625 93.8924 62.8357 94.284 62.8357 94.6196V96.4088C62.8357 96.7444 62.625 96.8996 62.3649 96.7537Z" fill="#D9EFFB"></path>
    <path d="M64.8743 113.982L28.1793 93.3862C27.3574 92.9249 26.6914 91.6875 26.6914 90.6233V83.8213C26.6914 82.7571 27.3574 82.267 28.1793 82.7283L64.8743 103.325C65.6962 103.785 66.3615 105.022 66.3615 106.086V112.889C66.3615 113.954 65.6962 114.443 64.8743 113.982Z" fill="#5F92D3"></path>
    <path d="M64.1197 111.685C64.028 111.685 63.9267 111.657 63.8203 111.596L29.2312 92.1833C28.8144 91.9497 28.4766 91.3224 28.4766 90.7813V85.6673C28.4766 85.2656 28.6636 85.0256 28.9319 85.0256C29.0235 85.0256 29.1248 85.0536 29.2312 85.1132L63.8203 104.526C64.2364 104.761 64.5742 105.388 64.5742 105.929V111.042C64.5742 111.445 64.3872 111.685 64.1197 111.685Z" fill="#90B9E6"></path>
    <path d="M36.4417 93.6436L31.2794 90.747C30.8751 90.5193 30.5469 89.9106 30.5469 89.3853C30.5469 88.8615 30.8751 88.6201 31.2794 88.8471L36.4417 91.7444C36.846 91.9715 37.1742 92.5808 37.1742 93.1054C37.1742 93.6292 36.846 93.8707 36.4417 93.6436Z" fill="#D9EFFB"></path>
    <path d="M40.8404 95.1627C40.8404 95.688 40.4612 95.9007 39.9941 95.6377C39.5269 95.3754 39.1484 94.7373 39.1484 94.2135C39.1484 93.6882 39.5269 93.477 39.9941 93.7385C40.4612 94.0008 40.8404 94.6389 40.8404 95.1627Z" fill="#002245"></path>
    <path d="M43.8255 96.8383C43.8255 97.3628 43.4463 97.5755 42.9799 97.3125C42.512 97.0502 42.1328 96.4129 42.1328 95.8883C42.1328 95.3637 42.512 95.1518 42.9799 95.414C43.4463 95.6756 43.8255 96.3137 43.8255 96.8383Z" fill="#002245"></path>
    <path d="M46.8091 98.5135C46.8091 99.0381 46.4307 99.2508 45.9635 98.9878C45.4964 98.7262 45.1172 98.0889 45.1172 97.5636C45.1172 97.0397 45.4964 96.8271 45.9635 97.0893C46.4307 97.3509 46.8091 97.989 46.8091 98.5135Z" fill="#D9EFFB"></path>
    <path d="M49.7935 100.189C49.7935 100.713 49.415 100.926 48.9479 100.664C48.4807 100.401 48.1016 99.7639 48.1016 99.2393C48.1016 98.7148 48.4807 98.5021 48.9479 98.7644C49.415 99.0267 49.7935 99.6647 49.7935 100.189Z" fill="#002245"></path>
    <path d="M62.3649 108.748L60.6256 107.773C60.3669 107.627 60.1562 107.236 60.1562 106.9V105.111C60.1562 104.775 60.3669 104.62 60.6256 104.765L62.3649 105.741C62.625 105.887 62.8357 106.278 62.8357 106.615V108.404C62.8357 108.74 62.625 108.895 62.3649 108.748Z" fill="#002245"></path>
    <path d="M64.8743 125.977L28.1793 105.381C27.3574 104.92 26.6914 103.684 26.6914 102.619V95.8166C26.6914 94.7517 27.3574 94.2623 28.1793 94.7236L64.8743 115.319C65.6962 115.781 66.3615 117.017 66.3615 118.082V124.885C66.3615 125.949 65.6962 126.439 64.8743 125.977Z" fill="#5F92D3"></path>
    <path d="M64.1197 123.68C64.028 123.68 63.9267 123.652 63.8203 123.592L29.2312 104.178C28.8144 103.945 28.4766 103.317 28.4766 102.777V97.6631C28.4766 97.2607 28.6636 97.0207 28.9311 97.0207C29.0235 97.0207 29.1248 97.0487 29.2312 97.1083L63.8203 116.522C64.2364 116.756 64.5742 117.384 64.5742 117.923V123.037C64.5742 123.44 64.3872 123.68 64.1197 123.68Z" fill="#90B9E6"></path>
    <path d="M36.4417 105.639L31.2794 102.742C30.8751 102.515 30.5469 101.905 30.5469 101.381C30.5469 100.857 30.8751 100.615 31.2794 100.843L36.4417 103.74C36.846 103.967 37.1742 104.576 37.1742 105.101C37.1742 105.625 36.846 105.867 36.4417 105.639Z" fill="#D9EFFB"></path>
    <path d="M41.7821 107.807C41.7821 108.798 41.0666 109.199 40.184 108.704C39.3014 108.209 38.5859 107.004 38.5859 106.014C38.5859 105.023 39.3014 104.621 40.184 105.117C41.0666 105.612 41.7821 106.817 41.7821 107.807Z" fill="white"></path>
    <path d="M47.9654 111.324C47.9654 111.848 47.5862 112.061 47.119 111.799C46.6511 111.537 46.2734 110.899 46.2734 110.374C46.2734 109.85 46.6511 109.637 47.119 109.9C47.5862 110.161 47.9654 110.799 47.9654 111.324Z" fill="#002245"></path>
    <path d="M50.9505 112.999C50.9505 113.523 50.5713 113.736 50.1042 113.475C49.6363 113.212 49.2578 112.574 49.2578 112.05C49.2578 111.525 49.6363 111.312 50.1042 111.575C50.5713 111.837 50.9505 112.474 50.9505 112.999Z" fill="#D9EFFB"></path>
    <path d="M53.9341 114.675C53.9341 115.199 53.5557 115.412 53.0878 115.15C52.6206 114.887 52.2422 114.25 52.2422 113.725C52.2422 113.2 52.6206 112.988 53.0878 113.25C53.5557 113.512 53.9341 114.15 53.9341 114.675Z" fill="#002245"></path>
    <path d="M62.3649 120.744L60.6256 119.768C60.3669 119.622 60.1562 119.231 60.1562 118.896V117.106C60.1562 116.77 60.3669 116.616 60.6256 116.761L62.3649 117.737C62.625 117.882 62.8357 118.273 62.8357 118.61V120.398C62.8357 120.735 62.625 120.89 62.3649 120.744Z" fill="#D9EFFB"></path>
    <path d="M62.441 156.097C62.3176 156.097 62.1919 156.067 62.0759 156.003L20.3605 132.956C19.8535 132.675 19.5475 132.169 19.543 131.601C19.5379 131.034 19.8357 130.523 20.3376 130.235L38.2335 119.968C38.8647 119.606 39.2565 118.938 39.2565 118.226V106.91C39.2565 106.513 39.5876 106.192 39.9956 106.192C40.4044 106.192 40.7348 106.513 40.7348 106.91V118.226C40.7348 119.444 40.0644 120.586 38.9852 121.206L21.0894 131.473L21.0214 131.59L21.0916 131.707L62.8069 154.754C63.1617 154.949 63.2859 155.388 63.0841 155.733C62.9481 155.966 62.6975 156.097 62.441 156.097Z" fill="#5F92D3"></path>
    <path d="M47.0742 149.159L49.0456 145.816L56.4638 149.952L54.4924 153.294L47.0742 149.159Z" fill="#5F92D3"></path>
    <path d="M46.6602 148.278C46.6572 147.409 47.2818 146.351 48.0542 145.914C48.8266 145.478 49.4549 145.828 49.4572 146.697C49.4601 147.566 48.8355 148.624 48.0631 149.06C47.2907 149.497 46.6624 149.147 46.6602 148.278Z" fill="#5F92D3"></path>
    <path d="M52.5859 153.608L55.7799 148.193L67.4157 154.679L64.2211 160.095L52.5859 153.608Z" fill="#5F92D3"></path>
    <path d="M55.2432 149.272L52.7331 147.873C51.6938 148.596 50.8785 149.977 50.7617 151.214L53.2719 152.614C54.3119 151.89 55.1257 150.51 55.2432 149.272Z" fill="#006CAC"></path>
    <path d="M51.9141 152.182C51.9104 150.774 52.9223 149.06 54.1737 148.352C55.4251 147.644 56.4436 148.212 56.4481 149.62C56.4518 151.027 55.4406 152.742 54.1885 153.449C52.9371 154.157 51.9185 153.589 51.9141 152.182Z" fill="#5F92D3"></path>
    <path d="M49.0001 147.386C48.6365 147.183 48.635 146.853 48.9979 146.648C49.3601 146.443 49.9485 146.442 50.3122 146.644C50.6766 146.847 50.6773 147.177 50.3144 147.382C49.9522 147.587 49.3631 147.588 49.0001 147.386Z" fill="#D9EFFB"></path>
    <path d="M38.0547 154.459L40.026 151.117L47.445 155.252L45.4736 158.595L38.0547 154.459Z" fill="#5F92D3"></path>
    <path d="M37.6406 153.578C37.6384 152.71 38.2623 151.652 39.0354 151.215C39.8071 150.779 40.4354 151.129 40.4384 151.997C40.4413 152.866 39.8167 153.924 39.0443 154.361C38.2719 154.797 37.6436 154.446 37.6406 153.578Z" fill="#5F92D3"></path>
    <path d="M43.5664 158.908L46.7611 153.493L58.3962 159.978L55.2023 165.395L43.5664 158.908Z" fill="#5F92D3"></path>
    <path d="M46.2245 154.572L43.7143 153.172C42.6743 153.897 41.8597 155.276 41.7422 156.514L44.2531 157.914C45.2916 157.19 46.1069 155.809 46.2245 154.572Z" fill="#006CAC"></path>
    <path d="M42.8945 157.482C42.8901 156.074 43.902 154.359 45.1541 153.652C46.4055 152.944 47.4234 153.512 47.4278 154.92C47.4322 156.328 46.4211 158.042 45.1689 158.749C43.9175 159.457 42.899 158.889 42.8945 157.482Z" fill="#5F92D3"></path>
    <path d="M39.9801 152.686C39.6171 152.483 39.6157 152.153 39.9779 151.949C40.34 151.743 40.9291 151.742 41.2928 151.944C41.6557 152.147 41.6572 152.478 41.295 152.682C40.9328 152.887 40.3437 152.889 39.9801 152.686Z" fill="#D9EFFB"></path>
    <path d="M189.631 91.5518L189.464 91.5331C189.066 91.444 188.818 91.0581 188.91 90.6715L196.119 60.245C196.21 59.8584 196.605 59.6156 197.005 59.7061C197.403 59.7952 197.651 60.1818 197.559 60.5684L190.35 90.9941C190.272 91.3268 189.967 91.5518 189.631 91.5518Z" fill="#5F92D3"></path>
    <path d="M180.049 89.4062L179.882 89.3876C179.484 89.2985 179.236 88.9126 179.328 88.526L186.537 58.1002C186.628 57.7136 187.022 57.4715 187.423 57.5613C187.821 57.6504 188.069 58.0363 187.977 58.4229L180.769 88.8487C180.69 89.1814 180.385 89.4062 180.049 89.4062Z" fill="#5F92D3"></path>
    <path d="M170.467 87.2607L170.3 87.2428C169.902 87.1537 169.654 86.7678 169.746 86.3812L176.955 55.9547C177.046 55.5681 177.44 55.3274 177.842 55.4158C178.239 55.5049 178.488 55.8908 178.396 56.2774L171.187 86.7038C171.108 87.0365 170.803 87.2607 170.467 87.2607Z" fill="#5F92D3"></path>
    <path d="M175.944 72.2085L172.086 71.329L174.037 63.235L177.896 64.1138L175.944 72.2085Z" fill="#5F92D3"></path>
    <path d="M175.197 72.8452C174.341 73.0959 173.12 72.8186 172.469 72.2229C171.817 71.6286 171.982 70.9431 172.838 70.6923C173.693 70.4408 174.915 70.7196 175.567 71.3139C176.217 71.9082 176.052 72.5937 175.197 72.8452Z" fill="#5F92D3"></path>
    <path d="M178.752 65.8013L172.5 64.3764L175.561 51.6813L181.813 53.1063L178.752 65.8013Z" fill="#5F92D3"></path>
    <path d="M173.719 64.5664L173.059 67.3056C174.07 68.0659 175.663 68.4295 176.918 68.1844L177.578 65.446C176.567 64.6843 174.973 64.3214 173.719 64.5664Z" fill="#006CAC"></path>
    <path d="M177.538 66.8329C176.152 67.2404 174.174 66.7891 173.118 65.8255C172.062 64.8619 172.33 63.751 173.716 63.3443C175.103 62.9375 177.082 63.3881 178.137 64.351C179.193 65.3146 178.925 66.4262 177.538 66.8329Z" fill="#5F92D3"></path>
    <path d="M173.649 70.9211C173.553 71.3184 173.227 71.4133 172.922 71.1345C172.617 70.8557 172.447 70.3074 172.542 69.9115C172.638 69.5148 172.963 69.4186 173.269 69.6981C173.574 69.9762 173.745 70.5244 173.649 70.9211Z" fill="#D9EFFB"></path>
    <path d="M184.831 77.3516L180.973 76.472L182.925 68.378L186.782 69.2568L184.831 77.3516Z" fill="#5F92D3"></path>
    <path d="M184.083 77.9888C183.228 78.2396 182.006 77.9615 181.355 77.3672C180.704 76.7716 180.869 76.086 181.725 75.8352C182.58 75.5845 183.801 75.8625 184.452 76.4568C185.104 77.0518 184.939 77.7373 184.083 77.9888Z" fill="#5F92D3"></path>
    <path d="M187.639 70.9438L181.387 69.5196L184.448 56.8246L190.699 58.2488L187.639 70.9438Z" fill="#5F92D3"></path>
    <path d="M182.602 69.7096L181.941 72.4488C182.953 73.2097 184.547 73.5726 185.8 73.3283L186.461 70.5891C185.45 69.8281 183.855 69.4652 182.602 69.7096Z" fill="#006CAC"></path>
    <path d="M186.425 71.9764C185.04 72.3831 183.06 71.9319 182.005 70.9683C180.949 70.0046 181.217 68.8945 182.603 68.487C183.988 68.0803 185.968 68.5316 187.024 69.4952C188.079 70.4581 187.811 71.569 186.425 71.9764Z" fill="#5F92D3"></path>
    <path d="M182.532 76.0644C182.436 76.461 182.111 76.5566 181.806 76.2778C181.5 75.9982 181.329 75.4514 181.425 75.054C181.521 74.6574 181.847 74.5618 182.152 74.8406C182.458 75.1201 182.628 75.667 182.532 76.0644Z" fill="#D9EFFB"></path>
    <path d="M193.815 82.4556L189.957 81.576L191.909 73.4813L195.768 74.3609L193.815 82.4556Z" fill="#5F92D3"></path>
    <path d="M193.064 83.092C192.208 83.3435 190.987 83.0647 190.335 82.4705C189.684 81.8755 189.85 81.19 190.705 80.9385C191.56 80.6877 192.781 80.9658 193.432 81.5607C194.084 82.1557 193.92 82.8412 193.064 83.092Z" fill="#5F92D3"></path>
    <path d="M196.624 76.0479L190.371 74.6229L193.432 61.9279L199.684 63.3528L196.624 76.0479Z" fill="#5F92D3"></path>
    <path d="M191.586 74.8134L190.926 77.5519C191.937 78.3136 193.531 78.6765 194.783 78.4314L195.444 75.693C194.434 74.932 192.839 74.5684 191.586 74.8134Z" fill="#006CAC"></path>
    <path d="M195.406 77.08C194.02 77.4874 192.041 77.0362 190.985 76.0726C189.93 75.109 190.197 73.998 191.583 73.5913C192.969 73.1839 194.948 73.6352 196.005 74.5988C197.06 75.5624 196.792 76.6733 195.406 77.08Z" fill="#5F92D3"></path>
    <path d="M191.516 81.1684C191.421 81.5643 191.095 81.6599 190.79 81.3818C190.484 81.1023 190.314 80.5547 190.41 80.1573C190.505 79.7614 190.83 79.6658 191.136 79.9447C191.442 80.2235 191.612 80.771 191.516 81.1684Z" fill="#D9EFFB"></path>
    <path d="M130.819 225.66L44.9712 177.477C42.5431 176.113 42.8476 173.733 45.652 172.159L104.108 139.361C106.911 137.787 111.154 137.615 113.582 138.979L199.43 187.162C201.858 188.525 201.554 190.906 198.75 192.48L140.293 225.278C137.49 226.852 133.248 227.024 130.819 225.66Z" fill="#B8D8ED"></path>
    <path d="M219.537 101.806L133.689 53.6227C132.692 53.0622 131.68 52.976 130.78 53.2756L130.786 53.267L130.63 53.3245L130.592 53.3381L127.489 54.4921L130.274 55.8172L130.233 55.9645L116.25 117.843C115.55 120.939 116.953 124.555 119.381 125.917L203.163 172.942L202.865 176.394L206.256 175.117C207.395 174.598 208.306 173.427 208.684 171.759L222.667 109.881C223.367 106.784 221.965 103.169 219.537 101.806Z" fill="#002245"></path>
    <path d="M219.535 101.806L133.687 53.6226C132.69 53.0621 131.677 52.9759 130.778 53.2755L130.784 53.2669L130.628 53.3244L130.589 53.338L127.487 54.492L130.271 55.8171L130.231 55.9644L121.016 96.7455L163.02 128.56L222.247 105.131C221.677 103.697 220.731 102.478 219.535 101.806Z" fill="#006CAC"></path>
    <path d="M216.3 111.317L222.835 108.613C222.955 106.152 221.908 103.61 220.188 102.25L209.844 106.481L216.3 111.317Z" fill="#1F3A50"></path>
    <path d="M199.881 176.066L114.032 127.882C111.604 126.519 110.203 122.904 110.903 119.807L124.886 57.9296C125.586 54.8326 128.122 53.427 130.55 54.7909L216.398 102.974C218.826 104.337 220.228 107.952 219.528 111.049L205.545 172.927C204.845 176.023 202.309 177.429 199.881 176.066Z" fill="#D9EFFB"></path>
    <path d="M198.021 171.463L117.283 126.17C115.061 124.922 113.778 121.614 114.419 118.78L127.214 62.157C127.855 59.3229 130.175 58.0367 132.398 59.2848L213.136 104.578C215.358 105.825 216.641 109.134 216 111.968L203.204 168.59C202.564 171.424 200.243 172.71 198.021 171.463Z" fill="white"></path>
    <path d="M198.021 171.463L117.283 126.17C115.061 124.922 113.778 121.614 114.419 118.78L127.214 62.157C127.855 59.3229 130.175 58.0367 132.398 59.2848L213.136 104.578C215.358 105.825 216.641 109.134 216 111.968L203.204 168.59C202.564 171.424 200.243 172.71 198.021 171.463Z" fill="white"></path>
    <path d="M201.069 178.164L189.334 176.658L113.582 134.142C111.154 132.779 106.912 132.95 104.108 134.524L50.4319 164.64L43.3359 163.729V167.642L43.3426 167.643C43.296 168.548 43.826 169.418 44.9717 170.062L130.819 218.245C133.248 219.608 137.49 219.437 140.294 217.863L198.751 185.065C200.328 184.179 201.114 183.038 201.069 181.967V178.164Z" fill="#002245"></path>
    <path d="M144.152 151.299L138.77 148.278H79.6007L50.4319 164.64L43.3359 163.729V167.642L43.3426 167.643C43.296 168.548 43.826 169.418 44.9717 170.062L130.819 218.245C132.103 218.965 133.893 219.253 135.71 219.136L144.152 151.299Z" fill="#006CAC"></path>
    <path d="M46.4848 164.133L43.3359 163.729V167.642L43.3426 167.643C43.296 168.547 43.826 169.418 44.9717 170.062L46.4848 170.91V164.133Z" fill="#5F92D3"></path>
    <path d="M131.684 218.635C133.986 219.484 137.278 219.299 139.735 218.15V209.419H131.684V218.635Z" fill="#1F3A50"></path>
    <path d="M130.819 214.336L44.9712 166.152C42.5431 164.789 42.8476 162.407 45.652 160.834L104.108 128.035C106.911 126.462 111.154 126.291 113.582 127.654L199.43 175.838C201.858 177.2 201.554 179.581 198.75 181.155L140.293 213.954C137.49 215.527 133.248 215.698 130.819 214.336Z" fill="#D9EFFB"></path>
    <path d="M198.749 179.726L140.293 212.523C137.489 214.098 133.247 214.269 130.818 212.906L44.9704 164.722C44.1743 164.276 43.6776 163.718 43.461 163.117C43.0803 164.233 43.5645 165.363 44.9704 166.152L130.818 214.336C133.247 215.698 137.489 215.527 140.293 213.954L198.749 181.155C200.634 180.097 201.383 178.676 200.939 177.443C200.662 178.256 199.93 179.062 198.749 179.726Z" fill="white"></path>
    <path d="M81.481 150.2L77.5967 148.02C77.2855 147.846 77.3247 147.539 77.6846 147.338L82.2697 144.764C82.6296 144.562 83.1744 144.539 83.4863 144.715L87.3706 146.895C87.6825 147.07 87.6434 147.376 87.2834 147.578L82.6984 150.151C82.3384 150.353 81.7936 150.375 81.481 150.2Z" fill="#002245"></path>
    <path d="M87.4821 153.567L83.597 151.387C83.2851 151.211 83.325 150.906 83.6843 150.704L88.2693 148.131C88.6293 147.929 89.1748 147.906 89.4859 148.082L93.3702 150.261C93.6822 150.437 93.643 150.743 93.283 150.945L88.698 153.518C88.338 153.72 87.7933 153.742 87.4821 153.567Z" fill="#002245"></path>
    <path d="M93.4821 156.933L89.597 154.754C89.2851 154.578 89.325 154.272 89.6843 154.07L94.2693 151.497C94.63 151.295 95.1748 151.273 95.4867 151.448L99.371 153.628C99.6822 153.804 99.6437 154.108 99.283 154.311L94.698 156.885C94.338 157.087 93.794 157.108 93.4821 156.933Z" fill="#002245"></path>
    <path d="M101.774 154.153L97.8905 151.973C97.5786 151.798 97.617 151.492 97.9777 151.29L101.826 149.13C102.186 148.928 102.731 148.906 103.042 149.081L106.927 151.262C107.239 151.436 107.199 151.742 106.84 151.944L102.991 154.104C102.631 154.306 102.086 154.329 101.774 154.153Z" fill="#002245"></path>
    <path d="M107.775 157.52L103.89 155.34C103.578 155.165 103.618 154.859 103.977 154.657L107.826 152.497C108.186 152.295 108.731 152.273 109.042 152.448L112.927 154.628C113.238 154.803 113.199 155.109 112.839 155.311L108.99 157.471C108.631 157.673 108.086 157.695 107.775 157.52Z" fill="#002245"></path>
    <path d="M113.775 160.887L109.89 158.707C109.578 158.532 109.618 158.226 109.977 158.024L113.826 155.864C114.186 155.661 114.731 155.639 115.043 155.814L118.927 157.995C119.238 158.17 119.2 158.476 118.839 158.678L114.99 160.838C114.631 161.04 114.086 161.061 113.775 160.887Z" fill="#002245"></path>
    <path d="M119.771 164.254L115.886 162.073C115.574 161.898 115.614 161.593 115.974 161.391L119.822 159.23C120.182 159.028 120.727 159.006 121.039 159.181L124.923 161.361C125.235 161.536 125.196 161.842 124.836 162.044L120.987 164.205C120.627 164.407 120.083 164.429 119.771 164.254Z" fill="#002245"></path>
    <path d="M125.77 167.62L121.886 165.44C121.575 165.265 121.613 164.959 121.974 164.757L125.822 162.597C126.182 162.395 126.727 162.373 127.039 162.548L130.923 164.728C131.235 164.903 131.196 165.209 130.836 165.411L126.987 167.571C126.627 167.774 126.082 167.795 125.77 167.62Z" fill="#002245"></path>
    <path d="M131.771 170.987L127.886 168.807C127.574 168.632 127.614 168.326 127.974 168.124L131.822 165.964C132.182 165.762 132.727 165.74 133.038 165.915L136.923 168.095C137.235 168.27 137.195 168.576 136.835 168.778L132.987 170.938C132.627 171.14 132.082 171.163 131.771 170.987Z" fill="#002245"></path>
    <path d="M137.767 174.354L133.882 172.174C133.571 171.999 133.61 171.693 133.97 171.491L137.818 169.331C138.178 169.129 138.723 169.107 139.035 169.282L142.919 171.462C143.231 171.637 143.192 171.943 142.831 172.145L138.983 174.305C138.623 174.507 138.079 174.528 137.767 174.354Z" fill="#002245"></path>
    <path d="M143.767 177.721L139.882 175.541C139.571 175.365 139.61 175.06 139.97 174.857L143.818 172.697C144.178 172.495 144.723 172.473 145.035 172.649L148.919 174.828C149.231 175.004 149.192 175.309 148.832 175.512L144.983 177.671C144.623 177.874 144.079 177.896 143.767 177.721Z" fill="#002245"></path>
    <path d="M149.762 181.087L145.878 178.907C145.567 178.732 145.605 178.427 145.966 178.225L149.814 176.064C150.174 175.862 150.719 175.84 151.031 176.015L154.915 178.195C155.227 178.37 155.188 178.676 154.828 178.878L150.979 181.039C150.618 181.24 150.074 181.263 149.762 181.087Z" fill="#002245"></path>
    <path d="M155.763 184.454L151.879 182.275C151.567 182.099 151.605 181.793 151.966 181.591L155.814 179.431C156.174 179.229 156.719 179.207 157.031 179.382L160.915 181.562C161.227 181.737 161.188 182.042 160.828 182.245L156.979 184.405C156.62 184.607 156.074 184.629 155.763 184.454Z" fill="#002245"></path>
    <path d="M110.614 152.559L106.73 150.379C106.418 150.204 106.457 149.898 106.818 149.696L110.666 147.536C111.026 147.334 111.57 147.312 111.882 147.488L115.767 149.667C116.079 149.842 116.039 150.148 115.679 150.35L111.831 152.51C111.471 152.712 110.926 152.734 110.614 152.559Z" fill="#006CAC"></path>
    <path d="M104.525 149.142L100.64 146.962C100.328 146.787 100.368 146.481 100.727 146.279L104.576 144.119C104.937 143.917 105.481 143.895 105.793 144.07L109.677 146.25C109.989 146.425 109.95 146.731 109.59 146.933L105.742 149.093C105.381 149.295 104.836 149.317 104.525 149.142Z" fill="#006CAC"></path>
    <path d="M98.4272 145.72L90.0621 141.024C89.7502 140.849 89.7894 140.544 90.1494 140.341L93.9974 138.181C94.3574 137.979 94.9029 137.957 95.2141 138.132L103.581 142.828C103.893 143.002 103.853 143.308 103.493 143.51L99.6446 145.67C99.2839 145.873 98.7392 145.895 98.4272 145.72Z" fill="#002245"></path>
    <path d="M102.691 141.558L95.902 137.747C95.5901 137.572 95.6292 137.266 95.9892 137.064L99.838 134.904C100.199 134.702 100.743 134.68 101.055 134.855L107.843 138.665C108.156 138.84 108.117 139.146 107.756 139.348L103.908 141.508C103.548 141.711 103.003 141.732 102.691 141.558Z" fill="#002245"></path>
    <path d="M116.614 155.926L112.73 153.746C112.418 153.57 112.457 153.266 112.817 153.063L116.666 150.903C117.026 150.7 117.571 150.679 117.882 150.853L121.766 153.034C122.078 153.209 122.04 153.514 121.679 153.717L117.831 155.877C117.471 156.08 116.926 156.101 116.614 155.926Z" fill="#006CAC"></path>
    <path d="M122.61 159.292L118.726 157.113C118.414 156.938 118.453 156.631 118.813 156.43L122.662 154.27C123.023 154.068 123.567 154.046 123.879 154.221L127.763 156.401C128.074 156.575 128.036 156.882 127.675 157.083L123.827 159.243C123.467 159.445 122.922 159.468 122.61 159.292Z" fill="#002245"></path>
    <path d="M128.61 162.66L124.726 160.479C124.414 160.305 124.453 159.999 124.813 159.796L128.662 157.637C129.023 157.434 129.567 157.413 129.879 157.587L133.763 159.767C134.075 159.943 134.036 160.248 133.676 160.451L129.828 162.611C129.467 162.813 128.922 162.835 128.61 162.66Z" fill="#002245"></path>
    <path d="M134.606 166.026L130.722 163.846C130.411 163.671 130.449 163.365 130.81 163.163L134.659 161.003C135.019 160.802 135.563 160.779 135.875 160.955L139.759 163.135C140.071 163.309 140.032 163.615 139.672 163.817L135.824 165.977C135.464 166.179 134.918 166.202 134.606 166.026Z" fill="#002245"></path>
    <path d="M140.607 169.393L136.722 167.213C136.41 167.038 136.45 166.732 136.81 166.53L140.658 164.37C141.018 164.167 141.563 164.146 141.874 164.321L145.759 166.501C146.07 166.676 146.031 166.982 145.671 167.184L141.823 169.344C141.463 169.546 140.918 169.568 140.607 169.393Z" fill="#002245"></path>
    <path d="M146.607 172.76L142.722 170.579C142.41 170.404 142.45 170.099 142.81 169.897L146.658 167.736C147.018 167.534 147.563 167.513 147.875 167.687L151.759 169.867C152.07 170.043 152.032 170.348 151.671 170.55L147.823 172.711C147.463 172.913 146.919 172.935 146.607 172.76Z" fill="#002245"></path>
    <path d="M152.603 176.126L148.718 173.946C148.406 173.772 148.446 173.465 148.806 173.264L152.654 171.104C153.015 170.902 153.559 170.879 153.871 171.054L157.755 173.235C158.067 173.409 158.028 173.716 157.668 173.917L153.82 176.077C153.459 176.279 152.915 176.302 152.603 176.126Z" fill="#002245"></path>
    <path d="M158.602 179.493L154.718 177.313C154.407 177.138 154.445 176.832 154.806 176.63L158.655 174.47C159.015 174.268 159.559 174.246 159.871 174.421L163.755 176.601C164.068 176.776 164.028 177.082 163.668 177.284L159.82 179.444C159.459 179.646 158.914 179.668 158.602 179.493Z" fill="#002245"></path>
    <path d="M164.603 182.86L160.718 180.68C160.406 180.505 160.446 180.199 160.806 179.997L164.654 177.837C165.014 177.635 165.558 177.612 165.87 177.788L169.755 179.968C170.067 180.143 170.027 180.449 169.667 180.651L165.819 182.811C165.459 183.013 164.914 183.035 164.603 182.86Z" fill="#002245"></path>
    <path d="M175.264 188.845L166.788 184.089C166.477 183.914 166.516 183.607 166.876 183.405L170.725 181.245C171.085 181.044 171.63 181.022 171.942 181.197L180.417 185.954C180.729 186.128 180.69 186.434 180.33 186.636L176.481 188.796C176.12 188.998 175.575 189.02 175.264 188.845Z" fill="#002245"></path>
    <path d="M186.942 182.291L179.788 178.275C179.477 178.101 179.516 177.795 179.876 177.593L183.725 175.433C184.085 175.231 184.629 175.208 184.941 175.384L192.095 179.398C192.407 179.574 192.367 179.879 192.007 180.081L188.159 182.242C187.799 182.444 187.254 182.465 186.942 182.291Z" fill="#002245"></path>
    <path d="M127.119 155.268L123.234 153.088C122.922 152.912 122.962 152.607 123.322 152.404L127.17 150.245C127.53 150.042 128.075 150.02 128.386 150.195L132.271 152.375C132.582 152.551 132.543 152.856 132.183 153.059L128.335 155.218C127.975 155.421 127.43 155.442 127.119 155.268Z" fill="#002245"></path>
    <path d="M120.97 151.817L117.086 149.637C116.774 149.462 116.813 149.156 117.173 148.954L121.022 146.794C121.382 146.592 121.926 146.569 122.238 146.745L126.123 148.925C126.434 149.1 126.395 149.406 126.035 149.608L122.187 151.768C121.827 151.97 121.282 151.992 120.97 151.817Z" fill="#002245"></path>
    <path d="M114.821 148.366L110.937 146.186C110.625 146.011 110.664 145.706 111.024 145.504L114.873 143.343C115.233 143.141 115.778 143.119 116.09 143.294L119.975 145.474C120.286 145.649 120.247 145.955 119.887 146.157L116.038 148.318C115.678 148.519 115.133 148.541 114.821 148.366Z" fill="#006CAC"></path>
    <path d="M108.673 144.916L104.789 142.736C104.477 142.56 104.515 142.254 104.876 142.052L108.725 139.892C109.085 139.69 109.63 139.669 109.942 139.843L113.826 142.024C114.138 142.198 114.099 142.504 113.739 142.706L109.89 144.867C109.53 145.069 108.984 145.091 108.673 144.916Z" fill="#002245"></path>
    <path d="M133.115 158.634L129.23 156.454C128.918 156.278 128.958 155.973 129.318 155.771L133.166 153.61C133.526 153.408 134.071 153.387 134.383 153.562L138.267 155.742C138.579 155.917 138.54 156.222 138.179 156.424L134.331 158.585C133.971 158.787 133.427 158.809 133.115 158.634Z" fill="#002245"></path>
    <path d="M139.115 162.001L135.23 159.821C134.918 159.646 134.958 159.34 135.318 159.137L139.166 156.978C139.526 156.775 140.071 156.754 140.383 156.928L144.267 159.108C144.579 159.284 144.54 159.589 144.18 159.792L140.331 161.952C139.971 162.154 139.427 162.176 139.115 162.001Z" fill="#002245"></path>
    <path d="M145.114 165.367L141.23 163.187C140.918 163.012 140.957 162.706 141.318 162.504L145.166 160.344C145.526 160.143 146.071 160.121 146.383 160.296L150.267 162.476C150.579 162.65 150.54 162.956 150.18 163.158L146.331 165.318C145.97 165.52 145.426 165.543 145.114 165.367Z" fill="#002245"></path>
    <path d="M151.111 168.735L147.226 166.554C146.914 166.38 146.954 166.074 147.314 165.872L151.162 163.712C151.522 163.509 152.067 163.487 152.378 163.662L156.263 165.843C156.575 166.018 156.536 166.323 156.176 166.526L152.327 168.686C151.967 168.888 151.422 168.909 151.111 168.735Z" fill="#002245"></path>
    <path d="M157.11 172.102L153.226 169.921C152.914 169.746 152.953 169.44 153.313 169.238L157.161 167.077C157.521 166.875 158.067 166.854 158.379 167.029L162.262 169.209C162.574 169.384 162.536 169.69 162.175 169.892L158.326 172.052C157.966 172.254 157.422 172.276 157.11 172.102Z" fill="#002245"></path>
    <path d="M163.107 175.468L159.222 173.288C158.91 173.112 158.95 172.807 159.31 172.605L163.158 170.444C163.518 170.242 164.063 170.22 164.375 170.395L168.259 172.576C168.571 172.751 168.532 173.056 168.172 173.258L164.323 175.419C163.963 175.621 163.419 175.643 163.107 175.468Z" fill="#002245"></path>
    <path d="M169.107 178.834L165.222 176.654C164.91 176.479 164.949 176.174 165.31 175.971L169.158 173.811C169.518 173.609 170.063 173.587 170.375 173.762L174.259 175.942C174.571 176.117 174.532 176.423 174.172 176.625L170.323 178.785C169.962 178.987 169.418 179.01 169.107 178.834Z" fill="#002245"></path>
    <path d="M175.106 182.201L171.223 180.021C170.911 179.846 170.949 179.54 171.31 179.338L175.158 177.178C175.518 176.976 176.063 176.954 176.374 177.129L180.259 179.31C180.571 179.484 180.532 179.79 180.172 179.992L176.323 182.152C175.963 182.354 175.418 182.376 175.106 182.201Z" fill="#002245"></path>
    <path d="M181.103 185.569L177.218 183.388C176.906 183.213 176.946 182.908 177.306 182.705L181.154 180.545C181.514 180.343 182.059 180.321 182.371 180.496L186.255 182.676C186.567 182.851 186.528 183.157 186.167 183.36L182.319 185.519C181.959 185.722 181.415 185.743 181.103 185.569Z" fill="#002245"></path>
    <path d="M123.958 146.94L120.074 144.76C119.762 144.585 119.801 144.279 120.161 144.077L124.01 141.917C124.37 141.714 124.915 141.692 125.227 141.868L129.111 144.047C129.423 144.223 129.384 144.529 129.024 144.731L125.175 146.891C124.815 147.093 124.27 147.115 123.958 146.94Z" fill="#002245"></path>
    <path d="M117.989 143.59L114.105 141.41C113.793 141.235 113.832 140.929 114.192 140.727L118.041 138.567C118.402 138.365 118.946 138.342 119.259 138.518L123.143 140.698C123.455 140.873 123.415 141.179 123.055 141.381L119.206 143.54C118.846 143.743 118.301 143.765 117.989 143.59Z" fill="#002245"></path>
    <path d="M112.021 140.24L108.136 138.059C107.824 137.884 107.864 137.579 108.223 137.376L112.072 135.216C112.432 135.015 112.978 134.992 113.29 135.168L117.173 137.348C117.485 137.522 117.447 137.828 117.086 138.03L113.237 140.19C112.877 140.393 112.333 140.415 112.021 140.24Z" fill="#002245"></path>
    <path d="M106.052 136.89L102.168 134.709C101.856 134.535 101.895 134.229 102.255 134.027L106.104 131.867C106.463 131.665 107.008 131.642 107.32 131.818L111.204 133.998C111.516 134.172 111.477 134.479 111.117 134.681L107.268 136.841C106.909 137.042 106.363 137.065 106.052 136.89Z" fill="#002245"></path>
    <path d="M112.189 133.445L108.304 131.264C107.993 131.09 108.032 130.783 108.392 130.582L109.664 129.867C110.024 129.665 110.569 129.644 110.881 129.819L114.765 131.999C115.077 132.174 115.038 132.479 114.677 132.682L113.405 133.395C113.045 133.598 112.501 133.62 112.189 133.445Z" fill="#002245"></path>
    <path d="M119.977 137.817L116.093 135.636C115.782 135.461 115.82 135.155 116.181 134.953L117.453 134.239C117.814 134.037 118.358 134.016 118.67 134.191L122.554 136.37C122.866 136.546 122.827 136.851 122.467 137.053L121.195 137.767C120.835 137.969 120.289 137.991 119.977 137.817Z" fill="#002245"></path>
    <path d="M125.923 141.153L122.038 138.972C121.727 138.798 121.766 138.492 122.126 138.29L123.398 137.575C123.759 137.373 124.303 137.351 124.615 137.527L128.5 139.706C128.812 139.882 128.772 140.187 128.413 140.39L127.14 141.104C126.78 141.306 126.235 141.327 125.923 141.153Z" fill="#002245"></path>
    <path d="M131.868 144.489L127.984 142.309C127.672 142.134 127.711 141.828 128.072 141.625L129.343 140.911C129.704 140.709 130.249 140.688 130.561 140.863L134.445 143.043C134.757 143.218 134.718 143.523 134.358 143.726L133.085 144.439C132.725 144.642 132.18 144.664 131.868 144.489Z" fill="#002245"></path>
    <path d="M137.809 147.824L133.926 145.644C133.614 145.47 133.652 145.164 134.013 144.962L135.284 144.247C135.645 144.045 136.19 144.023 136.502 144.198L140.386 146.379C140.698 146.554 140.659 146.86 140.299 147.062L139.026 147.776C138.667 147.977 138.121 147.999 137.809 147.824Z" fill="#002245"></path>
    <path d="M170.993 166.449L167.109 164.269C166.797 164.095 166.836 163.789 167.196 163.587L168.469 162.872C168.829 162.67 169.374 162.648 169.685 162.823L173.569 165.004C173.881 165.179 173.842 165.485 173.482 165.687L172.21 166.401C171.85 166.602 171.305 166.624 170.993 166.449Z" fill="#002245"></path>
    <path d="M176.939 169.785L173.054 167.605C172.742 167.431 172.782 167.125 173.142 166.922L174.414 166.208C174.774 166.006 175.319 165.984 175.63 166.159L179.515 168.339C179.827 168.514 179.787 168.82 179.428 169.022L178.155 169.736C177.795 169.938 177.251 169.96 176.939 169.785Z" fill="#002245"></path>
    <path d="M182.88 173.121L178.995 170.941C178.683 170.766 178.723 170.46 179.083 170.258L180.355 169.544C180.715 169.342 181.261 169.32 181.572 169.496L185.456 171.675C185.768 171.851 185.729 172.157 185.369 172.359L184.096 173.072C183.736 173.274 183.192 173.297 182.88 173.121Z" fill="#002245"></path>
    <path d="M188.825 176.457L184.941 174.277C184.629 174.103 184.668 173.797 185.028 173.595L186.3 172.88C186.66 172.678 187.206 172.656 187.517 172.831L191.401 175.011C191.713 175.186 191.674 175.492 191.314 175.694L190.041 176.409C189.682 176.61 189.137 176.633 188.825 176.457Z" fill="#002245"></path>
    <path d="M129.958 150.307L126.074 148.126C125.762 147.951 125.801 147.646 126.161 147.444L130.01 145.283C130.369 145.081 130.914 145.06 131.226 145.234L135.11 147.414C135.422 147.59 135.383 147.895 135.023 148.097L131.174 150.258C130.815 150.46 130.27 150.482 129.958 150.307Z" fill="#002245"></path>
    <path d="M135.954 153.673L132.07 151.494C131.758 151.318 131.797 151.012 132.157 150.81L136.006 148.65C136.365 148.448 136.911 148.426 137.222 148.601L141.106 150.781C141.418 150.956 141.379 151.262 141.019 151.464L137.17 153.624C136.811 153.827 136.265 153.848 135.954 153.673Z" fill="#002245"></path>
    <path d="M141.954 157.04L138.07 154.859C137.758 154.685 137.797 154.379 138.157 154.177L142.006 152.017C142.365 151.815 142.911 151.793 143.223 151.968L147.107 154.148C147.418 154.323 147.38 154.629 147.019 154.831L143.171 156.991C142.811 157.193 142.266 157.216 141.954 157.04Z" fill="#002245"></path>
    <path d="M147.954 160.407L144.07 158.227C143.758 158.052 143.797 157.746 144.157 157.544L148.006 155.384C148.366 155.182 148.911 155.159 149.223 155.335L153.107 157.515C153.419 157.69 153.38 157.996 153.02 158.198L149.172 160.358C148.811 160.56 148.266 160.582 147.954 160.407Z" fill="#002245"></path>
    <path d="M153.95 163.774L150.066 161.593C149.754 161.419 149.793 161.113 150.154 160.911L154.002 158.75C154.362 158.548 154.906 158.526 155.218 158.702L159.103 160.881C159.415 161.057 159.375 161.363 159.015 161.565L155.167 163.725C154.807 163.927 154.262 163.949 153.95 163.774Z" fill="#002245"></path>
    <path d="M159.95 167.14L156.066 164.96C155.754 164.785 155.793 164.479 156.153 164.278L160.002 162.117C160.362 161.915 160.907 161.893 161.218 162.068L165.102 164.248C165.414 164.423 165.375 164.729 165.015 164.931L161.167 167.091C160.807 167.293 160.262 167.315 159.95 167.14Z" fill="#002245"></path>
    <path d="M165.946 170.507L162.062 168.328C161.75 168.152 161.789 167.846 162.149 167.644L165.998 165.484C166.358 165.282 166.903 165.26 167.215 165.435L171.098 167.615C171.41 167.79 171.372 168.096 171.011 168.298L167.163 170.458C166.803 170.66 166.258 170.683 165.946 170.507Z" fill="#002245"></path>
    <path d="M171.946 173.873L168.062 171.693C167.75 171.519 167.789 171.213 168.149 171.011L171.998 168.851C172.359 168.649 172.903 168.627 173.215 168.802L177.099 170.982C177.411 171.156 177.372 171.463 177.012 171.665L173.164 173.825C172.803 174.026 172.258 174.049 171.946 173.873Z" fill="#002245"></path>
    <path d="M177.946 177.241L174.062 175.061C173.751 174.886 173.789 174.58 174.15 174.377L177.999 172.218C178.359 172.015 178.903 171.993 179.214 172.169L183.099 174.349C183.411 174.524 183.372 174.829 183.012 175.032L179.163 177.191C178.803 177.394 178.258 177.416 177.946 177.241Z" fill="#002245"></path>
    <path d="M95.6622 150.723L84.2222 144.301C83.9103 144.127 83.9495 143.821 84.3102 143.619L88.159 141.459C88.519 141.257 89.0637 141.234 89.3757 141.41L100.816 147.83C101.127 148.005 101.088 148.311 100.728 148.513L96.8789 150.673C96.5189 150.875 95.9742 150.897 95.6622 150.723Z" fill="#002245"></path>
    <path d="M169.357 192.084L157.918 185.663C157.606 185.488 157.644 185.183 158.005 184.98L161.854 182.821C162.214 182.618 162.758 182.596 163.07 182.771L174.51 189.192C174.822 189.367 174.783 189.673 174.423 189.875L170.574 192.035C170.213 192.237 169.669 192.258 169.357 192.084Z" fill="#002245"></path>
    <path d="M145.368 186.057L141.484 183.876C141.172 183.701 141.211 183.396 141.571 183.194L146.156 180.621C146.516 180.419 147.061 180.396 147.373 180.572L151.257 182.752C151.569 182.926 151.53 183.233 151.17 183.434L146.585 186.008C146.225 186.21 145.68 186.232 145.368 186.057Z" fill="#002245"></path>
    <path d="M101.805 161.607L95.5931 158.119C95.2812 157.945 95.3211 157.639 95.6804 157.437L100.265 154.864C100.626 154.662 101.171 154.64 101.483 154.815L107.694 158.301C108.007 158.477 107.967 158.782 107.607 158.985L103.022 161.558C102.662 161.76 102.117 161.781 101.805 161.607Z" fill="#002245"></path>
    <path d="M139.587 182.813L133.374 179.326C133.063 179.151 133.102 178.845 133.462 178.643L138.047 176.07C138.407 175.868 138.951 175.845 139.263 176.021L145.476 179.507C145.787 179.682 145.749 179.988 145.388 180.19L140.804 182.763C140.444 182.966 139.899 182.987 139.587 182.813Z" fill="#002245"></path>
    <path d="M110.462 166.464L104.25 162.978C103.938 162.802 103.977 162.496 104.337 162.294L108.922 159.721C109.282 159.519 109.827 159.497 110.139 159.672L116.35 163.159C116.662 163.334 116.623 163.64 116.263 163.842L111.678 166.415C111.319 166.617 110.773 166.64 110.462 166.464Z" fill="#002245"></path>
    <path d="M110.179 159.696L137.186 174.855C137.522 175.043 137.522 175.348 137.186 175.537L132.51 178.16C132.175 178.348 131.632 178.348 131.297 178.16L104.289 163.001L110.179 159.696Z" fill="#002245"></path>
    <path d="M162.133 192.161L166.459 194.589C166.715 194.733 166.683 194.983 166.388 195.149L164.511 196.202C164.217 196.367 163.771 196.385 163.515 196.241L159.188 193.813C158.933 193.67 158.965 193.419 159.26 193.254L161.135 192.201C161.43 192.036 161.877 192.017 162.133 192.161Z" fill="#002245"></path>
    <path d="M156.082 188.766L160.409 191.195C160.664 191.338 160.632 191.589 160.337 191.754L158.462 192.807C158.166 192.972 157.72 192.991 157.464 192.848L153.138 190.419C152.882 190.276 152.914 190.024 153.209 189.858L155.084 188.806C155.38 188.64 155.826 188.623 156.082 188.766Z" fill="#002245"></path>
    <path d="M150.086 185.399L154.412 187.828C154.668 187.971 154.636 188.221 154.341 188.388L152.466 189.44C152.17 189.606 151.724 189.623 151.468 189.48L147.141 187.052C146.886 186.909 146.918 186.658 147.213 186.493L149.088 185.439C149.384 185.274 149.83 185.256 150.086 185.399Z" fill="#002245"></path>
    <path d="M159.395 186.907L163.721 189.335C163.977 189.479 163.945 189.73 163.65 189.895L161.774 190.948C161.479 191.114 161.032 191.132 160.777 190.988L156.45 188.56C156.194 188.416 156.226 188.165 156.522 188L158.397 186.947C158.692 186.781 159.139 186.763 159.395 186.907Z" fill="#002245"></path>
    <path d="M151.449 83.7056L145.709 80.4835C145.176 80.1846 144.863 79.4444 145.008 78.8315C145.154 78.2171 145.704 77.9628 146.237 78.261L151.976 81.483C152.509 81.782 152.823 82.5214 152.677 83.1358C152.531 83.7487 151.982 84.0045 151.449 83.7056Z" fill="#D9EFFB"></path>
    <path d="M165.122 91.3803L156.657 86.6291C156.126 86.3301 155.812 85.5907 155.957 84.9771C156.103 84.3634 156.654 84.1076 157.185 84.4065L165.649 89.1577C166.182 89.4566 166.496 90.196 166.35 90.8104C166.204 91.4241 165.655 91.6792 165.122 91.3803Z" fill="#D9EFFB"></path>
    <path d="M141.44 109.753L135.701 106.532C135.168 106.232 134.854 105.492 135.001 104.879C135.146 104.265 135.696 104.01 136.229 104.309L141.968 107.531C142.501 107.83 142.814 108.569 142.67 109.184C142.523 109.797 141.973 110.052 141.44 109.753Z" fill="#D9EFFB"></path>
    <path d="M153.629 116.594L145.166 111.844C144.633 111.545 144.32 110.805 144.465 110.191C144.611 109.577 145.161 109.322 145.693 109.621L154.158 114.372C154.689 114.671 155.004 115.411 154.858 116.024C154.712 116.638 154.162 116.893 153.629 116.594Z" fill="#D9EFFB"></path>
    <path d="M134.517 79.4783L130.931 77.4656C130.398 77.1666 130.085 76.4272 130.231 75.8128C130.376 75.1999 130.926 74.9448 131.459 75.2437L135.045 77.2557C135.577 77.5547 135.891 78.2948 135.745 78.9085C135.599 79.5228 135.049 79.7772 134.517 79.4783Z" fill="#D9EFFB"></path>
    <path d="M145.568 90.959L134.611 84.8095C134.079 84.5105 133.765 83.7711 133.91 83.1567C134.056 82.5438 134.606 82.288 135.139 82.5869L146.095 88.7365C146.628 89.0354 146.941 89.7748 146.795 90.3892C146.649 91.0021 146.1 91.2579 145.568 90.959Z" fill="#D9EFFB"></path>
    <path d="M135.986 96.1358L132.4 94.123C131.867 93.8241 131.554 93.0847 131.7 92.4703C131.845 91.8574 132.395 91.6016 132.928 91.9005L136.514 93.9132C137.046 94.2121 137.36 94.9516 137.214 95.5659C137.068 96.1789 136.518 96.4347 135.986 96.1358Z" fill="#D9EFFB"></path>
    <path d="M155.477 128.184L145.9 122.809C145.367 122.51 145.054 121.77 145.2 121.156C145.346 120.543 145.895 120.287 146.428 120.586L156.005 125.962C156.537 126.261 156.851 127 156.706 127.614C156.56 128.228 156.01 128.483 155.477 128.184Z" fill="#D9EFFB"></path>
    <path d="M132.491 104.728L130.19 103.436C129.657 103.137 129.343 102.398 129.489 101.783C129.635 101.17 130.185 100.915 130.718 101.214L133.019 102.505C133.551 102.804 133.866 103.544 133.719 104.158C133.574 104.771 133.024 105.027 132.491 104.728Z" fill="#D9EFFB"></path>
    <path d="M130.837 114.353L127.979 112.75C127.446 112.451 127.132 111.711 127.278 111.097C127.424 110.483 127.973 110.228 128.506 110.527L131.365 112.131C131.897 112.43 132.21 113.17 132.065 113.784C131.92 114.397 131.37 114.652 130.837 114.353Z" fill="#D9EFFB"></path>
    <path d="M141.956 120.595L134.42 116.366C133.887 116.067 133.574 115.327 133.719 114.713C133.865 114.099 134.415 113.844 134.947 114.143L142.483 118.373C143.016 118.671 143.329 119.411 143.183 120.025C143.039 120.639 142.489 120.894 141.956 120.595Z" fill="#D9EFFB"></path>
    <path d="M132.288 120.448L126.869 117.406C126.337 117.107 126.023 116.368 126.168 115.753C126.315 115.14 126.865 114.885 127.396 115.184L132.816 118.225C133.348 118.523 133.661 119.264 133.516 119.877C133.37 120.491 132.82 120.747 132.288 120.448Z" fill="#D9EFFB"></path>
    <path d="M163.692 132.819L160.213 130.866C159.68 130.567 159.366 129.827 159.513 129.213C159.658 128.6 160.207 128.345 160.74 128.644L164.22 130.597C164.753 130.896 165.066 131.636 164.92 132.249C164.775 132.863 164.225 133.118 163.692 132.819Z" fill="#D9EFFB"></path>
    <path d="M149.326 103.623L139.748 98.2462C139.216 97.9473 138.902 97.2079 139.047 96.5942C139.194 95.9806 139.744 95.7248 140.275 96.0237L149.853 101.4C150.385 101.699 150.699 102.438 150.554 103.053C150.407 103.666 149.858 103.922 149.326 103.623Z" fill="#D9EFFB"></path>
    <path d="M150.198 98.8353L133.505 89.4659C132.972 89.167 132.66 88.4275 132.805 87.8139C132.951 87.2002 133.5 86.9451 134.033 87.2441L150.725 96.6128C151.258 96.9117 151.572 97.6511 151.425 98.2655C151.28 98.8792 150.731 99.1343 150.198 98.8353Z" fill="#D9EFFB"></path>
    <path d="M140.873 104.155L131.295 98.7791C130.762 98.4801 130.448 97.7407 130.595 97.1271C130.74 96.5127 131.29 96.2583 131.822 96.5572L141.4 101.932C141.933 102.231 142.246 102.971 142.1 103.585C141.955 104.199 141.405 104.454 140.873 104.155Z" fill="#D9EFFB"></path>
    <path d="M156.587 107.7L153.107 105.747C152.575 105.448 152.261 104.708 152.407 104.094C152.553 103.48 153.103 103.225 153.635 103.524L157.115 105.477C157.647 105.776 157.961 106.516 157.815 107.13C157.67 107.743 157.12 107.999 156.587 107.7Z" fill="#D9EFFB"></path>
    <path d="M190.936 105.87L170.33 94.304C169.798 94.0051 169.484 93.2657 169.629 92.6513C169.776 92.0376 170.326 91.7825 170.857 92.0815L191.464 103.648C191.997 103.947 192.311 104.686 192.165 105.3C192.019 105.913 191.469 106.169 190.936 105.87Z" fill="#D9EFFB"></path>
    <path d="M140.596 114.555L129.084 108.092C128.551 107.794 128.237 107.054 128.384 106.44C128.529 105.826 129.078 105.572 129.611 105.871L141.124 112.332C141.657 112.631 141.969 113.37 141.825 113.985C141.679 114.598 141.129 114.854 140.596 114.555Z" fill="#D9EFFB"></path>
    <path d="M140.501 77.56L132.037 72.8095C131.504 72.5105 131.19 71.7711 131.337 71.1567C131.482 70.5438 132.032 70.288 132.565 70.5869L141.029 75.3374C141.562 75.6363 141.875 76.3765 141.729 76.9901C141.584 77.6038 141.034 77.8589 140.501 77.56Z" fill="#D9EFFB"></path>
    <path d="M130.781 124.878L120.978 119.376C120.445 119.077 120.132 118.337 120.278 117.724C120.423 117.109 120.973 116.855 121.506 117.154L131.309 122.655C131.841 122.954 132.154 123.694 132.009 124.308C131.863 124.922 131.313 125.177 130.781 124.878Z" fill="#D9EFFB"></path>
    <path d="M197.121 144.964L191.38 141.742C190.848 141.442 190.534 140.703 190.68 140.09C190.826 139.475 191.376 139.22 191.908 139.519L197.649 142.741C198.181 143.04 198.495 143.78 198.349 144.393C198.203 145.007 197.653 145.263 197.121 144.964Z" fill="#D9EFFB"></path>
    <path d="M201.247 126.17L190.29 120.02C189.758 119.721 189.445 118.982 189.59 118.368C189.736 117.754 190.286 117.499 190.818 117.798L201.775 123.947C202.307 124.246 202.62 124.986 202.475 125.6C202.33 126.213 201.779 126.469 201.247 126.17Z" fill="#D9EFFB"></path>
    <path d="M191.666 131.346L188.079 129.333C187.548 129.035 187.234 128.295 187.379 127.681C187.525 127.067 188.075 126.812 188.608 127.111L192.194 129.124C192.726 129.423 193.039 130.162 192.894 130.776C192.749 131.389 192.199 131.645 191.666 131.346Z" fill="#D9EFFB"></path>
    <path d="M188.17 139.939L185.868 138.647C185.336 138.348 185.023 137.608 185.169 136.994C185.313 136.381 185.863 136.126 186.396 136.424L188.698 137.716C189.23 138.015 189.544 138.755 189.398 139.368C189.252 139.982 188.702 140.238 188.17 139.939Z" fill="#D9EFFB"></path>
    <path d="M205.002 138.833L195.425 133.457C194.892 133.158 194.577 132.418 194.723 131.804C194.869 131.191 195.419 130.935 195.952 131.234L205.53 136.611C206.062 136.909 206.375 137.649 206.23 138.262C206.084 138.876 205.534 139.132 205.002 138.833Z" fill="#D9EFFB"></path>
    <path d="M205.877 134.046L189.185 124.676C188.653 124.378 188.339 123.638 188.485 123.024C188.63 122.41 189.18 122.156 189.713 122.455L206.405 131.823C206.938 132.122 207.251 132.862 207.106 133.476C206.96 134.089 206.41 134.345 205.877 134.046Z" fill="#D9EFFB"></path>
    <path d="M196.552 139.366L186.974 133.99C186.441 133.691 186.129 132.951 186.274 132.338C186.419 131.724 186.969 131.469 187.502 131.768L197.08 137.143C197.612 137.442 197.926 138.181 197.779 138.796C197.634 139.409 197.085 139.665 196.552 139.366Z" fill="#D9EFFB"></path>
    <path d="M196.276 149.766L184.763 143.304C184.23 143.005 183.917 142.264 184.063 141.652C184.209 141.037 184.758 140.783 185.291 141.082L196.804 147.543C197.336 147.842 197.651 148.581 197.504 149.196C197.359 149.809 196.809 150.065 196.276 149.766Z" fill="#D9EFFB"></path>
    <path d="M222.043 82.7212L231.09 79.2225L229.055 66.2853L224.663 70.0671L222.043 82.7212Z" fill="#5F92D3"></path>
    <path d="M161.5 22.4014L183.354 13.9122L179.321 22.4014L167.651 25.0278L161.5 22.4014Z" fill="#5F92D3"></path>
    <path d="M230.036 57.6049C228.881 56.956 227.684 56.578 226.494 56.4214C227.701 48.6019 224.226 40.3491 217.557 36.6032C215.551 35.4764 213.37 34.824 211.308 34.6946C213.921 25.2167 209.885 14.446 201.658 9.82557C197.362 7.41261 192.715 7.12733 188.623 8.60472L188.626 8.59682L188.425 8.67586C188.32 8.71538 188.215 8.75563 188.11 8.79803L181.264 11.4165L183.994 13.7001C180.291 14.8347 177.089 17.7457 175.398 22.0485C172.279 29.9837 175.477 39.6326 182.542 43.5999L224.535 78.0116C229.839 80.9908 233.06 79.7469 235.4 73.7878C237.742 67.8294 235.341 60.5841 230.036 57.6049Z" fill="#5F92D3"></path>
    <path d="M177.309 18.5552L200.863 9.40633C196.793 7.38499 192.463 7.21827 188.621 8.60511L188.624 8.59722L188.424 8.67625C188.318 8.71577 188.213 8.75603 188.109 8.79842L181.262 11.4169L183.993 13.7005C181.404 14.4938 179.063 16.1573 177.309 18.5552Z" fill="#5F92D3"></path>
    <path d="M210.1 52.8828L225.654 46.8525C224.217 42.5296 221.382 38.7528 217.466 36.5533C216.947 36.2615 216.423 36.0071 215.896 35.7851L194.469 44.1047L210.1 52.8828Z" fill="#5F92D3"></path>
    <path d="M186.039 12.3711L192.715 16.1206L204.299 11.6367C203.474 10.9613 202.596 10.3526 201.658 9.82591C200.178 8.99452 198.656 8.42183 197.129 8.08051L186.039 12.3711Z" fill="#D9EFFB"></path>
    <path d="M224.63 44.336L213.434 48.669L216.737 53.1802L226.344 49.4666C225.999 47.6788 225.419 45.9499 224.63 44.336Z" fill="#D9EFFB"></path>
    <path d="M222.549 60.4656C221.394 59.8175 220.198 59.4388 219.008 59.2829C220.213 51.4634 216.65 43.1588 209.98 39.4136C207.974 38.2869 205.882 37.6848 203.821 37.5554C206.434 28.0782 202.398 17.3075 194.172 12.6871C185.326 7.71816 174.988 11.7458 171.083 21.6829C170.951 22.0199 170.829 22.3605 170.715 22.7011C163.965 19.783 156.503 23.0719 153.573 30.5263C150.455 38.4615 153.654 48.1105 160.718 52.0777L214.069 82.0436C219.373 85.0228 225.572 82.6084 227.914 76.6493C230.255 70.6909 227.854 63.4455 222.549 60.4656Z" fill="#D9EFFB"></path>
    <path d="M223.651 59.8671C222.497 59.219 221.3 58.8403 220.11 58.6844C221.316 50.8649 217.752 42.5603 211.082 38.8144C209.077 37.6884 206.985 37.0862 204.924 36.9569C207.536 27.4797 203.501 16.7083 195.275 12.0878C189.99 9.12014 184.175 9.36446 179.516 12.1583C183.971 9.94723 189.298 9.94865 194.173 12.6871C202.399 17.3075 206.436 28.0782 203.823 37.5555C205.884 37.6848 207.976 38.287 209.982 39.4137C216.651 43.1596 220.215 51.4634 219.009 59.2829C220.199 59.4389 221.396 59.8175 222.55 60.4657C227.855 63.4456 230.257 70.691 227.915 76.6494C227.01 78.951 225.527 80.7165 223.746 81.854C226.014 80.7991 227.931 78.8109 229.016 76.0508C231.357 70.0924 228.956 62.8471 223.651 59.8671Z" fill="white"></path>
    <path d="M170.717 22.7021C170.816 22.4031 170.924 22.1071 171.038 21.8125C167.38 20.496 163.582 20.9473 160.445 22.8623C163.582 21.3526 167.241 21.1995 170.717 22.7021Z" fill="white"></path>
    <path d="M164.685 24.2546C163.694 24.2546 162.743 24.4379 161.871 24.8072C159.753 25.7061 157.921 27.79 156.846 30.5263C154.106 37.4979 157.035 46.3335 163.242 49.8193L216.593 79.7851C218.271 80.7257 220.006 80.9636 221.354 80.4398C222.703 79.9138 223.901 78.532 224.641 76.6493C226.618 71.6179 224.504 65.2412 220.025 62.7248C219.204 62.2635 218.35 61.9732 217.487 61.8596L215.322 61.5751L215.6 59.77C216.713 52.5592 213.287 44.9481 207.456 41.6728C205.85 40.7703 204.199 40.2601 202.548 40.1566L199.863 39.9877L200.466 37.7983C202.863 29.1071 198.99 19.0694 191.647 14.9455C188.234 13.0291 184.637 12.6411 181.523 13.854C178.408 15.0684 175.863 17.8478 174.356 21.6828C174.239 21.9803 174.132 22.2807 174.032 22.5811L172.593 26.8774L168.408 25.068C167.155 24.5262 165.89 24.2546 164.685 24.2546Z" fill="#006CAC"></path>
    <path d="M190.828 57.585L192.666 56.8657L191.237 55.7971L190.828 57.585Z" fill="#5F92D3"></path>
    <path d="M189.91 38.2258L191.695 37.5224L191.57 38.251L189.91 38.2258Z" fill="#5F92D3"></path>
    <path d="M196.603 53.0596L198.466 52.3302L195.75 49.6722L196.603 53.0596Z" fill="#5F92D3"></path>
    <path d="M192.182 56.8195L185.063 52.8235C184.701 52.6209 184.483 52.11 184.576 51.6824L186.282 43.8277L194.711 48.5581L193.004 56.4128C192.912 56.8403 192.544 57.0221 192.182 56.8195Z" fill="#5F92D3"></path>
    <path d="M191.678 37.5309L182.057 42.2469C181.648 42.4467 181.785 43.1925 182.28 43.4706L190.134 47.8783L197.987 52.2868C198.483 52.5649 198.878 52.1172 198.636 51.5517L192.931 38.2344C192.685 37.6595 192.093 37.3275 191.678 37.5309Z" fill="#5F92D3"></path>
    <path d="M190.319 57.552L183.199 53.5567C182.837 53.3541 182.62 52.8432 182.713 52.4156L184.418 44.5602L192.847 49.2905L191.141 57.146C191.048 57.5735 190.68 57.7553 190.319 57.552Z" fill="#F67024"></path>
    <path d="M189.811 38.2639L180.19 42.9792C179.782 43.1789 179.918 43.9255 180.413 44.2036L188.266 48.6113L196.12 53.0198C196.616 53.2979 197.011 52.8495 196.769 52.2839L191.063 38.9667C190.817 38.3918 190.227 38.0598 189.811 38.2639Z" fill="#F67024"></path>
    <path d="M9.71353 214.154L38.1786 198.256C40.4235 197.002 44.3388 197.167 46.9251 198.625L105.3 231.549C107.886 233.007 108.162 235.206 105.918 236.46L77.4525 252.359C75.2077 253.613 71.2916 253.447 68.706 251.988L10.3315 219.065C7.74515 217.607 7.46869 215.408 9.71353 214.154Z" fill="#B8D8ED"></path>
    <path d="M78.588 247.103L107.737 230.822C109.013 230.11 109.655 229.16 109.687 228.159H109.688L109.713 223.281L108.776 224.851C108.328 224.341 107.719 223.854 106.947 223.42L48.2483 190.313C44.9228 188.438 39.8862 188.225 36.999 189.837L7.85019 206.118C7.54122 206.291 7.27143 206.478 7.03638 206.676L5.91877 205.284L5.89511 209.87L5.89585 209.868C5.85446 211.131 6.78434 212.474 8.64037 213.521L67.3387 246.627C70.6641 248.503 75.7008 248.716 78.588 247.103Z" fill="#006CAC"></path>
    <path d="M7.87062 202.493L37.0195 186.211C39.9066 184.599 44.9433 184.812 48.2695 186.688L106.968 219.794C110.293 221.669 110.648 224.498 107.762 226.11L78.6128 242.391C75.7249 244.003 70.689 243.791 67.3635 241.915L8.66522 208.809C5.339 206.934 4.98346 204.106 7.87062 202.493Z" fill="#D9EFFB"></path>
    <path d="M107.762 226.11L78.6132 242.391C75.7253 244.004 70.6894 243.79 67.3639 241.915L8.66558 208.808C7.05421 207.901 6.14727 206.769 5.961 205.66C5.7289 207.016 6.64545 208.505 8.66558 209.645L67.3639 242.75C70.6894 244.626 75.7253 244.839 78.6132 243.226L107.762 226.945C109.251 226.114 109.871 224.959 109.672 223.779C109.522 224.655 108.895 225.476 107.762 226.11Z" fill="white"></path>
    <path d="M9.71353 203.149L38.1786 187.25C40.4235 185.996 44.3388 186.162 46.9251 187.62L105.3 220.543C107.886 222.002 108.162 224.2 105.918 225.455L77.4525 241.353C75.2077 242.607 71.2916 242.441 68.706 240.983L10.3315 208.06C7.74515 206.601 7.46869 204.403 9.71353 203.149Z" fill="#F67024"></path>
    <path d="M55.5708 208.933L45.0334 203.018C44.6423 202.799 44.6919 202.416 45.1428 202.162C45.5944 201.909 46.2759 201.882 46.6676 202.102L57.2051 208.016C57.5954 208.235 57.5459 208.618 57.095 208.871C56.6441 209.124 55.9619 209.152 55.5708 208.933Z" fill="#B8D8ED"></path>
    <path d="M45.5854 206.929L41.826 204.819C41.4357 204.6 41.4845 204.217 41.9354 203.964C42.387 203.711 43.0693 203.683 43.4603 203.903L47.2189 206.012C47.6092 206.232 47.5604 206.615 47.1088 206.867C46.6579 207.121 45.9757 207.148 45.5854 206.929Z" fill="#B8D8ED"></path>
    <path d="M51.8939 210.47L48.1345 208.36C47.7443 208.141 47.7931 207.758 48.2447 207.505C48.6956 207.252 49.3778 207.223 49.7688 207.443L53.5275 209.553C53.9177 209.772 53.869 210.156 53.4181 210.408C52.9664 210.662 52.2842 210.689 51.8939 210.47Z" fill="#006CAC"></path>
    <path d="M64.6456 217.629L54.4392 211.9C54.049 211.682 54.0977 211.298 54.5494 211.046C55.0003 210.792 55.6825 210.764 56.0735 210.984L66.2799 216.713C66.6701 216.931 66.6214 217.314 66.1697 217.568C65.7188 217.821 65.0366 217.849 64.6456 217.629Z" fill="#B8D8ED"></path>
    <path d="M51.781 214.011L38.615 206.621C38.2247 206.402 38.2735 206.019 38.7252 205.765C39.176 205.512 39.8583 205.485 40.2493 205.703L53.4152 213.093C53.8055 213.312 53.7567 213.695 53.3051 213.949C52.8542 214.202 52.172 214.229 51.781 214.011Z" fill="#B8D8ED"></path>
    <path d="M67.6138 226.502L35.4041 208.422C35.0138 208.203 35.0626 207.82 35.5142 207.567C35.9651 207.313 36.6481 207.286 37.0384 207.505L69.2473 225.584C69.6383 225.804 69.5888 226.187 69.1379 226.44C68.687 226.693 68.0041 226.721 67.6138 226.502Z" fill="#006CAC"></path>
    <path d="M77.0113 220.967L58.4783 210.565C58.088 210.346 58.1368 209.963 58.5884 209.709C59.0393 209.456 59.7216 209.429 60.1126 209.648L78.6456 220.05C79.0366 220.269 78.9871 220.653 78.5362 220.906C78.0853 221.159 77.4023 221.187 77.0113 220.967Z" fill="#B8D8ED"></path>
    <path d="M54.3124 237.952L51.6019 236.432C51.3321 236.282 51.1133 235.875 51.1133 235.526C51.1133 235.176 51.3321 235.015 51.6019 235.166L54.3124 236.686C54.5822 236.838 54.8009 237.244 54.8009 237.594C54.8009 237.943 54.5822 238.104 54.3124 237.952Z" fill="#D9EFFB"></path>
    <path d="M58.5773 240.353L55.8668 238.834C55.5977 238.682 55.3789 238.275 55.3789 237.926C55.3789 237.577 55.5977 237.416 55.8668 237.568L58.5773 239.087C58.8471 239.238 59.0659 239.645 59.0659 239.994C59.0659 240.343 58.8471 240.504 58.5773 240.353Z" fill="#D9EFFB"></path>
  </g>
  <defs>
    <clipPath id="clip0_12004_25646">
      <rect width="236.716" height="252.758" fill="white" transform="translate(0 0.886719)"></rect>
    </clipPath>
  </defs>
</svg>
