<?xml version="1.0" encoding="UTF-8"?>
<svg xmlns="http://www.w3.org/2000/svg" width="272" height="260" viewBox="0 0 272 260" fill="none">
  <path d="M258.492 252.547C250.372 257.234 237.209 257.234 229.089 252.547C220.971 247.859 220.97 240.259 229.089 235.572C237.208 230.884 250.372 230.884 258.492 235.572C266.611 240.259 266.611 247.859 258.492 252.547Z" fill="#B8D8ED"></path>
  <path d="M188.661 243.758L121.232 205.309C118.765 203.884 119.074 201.397 121.922 199.754L160.718 177.354C163.566 175.71 167.873 175.532 170.34 176.955L237.769 215.404C240.236 216.828 239.927 219.314 237.078 220.959L198.282 243.359C195.434 245.003 191.127 245.181 188.661 243.758Z" fill="#B8D8ED"></path>
  <path d="M243.781 202.46V45.0429L181.2 28.6629L169.673 22.0079C167.028 20.4804 162.407 20.6712 159.352 22.4362L148.598 28.6454L115.219 28.6263L125.102 180.591C125.027 181.625 125.604 182.623 126.875 183.356L189.327 230.48C191.972 232.007 196.593 231.815 199.648 230.051L241.269 206.022C243.03 205.005 243.88 203.688 243.781 202.46Z" fill="#4067B1"></path>
  <path d="M164.883 20.9849C162.947 21.0315 160.938 21.5199 159.351 22.4365L148.597 28.6457L115.218 28.6265V186.468C115.142 187.502 115.718 188.5 116.99 189.233L189.326 230.48C190.597 231.214 192.325 231.546 194.116 231.503L194.861 72.6757L164.883 20.9849Z" fill="#D9EFFB"></path>
  <path d="M189.992 230.806C192.275 231.782 195.576 231.728 198.243 230.711V70.798H189.992V230.806Z" fill="#40516C"></path>
  <path d="M189.329 72.6935L116.994 31.4469C114.348 29.9202 114.679 27.2519 117.734 25.4885L159.355 1.45936C162.41 -0.30397 167.03 -0.496468 169.676 1.03104L242.011 42.2777C244.657 43.8052 244.325 46.4735 241.271 48.2369L199.65 72.2668C196.595 74.0302 191.974 74.221 189.329 72.6935Z" fill="#D9EFFB"></path>
  <path d="M241.27 45.3102L199.65 69.3394C196.595 71.1027 191.974 71.2952 189.329 69.7677L116.993 28.5202C116.403 28.1794 115.969 27.7811 115.673 27.3494C114.764 28.8119 115.175 30.3985 116.993 31.4469L189.329 72.6935C191.974 74.221 196.595 74.0302 199.65 72.2668L241.27 48.2369C243.643 46.866 244.365 44.9519 243.33 43.4494C242.916 44.116 242.227 44.7577 241.27 45.3102Z" fill="#FCFEFF"></path>
  <path d="M191.374 55.9773L143.215 28.0606C141.977 27.3456 142.132 26.0973 143.562 25.2715L163.038 14.0273C164.468 13.2023 166.629 13.1123 167.868 13.8273L216.028 41.744C217.265 42.4581 217.109 43.7065 215.681 44.5323L196.204 55.7764C194.775 56.6023 192.613 56.6914 191.374 55.9773Z" fill="#002245"></path>
  <path d="M165.371 29.3149L162.581 27.7041C162.409 27.6049 162.431 27.4324 162.628 27.3182L165.323 25.7624C165.521 25.6482 165.82 25.6349 165.992 25.7349L168.782 27.3457C168.953 27.4441 168.932 27.6174 168.734 27.7315L166.039 29.2874C165.842 29.4016 165.542 29.414 165.371 29.3149Z" fill="#D9EFFB"></path>
  <path d="M174.695 34.6747L171.904 33.0639C171.733 32.9656 171.755 32.7914 171.953 32.6781L174.647 31.1214C174.845 31.0081 175.144 30.9956 175.315 31.0939L178.106 32.7056C178.278 32.8047 178.256 32.9773 178.058 33.0914L175.363 34.6472C175.165 34.7614 174.867 34.7739 174.695 34.6747Z" fill="#D9EFFB"></path>
  <path d="M184.02 40.0361L181.229 38.4252C181.058 38.3261 181.079 38.1536 181.276 38.0394L183.972 36.4836C184.17 36.3694 184.468 36.3569 184.641 36.4561L187.431 38.0669C187.601 38.1652 187.581 38.3386 187.383 38.4527L184.688 40.0086C184.49 40.1227 184.19 40.1352 184.02 40.0361Z" fill="#D9EFFB"></path>
  <path d="M193.344 45.3975L190.553 43.7858C190.381 43.6875 190.404 43.5141 190.601 43.4L193.296 41.8441C193.494 41.73 193.793 41.7175 193.964 41.8166L196.755 43.4275C196.926 43.5266 196.904 43.6991 196.706 43.8133L194.012 45.3691C193.814 45.4833 193.515 45.495 193.344 45.3975Z" fill="#D9EFFB"></path>
  <path d="M143.215 28.0605L143.272 28.093C143.365 28.0264 143.453 27.9563 143.562 27.8938L163.038 16.6488C164.468 15.8238 166.629 15.7347 167.868 16.4489L215.97 44.333C217.111 43.5155 217.171 42.4047 216.028 41.7439L167.868 13.8272C166.629 13.1122 164.468 13.2022 163.038 14.0272L143.562 25.2713C142.132 26.0972 141.977 27.3455 143.215 28.0605Z" fill="#40516C"></path>
  <path d="M181.334 103.882L127.885 73.0234C126.343 72.1334 125.094 69.7467 125.094 67.6917V57.9001C125.094 55.8451 126.343 54.9017 127.885 55.7909L181.334 86.6501C182.875 87.5401 184.124 89.9267 184.124 91.9809V101.773C184.124 103.828 182.875 104.772 181.334 103.882Z" fill="#40516C"></path>
  <path d="M177.292 95.2252L174.779 93.7752C174.444 93.581 174.172 93.0611 174.172 92.6136V89.9302C174.172 89.4827 174.444 89.2769 174.779 89.4702L177.292 90.9202C177.627 91.1144 177.9 91.6352 177.9 92.0827V94.766C177.9 95.2135 177.627 95.4194 177.292 95.2252Z" fill="#002245"></path>
  <path d="M168.893 90.3771L166.382 88.9271C166.046 88.7329 165.773 88.2129 165.773 87.7646V85.0821C165.773 84.6337 166.046 84.4279 166.382 84.6221L168.893 86.0721C169.229 86.2662 169.502 86.7862 169.502 87.2337V89.9171C169.502 90.3646 169.229 90.5704 168.893 90.3771Z" fill="#002245"></path>
  <path d="M181.334 139.262L127.885 108.403C126.343 107.513 125.094 105.127 125.094 103.072V93.2795C125.094 91.2253 126.343 90.2812 127.885 91.1712L181.334 122.029C182.875 122.919 184.124 125.306 184.124 127.361V137.153C184.124 139.208 182.875 140.151 181.334 139.262Z" fill="#40516C"></path>
  <path d="M177.292 130.605L174.779 129.155C174.444 128.961 174.172 128.441 174.172 127.993V125.31C174.172 124.862 174.444 124.656 174.779 124.85L177.292 126.3C177.627 126.495 177.9 127.015 177.9 127.462V130.145C177.9 130.594 177.627 130.8 177.292 130.605Z" fill="#002245"></path>
  <path d="M168.893 125.757L166.382 124.307C166.046 124.112 165.773 123.592 165.773 123.144V120.462C165.773 120.014 166.046 119.808 166.382 120.002L168.893 121.452C169.229 121.645 169.502 122.166 169.502 122.614V125.297C169.502 125.744 169.229 125.95 168.893 125.757Z" fill="#D9EFFB"></path>
  <path d="M181.334 174.641L127.885 143.782C126.343 142.893 125.094 140.505 125.094 138.451V128.659C125.094 126.604 126.343 125.66 127.885 126.549L181.334 157.409C182.875 158.299 184.124 160.685 184.124 162.739V172.532C184.124 174.587 182.875 175.531 181.334 174.641Z" fill="#40516C"></path>
  <path d="M177.292 165.984L174.779 164.534C174.444 164.341 174.172 163.82 174.172 163.373V160.689C174.172 160.242 174.444 160.036 174.779 160.229L177.292 161.679C177.627 161.874 177.9 162.394 177.9 162.842V165.525C177.9 165.973 177.627 166.179 177.292 165.984Z" fill="#D9EFFB"></path>
  <path d="M168.893 161.136L166.382 159.686C166.046 159.491 165.773 158.971 165.773 158.524V155.841C165.773 155.392 166.046 155.186 166.382 155.381L168.893 156.831C169.229 157.025 169.502 157.545 169.502 157.994V160.676C169.502 161.124 169.229 161.331 168.893 161.136Z" fill="#002245"></path>
  <path d="M181.334 210.021L127.885 179.162C126.343 178.273 125.094 175.886 125.094 173.831V164.039C125.094 161.985 126.343 161.041 127.885 161.93L181.334 192.788C182.875 193.679 184.124 196.065 184.124 198.12V207.912C184.124 209.966 182.875 210.911 181.334 210.021Z" fill="#40516C"></path>
  <path d="M177.292 201.365L174.779 199.915C174.444 199.721 174.172 199.201 174.172 198.754V196.07C174.172 195.623 174.444 195.417 174.779 195.61L177.292 197.06C177.627 197.255 177.9 197.775 177.9 198.223V200.906C177.9 201.354 177.627 201.56 177.292 201.365Z" fill="#D9EFFB"></path>
  <path d="M168.893 196.516L166.382 195.066C166.046 194.872 165.773 194.351 165.773 193.903V191.221C165.773 190.773 166.046 190.567 166.382 190.761L168.893 192.211C169.229 192.406 169.502 192.926 169.502 193.373V196.056C169.502 196.503 169.229 196.71 168.893 196.516Z" fill="#D9EFFB"></path>
  <path d="M207.774 103.882L235.157 88.2051C236.697 87.3151 237.946 84.9284 237.946 82.8734V73.0817C237.946 71.0267 236.697 70.0826 235.157 70.9726L207.774 86.6501C206.234 87.5401 204.984 89.9267 204.984 91.9809V101.773C204.984 103.828 206.234 104.772 207.774 103.882Z" fill="#002245"></path>
  <path d="M207.774 139.262L235.157 123.584C236.697 122.694 237.946 120.308 237.946 118.254V108.461C237.946 106.407 236.697 105.462 235.157 106.353L207.774 122.029C206.234 122.919 204.984 125.306 204.984 127.361V137.153C204.984 139.208 206.234 140.151 207.774 139.262Z" fill="#002245"></path>
  <path d="M207.774 174.641L235.157 158.964C236.697 158.074 237.946 155.687 237.946 153.633V143.84C237.946 141.785 236.697 140.842 235.157 141.731L207.774 157.409C206.234 158.299 204.984 160.685 204.984 162.739V172.532C204.984 174.587 206.234 175.531 207.774 174.641Z" fill="#002245"></path>
  <path d="M207.774 210.021L235.157 194.344C236.697 193.454 237.946 191.067 237.946 189.012V179.221C237.946 177.166 236.697 176.222 235.157 177.111L207.774 192.788C206.234 193.679 204.984 196.065 204.984 198.12V207.912C204.984 209.966 206.234 210.911 207.774 210.021Z" fill="#002245"></path>
  <path d="M138.526 201.513L128.638 195.875L116.99 189.233C115.793 188.542 115.212 187.618 115.211 186.649C115.211 186.593 115.213 186.537 115.217 186.48C115.217 186.476 115.217 186.472 115.218 186.468V46.2816C124.996 51.4232 134.799 57.4174 144.543 64.2499L153.892 70.8066L127.885 55.7907C127.492 55.5632 127.117 55.4557 126.778 55.4557C125.787 55.4557 125.094 56.3699 125.094 57.8999V67.6915C125.094 69.7466 126.343 72.1332 127.885 73.0232L171.784 98.3682V116.516L127.885 91.1707C127.491 90.9432 127.117 90.8357 126.777 90.8357C125.787 90.8357 125.094 91.7499 125.094 93.279V103.072C125.094 105.127 126.343 107.512 127.885 108.402L171.784 133.747V151.896L127.885 126.55C127.492 126.323 127.117 126.215 126.778 126.215C125.787 126.215 125.094 127.129 125.094 128.659V138.452C125.094 140.506 126.343 142.893 127.885 143.782L170.521 168.398C169.558 172.933 167.873 178.247 164.92 183.312L127.885 161.93C127.492 161.703 127.117 161.595 126.778 161.595C125.787 161.595 125.094 162.509 125.094 164.039V173.831C125.094 175.886 126.343 178.273 127.885 179.162L154.798 194.701C150.533 197.829 145.197 200.272 138.526 201.513Z" fill="#7491C1"></path>
  <path d="M171.784 98.3687L127.885 73.0236C126.343 72.1336 125.094 69.747 125.094 67.692V57.9003C125.094 56.3703 125.786 55.4561 126.777 55.4561C127.116 55.4561 127.491 55.5636 127.885 55.7911L153.891 70.807L171.784 83.3528V98.3687ZM166.14 84.5486C165.923 84.5486 165.772 84.7478 165.772 85.082V87.7645C165.772 88.2128 166.045 88.7328 166.38 88.927L168.892 90.377C168.978 90.4261 169.06 90.4495 169.134 90.4495C169.35 90.4495 169.5 90.2503 169.5 89.917V87.2336C169.5 86.7861 169.228 86.2661 168.892 86.072L166.38 84.622C166.295 84.572 166.213 84.5486 166.14 84.5486Z" fill="#006CAC"></path>
  <path d="M169.135 90.4497C169.061 90.4497 168.979 90.4264 168.893 90.3772L166.382 88.9272C166.046 88.733 165.773 88.213 165.773 87.7647V85.0822C165.773 84.748 165.924 84.5489 166.141 84.5489C166.214 84.5489 166.296 84.5722 166.382 84.6222L168.893 86.0722C169.229 86.2664 169.502 86.7864 169.502 87.2339V89.9172C169.502 90.2505 169.351 90.4497 169.135 90.4497Z" fill="#002245"></path>
  <path d="M171.784 133.748L127.885 108.403C126.343 107.513 125.094 105.127 125.094 103.072V93.2797C125.094 91.7506 125.786 90.8364 126.776 90.8364C127.116 90.8364 127.49 90.9439 127.885 91.1714L171.784 116.516V133.748ZM166.14 119.929C165.923 119.929 165.772 120.129 165.772 120.462V123.145C165.772 123.592 166.045 124.112 166.38 124.307L168.892 125.757C168.978 125.806 169.06 125.83 169.134 125.83C169.35 125.83 169.5 125.631 169.5 125.297V122.615C169.5 122.166 169.228 121.646 168.892 121.452L166.38 120.002C166.295 119.952 166.213 119.929 166.14 119.929Z" fill="#006CAC"></path>
  <path d="M169.135 125.83C169.061 125.83 168.979 125.806 168.893 125.757L166.382 124.307C166.046 124.112 165.773 123.592 165.773 123.145V120.462C165.773 120.129 165.924 119.929 166.141 119.929C166.214 119.929 166.296 119.952 166.382 120.002L168.893 121.452C169.229 121.645 169.502 122.166 169.502 122.615V125.297C169.502 125.63 169.351 125.83 169.135 125.83Z" fill="#7491C1"></path>
  <path d="M170.52 168.398L127.885 143.782C126.343 142.893 125.094 140.505 125.094 138.451V128.659C125.094 127.129 125.786 126.215 126.777 126.215C127.116 126.215 127.491 126.323 127.885 126.55L171.784 151.895V156.745C171.784 156.745 171.936 161.726 170.52 168.398ZM166.139 155.308C165.923 155.308 165.772 155.507 165.772 155.841V158.524C165.772 158.971 166.045 159.491 166.38 159.685L168.892 161.135C168.978 161.185 169.06 161.209 169.134 161.209C169.35 161.209 169.5 161.01 169.5 160.675V157.994C169.5 157.545 169.228 157.025 168.892 156.831L166.38 155.381C166.295 155.331 166.213 155.308 166.139 155.308Z" fill="#006CAC"></path>
  <path d="M169.135 161.209C169.061 161.209 168.979 161.186 168.893 161.136L166.382 159.686C166.046 159.491 165.773 158.971 165.773 158.524V155.841C165.773 155.507 165.924 155.308 166.14 155.308C166.214 155.308 166.296 155.331 166.382 155.381L168.893 156.831C169.229 157.025 169.502 157.545 169.502 157.994V160.676C169.502 161.01 169.351 161.209 169.135 161.209Z" fill="#002245"></path>
  <path d="M154.798 194.7L127.885 179.162C126.343 178.273 125.094 175.885 125.094 173.83V164.039C125.094 162.509 125.786 161.594 126.777 161.594C127.116 161.594 127.491 161.703 127.885 161.929L164.92 183.312C162.497 187.468 159.223 191.454 154.798 194.7Z" fill="#006CAC"></path>
  <path d="M155.03 163.417V90.0247L127.789 70.9222C114.039 61.2805 100.169 53.2731 86.4188 47.0372L59.178 34.6847L48.1797 41.1247L60.3505 49.9506V107.403C60.3505 107.403 58.8563 154.237 108.277 208.282C114.634 208.671 120.143 208.201 124.926 207.096L124.107 209.756L133.784 204.056C134.619 203.607 135.421 203.135 136.191 202.641L136.329 202.56L136.321 202.558C155.841 189.935 155.03 163.417 155.03 163.417Z" fill="#002245"></path>
  <path d="M107.049 57.671C100.162 53.6968 93.2763 50.1468 86.4188 47.0368L59.178 34.6843L48.1797 41.1243L60.3505 49.9502V84.6318L107.049 57.671Z" fill="#1E4063"></path>
  <path d="M97.5613 52.4736L74.6055 65.7269L93.5146 76.6436L116.478 63.3861C110.175 59.3961 103.864 55.7527 97.5613 52.4736Z" fill="#1E2C4F"></path>
  <path d="M144.032 169.857V96.4648L116.791 77.3623C103.041 67.7189 89.1715 59.7123 75.4215 53.4773L48.1806 41.1239V114.517C48.1806 114.517 46.6865 161.351 96.1065 215.396C145.526 218.417 144.032 169.857 144.032 169.857Z" fill="#40516C"></path>
  <path d="M125.047 198.781C119.101 204.55 110.648 207.429 99.8823 207.316C55.9356 157.811 56.3823 115.176 56.3914 114.779L56.3956 53.8681L72.0314 60.959C85.2956 66.974 98.7689 74.7556 112.076 84.0873L135.821 100.738V169.859L135.824 170.111C135.83 170.289 136.061 188.096 125.047 198.781Z" fill="#006CAC"></path>
  <path d="M100.316 134.744C100.316 136.117 101.281 137.786 102.469 138.473C103.658 139.159 104.622 138.603 104.622 137.23C104.622 135.857 103.658 134.188 102.469 133.501C101.281 132.815 100.316 133.371 100.316 134.744Z" fill="white"></path>
  <path d="M93.3906 130.745C93.3906 132.118 94.354 133.788 95.5431 134.473C96.7315 135.16 97.6956 134.603 97.6956 133.231C97.6956 131.858 96.7315 130.188 95.5431 129.502C94.354 128.816 93.3906 129.373 93.3906 130.745Z" fill="white"></path>
  <path d="M86.4609 126.747C86.4609 128.119 87.4243 129.789 88.6134 130.474C89.8026 131.161 90.766 130.604 90.766 129.232C90.766 127.859 89.8026 126.19 88.6134 125.504C87.4243 124.817 86.4609 125.374 86.4609 126.747Z" fill="white"></path>
  <path d="M22.9562 210.223L6.13116 200.434C4.71032 199.614 4.88866 198.182 6.52782 197.235L22.5653 187.892C24.2053 186.945 26.6853 186.842 28.1053 187.662L44.9303 197.451C46.3503 198.272 46.172 199.703 44.5337 200.649L28.4953 209.994C26.8562 210.94 24.3762 211.044 22.9562 210.223Z" fill="#B8D8ED"></path>
  <path d="M51.0542 179.107V174.88L28.605 174.867L28.76 174.862C26.9792 173.834 23.8692 173.963 21.8125 175.15L22.4775 174.872L0.00831367 174.86V179.372C-0.0425197 180.068 0.345819 180.74 1.20165 181.233L22.3025 193.51C24.0833 194.539 27.1933 194.41 29.25 193.222L49.3625 181.504C50.5475 180.819 51.1208 179.933 51.0542 179.107Z" fill="#002245"></path>
  <path d="M25.5367 174.174C24.2333 174.205 22.8808 174.533 21.8125 175.15L22.4775 174.872L0.00831367 174.86V179.372C-0.0425197 180.068 0.345819 180.74 1.20165 181.233L22.3025 193.51C23.1575 194.004 24.3216 194.229 25.5266 194.2L25.5367 174.174Z" fill="#4067B1"></path>
  <path d="M2.55165 174.862L0.00831367 174.86V179.373C-0.0425197 180.069 0.345819 180.74 1.20165 181.234L2.55165 182.014V174.862Z" fill="#B8D8ED"></path>
  <path d="M22.75 193.729C24.2867 194.388 26.5083 194.351 28.3042 193.666V187.76H22.75V193.729Z" fill="#2E4B8D"></path>
  <path d="M22.3034 189.037L1.20257 176.759C-0.578261 175.732 -0.355762 173.935 1.7009 172.748L21.8134 161.03C23.8701 159.842 26.9801 159.714 28.7609 160.742L49.8617 173.019C51.6426 174.047 51.4192 175.844 49.3634 177.03L29.2509 188.749C27.1943 189.936 24.0842 190.065 22.3034 189.037Z" fill="#D9EFFB"></path>
  <path d="M21.9758 171.824C20.8758 172.452 19.0958 172.444 18.0016 171.805C16.9066 171.165 16.9116 170.138 18.0125 169.51C19.1133 168.881 20.8924 168.89 21.9874 169.529C23.0816 170.169 23.0775 171.195 21.9758 171.824Z" fill="#4067B1"></path>
  <path d="M28.3512 175.548C27.2504 176.176 25.4712 176.168 24.3762 175.529C23.282 174.89 23.2862 173.862 24.3879 173.234C25.4879 172.605 27.2679 172.615 28.362 173.253C29.457 173.893 29.452 174.92 28.3512 175.548Z" fill="#4067B1"></path>
  <path d="M34.7303 179.271C33.6295 179.899 31.8495 179.891 30.7545 179.251C29.6603 178.613 29.6662 177.584 30.7662 176.956C31.867 176.329 33.647 176.337 34.7412 176.976C35.8353 177.615 35.8303 178.643 34.7303 179.271Z" fill="#4067B1"></path>
  <path d="M253.222 124.716C253.222 124.716 252.781 133.815 252.089 139.931C251.396 146.046 236.668 135.234 236.668 135.234V128.271L253.222 124.716Z" fill="#002245"></path>
  <path d="M245.378 237.932C245.157 238.485 241.341 243.132 237.524 244.292C235.866 244.798 234.75 244.864 234.019 244.776C233.286 244.69 232.832 243.933 233.08 243.237C233.736 241.389 235.618 237.538 240.401 235.167C246.871 231.959 245.378 237.932 245.378 237.932Z" fill="#002245"></path>
  <path d="M246.651 239.717C246.651 239.717 245.212 243.09 244.77 245.911C244.5 247.631 245.444 249.867 246.221 251.348C246.704 252.268 247.927 252.474 248.696 251.776C249.943 250.644 251.531 248.678 251.794 245.855C252.236 241.099 251.794 240.269 251.794 240.269L246.651 239.717Z" fill="#002245"></path>
  <path d="M255.842 182.23C255.842 182.23 256.34 188.23 255.842 194.867C255.344 201.504 253.562 232.54 253.231 240.006C253.231 240.006 253.397 242.267 249.02 241.769C244.644 241.271 244.997 238.761 244.997 238.761C244.997 238.761 238.851 238.679 238.658 235.056C238.464 231.435 232.363 191.799 232.363 177.548L255.842 182.23Z" fill="#FF984C"></path>
  <path d="M234.476 151.261L230.932 172.938L227.707 172.882L228.005 153.018L234.476 151.261Z" fill="#FAB6A9"></path>
  <path d="M235.963 132.066C235.963 132.066 231.181 131.942 229.516 138.855C227.851 145.768 226.548 154.423 227.996 155.143C232.344 157.301 235.094 154.775 235.094 154.775L235.963 132.066Z" fill="#002245"></path>
  <path d="M234.529 132.36C235.345 132.02 236.261 131.974 237.111 132.218C241.186 133.388 256.508 137.885 259.032 140.044C261.95 142.537 254.657 156.55 254.762 161.144C254.867 165.739 255.386 171.155 255.791 176.15C256.197 181.144 256.747 183.882 252.662 186.005C248.577 188.129 241.602 188.227 236.38 184.248C231.16 180.27 232.107 177.548 232.324 174.66C232.542 171.772 234.319 159.281 234.165 155.735C234.165 155.735 232.326 154.38 230.962 152.055C229.6 149.731 232.007 145.46 233.007 142.682C234.006 139.905 232.442 136.728 232.752 134.462C232.911 133.295 233.657 132.724 234.529 132.36Z" fill="#002245"></path>
  <path d="M239.429 137.136C239.105 139.661 241.42 142.036 244.599 142.443C247.779 142.851 250.618 141.135 250.941 138.611C251.264 136.087 248.949 133.711 245.77 133.304C242.591 132.896 239.751 134.612 239.429 137.136Z" fill="white"></path>
  <path d="M241.072 137.347C240.841 139.152 242.496 140.849 244.769 141.141C247.041 141.432 249.07 140.206 249.301 138.402C249.532 136.598 247.877 134.9 245.606 134.608C243.333 134.317 241.304 135.544 241.072 137.347Z" fill="#FAB6A9"></path>
  <path d="M243.332 131.425C243.332 131.425 246.098 129.15 246.641 130.302C247.185 131.454 247.632 136.398 247.632 136.398L242.141 137.874L242.974 132.864C242.974 132.864 241.874 131.932 243.332 131.425Z" fill="#FAB6A9"></path>
  <path d="M234.745 126.007C235.013 130.529 238.894 133.977 243.416 133.711C247.938 133.444 251.386 129.561 251.118 125.041C250.852 120.519 246.969 117.07 242.448 117.337C237.927 117.604 234.478 121.486 234.745 126.007Z" fill="#FAB6A9"></path>
  <path d="M247.021 131.735C247.071 131.992 247.116 132.27 247.161 132.552C246.61 135.406 242.34 136.655 242.34 136.655L242.971 132.864C242.971 132.864 242.452 132.426 242.599 131.986C244.286 131.453 246.413 130.981 247.021 131.735Z" fill="#EB8B8A"></path>
  <path d="M234.745 126.007C235.013 130.529 238.894 133.977 243.416 133.711C247.938 133.444 251.386 129.561 251.118 125.041C250.852 120.519 246.969 117.07 242.448 117.337C237.927 117.604 234.478 121.486 234.745 126.007Z" fill="#FAB6A9"></path>
  <path d="M263.141 160.238L262.222 182.184L259.014 182.514L256.926 162.758L263.141 160.238Z" fill="#FAB6A9"></path>
  <path d="M252.596 158.403C253.659 153.718 255.755 143.363 255.755 143.363L256.652 153.661C255.617 156.715 254.729 159.519 254.766 161.143C254.828 163.84 255.033 166.821 255.273 169.833L255.272 169.842C255.272 169.842 251.534 163.09 252.596 158.403Z" fill="#002245"></path>
  <path d="M258.423 139.593C258.423 139.593 260.989 140.572 262.44 148.453C263.892 156.333 264.979 164.227 262.389 165.245C259.801 166.262 257.638 167.027 256.877 164.919C256.116 162.812 255.644 152.655 255.549 149.003C255.453 145.351 255.314 140.315 258.423 139.593Z" fill="#002245"></path>
  <path d="M244.994 238.76C244.994 238.76 244.233 238.75 243.239 238.58L242.035 190.333L244.994 238.76Z" fill="#D67F1C"></path>
  <path d="M249.642 212.701L251.348 210.472L269.301 200.078C269.877 199.744 270.343 198.852 270.341 198.084L270.326 183.385L271.359 182.037L270.389 181.476L270.388 181.477C270.201 181.358 269.954 181.361 269.684 181.518L249.337 193.298C248.762 193.631 248.296 194.524 248.297 195.292L248.314 211.298C248.315 211.731 248.463 212.031 248.695 212.152L249.642 212.701Z" fill="#002245"></path>
  <path d="M262.056 204.273L263.332 203.535L270.334 191.373L270.326 183.385L271.359 182.038L270.389 181.476L270.388 181.478C270.201 181.359 269.954 181.361 269.684 181.519L249.337 193.299C249.034 193.475 248.761 193.807 248.57 194.195L262.056 204.273Z" fill="#002245"></path>
  <path d="M270.899 182.636L271.358 182.038L270.388 181.476L270.387 181.478C270.2 181.359 269.953 181.361 269.683 181.519L269.324 181.726L270.899 182.636Z" fill="#002245"></path>
  <path d="M249.151 193.428C248.699 193.797 248.349 194.496 248.301 195.141L250.289 196.29L251.242 194.635L249.151 193.428Z" fill="#002245"></path>
  <path d="M250.306 193.859L270.651 182.079C271.227 181.746 271.695 182.098 271.696 182.866L271.713 198.873C271.714 199.641 271.248 200.534 270.672 200.867L250.326 212.647C249.751 212.981 249.284 212.628 249.283 211.86L249.266 195.852C249.264 195.085 249.731 194.192 250.306 193.859Z" fill="#002245"></path>
  <path d="M262.196 182C262.196 182 263.043 187.124 262.916 188.764C262.788 190.405 261.91 193.11 261.243 193.054C260.577 192.997 261.221 186.456 260.051 187.107C258.88 187.759 258.757 188.876 258.227 188.482C257.696 188.087 259.152 182.496 258.764 180.072C258.376 177.648 262.196 182 262.196 182Z" fill="#FAB6A9"></path>
  <path d="M227.71 172.882C227.71 172.882 226.862 178.004 226.99 179.645C227.117 181.286 227.995 183.992 228.662 183.934C229.329 183.877 228.684 177.337 229.854 177.988C231.025 178.64 231.148 179.757 231.678 179.362C232.209 178.968 230.753 173.378 231.141 170.953C231.53 168.529 227.71 172.882 227.71 172.882Z" fill="#FAB6A9"></path>
  <path d="M239.781 126.239C235.668 127.699 234.867 126.809 234.827 126.76C234.79 126.512 234.76 126.261 234.744 126.006C234.691 125.098 234.794 124.218 235.019 123.385L245.691 121.945C245.691 121.945 244.006 124.738 239.781 126.239Z" fill="#EB8B8A"></path>
  <path d="M234.453 117.835C235.423 117.004 238.921 112.895 245.189 113.864C249.106 114.471 252.408 117.143 253.14 123.239C253.634 127.346 252.126 131.392 249.349 134.383C249.198 134.313 249.043 134.248 248.904 134.157C247.334 133.124 247.165 132.555 247.165 132.55L246.818 129.439C246.83 128.999 247.159 128.605 247.6 128.578C247.942 128.556 248.355 128.393 248.748 127.878C249.649 126.7 249.233 124.865 247.433 124.796C246.492 124.759 246.128 124.25 245.995 123.773C245.878 123.357 245.441 123.126 245.034 123.274C242.986 124.014 237.939 125.612 234.69 124.692C230.535 123.515 233.483 118.666 234.453 117.835Z" fill="#002245"></path>
  <path d="M239.125 129.944L236.617 129.254C236.617 129.254 237.814 131.139 239.563 131.619C241.311 132.099 241.584 130.619 241.584 130.619L239.125 129.944Z" fill="white"></path>
  <path d="M257.93 188.322L260.067 187.098L259.264 188.41L258.183 188.808L257.93 188.322Z" fill="#002245"></path>
  <path d="M55.1743 224.439C52.9109 225.745 49.2426 225.745 46.9793 224.439C44.7159 223.133 44.7159 221.015 46.9793 219.708C49.2426 218.401 52.9109 218.401 55.1743 219.708C57.4376 221.015 57.4376 223.133 55.1743 224.439ZM71.6534 215.066C62.8543 209.985 48.5868 209.985 39.7868 215.066C30.9876 220.147 30.9876 228.384 39.7876 233.464C48.5876 238.545 62.8551 238.545 71.6543 233.464C80.4543 228.384 80.4543 220.148 71.6534 215.066Z" fill="#B8D8ED"></path>
  <path d="M76.4106 229.383C75.2339 230.552 73.7831 231.654 72.0489 232.656C70.3139 233.656 68.4047 234.495 66.3789 235.174L70.6864 237.661L77.1781 237.995L80.3898 239.848L79.0798 240.605L81.5106 242.009L84.1314 240.496L88.3797 242.947L84.1122 245.412L87.2481 247.222L90.2906 248.978L94.0814 246.79L99.6989 250.033L97.5547 251.272L101.163 253.355L103.308 252.117L105.001 253.095L103.296 256.487L108.755 259.639H128.816L76.4106 229.383Z" fill="#B8D8ED"></path>
  <path d="M55.0975 218.506C52.8342 219.813 49.165 219.813 46.9017 218.506C44.6392 217.2 44.6392 215.081 46.9017 213.775C49.165 212.469 52.8342 212.469 55.0975 213.775C57.36 215.081 57.36 217.2 55.0975 218.506ZM78.2533 222.476V216.385L76.4583 217.398C75.3608 215.905 73.7625 214.505 71.6533 213.288C62.8542 208.206 48.5867 208.206 39.7867 213.287C37.3467 214.697 35.5858 216.349 34.4992 218.109L33.1875 216.385V222.476C33.1833 225.81 35.3833 229.143 39.7875 231.685C48.5875 236.766 62.855 236.766 71.6542 231.685C76.0592 229.143 78.2575 225.81 78.2533 222.476Z" fill="#F67024"></path>
  <path d="M53.8342 227.279L44.1108 222.486L35.47 216.778C35.1017 217.213 34.7783 217.656 34.4992 218.108L33.1875 216.384V222.476C33.1833 225.809 35.3833 229.142 39.7875 231.685C43.7067 233.948 48.7117 235.201 53.8342 235.447V227.279Z" fill="#FF984C"></path>
  <path d="M55.1743 216.559C52.9109 217.864 49.2426 217.864 46.9793 216.559C44.7159 215.252 44.7159 213.134 46.9793 211.827C49.2426 210.52 52.9109 210.52 55.1743 211.827C57.4376 213.134 57.4376 215.252 55.1743 216.559ZM71.6534 207.185C62.8543 202.104 48.5868 202.104 39.7868 207.185C30.9876 212.266 30.9876 220.503 39.7876 225.584C48.5876 230.664 62.8551 230.664 71.6543 225.584C80.4543 220.503 80.4543 212.267 71.6534 207.185Z" fill="#FF984C"></path>
  <path d="M55.1 218.506C52.8366 219.813 49.1674 219.813 46.9041 218.506C44.6416 217.2 44.6416 215.081 46.9041 213.775C49.1674 212.469 52.8366 212.469 55.1 213.775C57.3625 215.081 57.3633 217.2 55.1 218.506ZM59.5983 210.402H47.3683C46.25 210.66 45.1624 210.971 44.1133 211.336V221.7H59.5983V210.402Z" fill="#F67024"></path>
  <path d="M55.1783 216.559C52.9149 217.864 49.2466 217.864 46.9833 216.559C44.72 215.252 44.72 213.134 46.9833 211.827C49.2466 210.52 52.9149 210.52 55.1783 211.827C57.4416 213.134 57.4416 215.252 55.1783 216.559ZM69.7691 208.276C62.0116 203.798 49.4366 203.798 41.6808 208.276C33.9241 212.754 33.9241 220.014 41.6808 224.493C49.4374 228.97 62.0125 228.971 69.7691 224.493C77.525 220.014 77.525 212.754 69.7691 208.276Z" fill="#FF984C"></path>
  <path d="M41.6789 209.958C49.4348 205.48 62.0098 205.48 69.7673 209.959C73.2748 211.984 75.1906 214.578 75.5256 217.226C75.9314 214.018 74.0164 210.729 69.7673 208.276C62.0098 203.798 49.4348 203.798 41.6789 208.276C37.4298 210.729 35.5139 214.017 35.9206 217.225C36.2556 214.577 38.1714 211.984 41.6789 209.958Z" fill="#F67024"></path>
  <path d="M76.4106 227.558C75.2339 228.727 73.7831 229.83 72.0489 230.832C70.3139 231.833 68.4047 232.671 66.3789 233.35L70.6864 235.837L77.1781 236.171L80.3898 238.025L79.0798 238.781L81.5106 240.184L84.1314 238.671L88.3797 241.123L84.1122 243.587L87.2481 245.398L90.2906 247.155L94.0814 244.966L99.6989 248.209L97.5547 249.448L101.163 251.531L103.308 250.292L105.001 251.271L103.296 254.663L108.755 257.815H128.816L76.4106 227.558Z" fill="#FF984C"></path>
  <path d="M76.4106 223.156C75.2339 224.325 73.7831 225.428 72.0489 226.429C70.3139 227.431 68.4047 228.268 66.3789 228.947L70.6864 231.434L77.1781 231.768L80.3898 233.622L79.0798 234.379L81.5106 235.782L84.1314 234.268L88.3797 236.721L84.1122 239.185L87.2481 240.996L90.2906 242.753L94.0814 240.564L99.6989 243.807L97.5547 245.045L101.163 247.128L103.308 245.89L105.001 246.869L103.296 250.261L108.755 253.414H128.816L76.4106 223.156Z" fill="#FF984C"></path>
  <path d="M128.815 257.815V253.413H108.754V257.815H128.815Z" fill="#F67024"></path>
  <path d="M101.164 251.531V247.128L103.309 245.89V250.292L101.164 251.531Z" fill="#F67024"></path>
  <path d="M97.5547 245.045V249.448L101.163 251.531V247.128L97.5547 245.045Z" fill="#FF984C"></path>
  <path d="M94.0799 240.564V244.967L90.2891 247.155V242.753L94.0799 240.564Z" fill="#F67024"></path>
  <path d="M84.1133 239.185V243.588L90.2916 247.155V242.753L84.1133 239.185Z" fill="#FF984C"></path>
  <path d="M103.309 250.292L103.297 254.663L108.756 257.815V253.413L103.309 250.292Z" fill="#FF984C"></path>
  <path d="M81.509 235.781V240.184L79.0781 238.781V234.379L81.509 235.781Z" fill="#FF984C"></path>
  <path d="M70.6875 231.435V235.838L77.1792 236.171V231.768L70.6875 231.435Z" fill="#F67024"></path>
  <path d="M115.126 250.292L76.7578 228.122L78.8895 226.89L119.366 250.279L115.126 250.292Z" fill="#F67024"></path>
  <path d="M78.8895 227.958L117.531 250.286L119.366 250.28L78.8895 226.89L76.7578 228.122L77.6803 228.655L78.8895 227.958Z" fill="#FF984C"></path>
  <path d="M70.6864 235.838V231.435L66.3789 228.947V233.35L70.6864 235.838Z" fill="#F67024"></path>
  <path d="M84.1325 234.268V238.671L81.5117 240.184V235.781L84.1325 234.268Z" fill="#F67024"></path>
  <path d="M69.7668 208.276C65.4076 205.76 59.5276 204.658 53.8359 204.969V206.651C59.5276 206.339 65.4076 207.442 69.7668 209.959C73.2743 211.984 75.1901 214.578 75.5251 217.226C75.9309 214.018 74.0159 210.729 69.7668 208.276Z" fill="#FF984C"></path>
</svg>
