<?xml version="1.0" encoding="UTF-8"?>
<svg xmlns="http://www.w3.org/2000/svg" width="288" height="260" viewBox="0 0 288 260" fill="none">
  <path d="M71.4766 151.673C70.4201 151.673 69.3635 151.44 68.5565 150.974L23.2991 124.846C21.6868 123.915 21.6868 122.406 23.2991 121.474L39.696 112.009C40.5022 111.543 41.5587 111.31 42.6152 111.31C43.6717 111.31 44.7282 111.543 45.5334 112.008L90.7908 138.137C92.4031 139.069 92.4031 140.578 90.7908 141.509L74.3948 150.975C73.5887 151.441 72.5331 151.673 71.4766 151.673Z" fill="#899ABF"></path>
  <path d="M100.757 134.407C99.7004 134.407 98.6439 134.175 97.8377 133.709L52.5803 107.58C50.968 106.649 50.968 105.141 52.5803 104.21L68.9764 94.7433C69.7825 94.2783 70.839 94.0453 71.8955 94.0453C72.952 94.0453 74.0085 94.2783 74.8147 94.7433L120.072 120.873C121.684 121.803 121.684 123.312 120.072 124.243L103.676 133.709C102.87 134.175 101.813 134.407 100.757 134.407Z" fill="#899ABF"></path>
  <path d="M52.0369 93.836C49.1856 95.4822 49.1856 98.162 52.0369 99.8073L100.512 127.795C101.296 128.247 102.568 128.247 103.351 127.795C104.135 127.342 104.135 126.607 103.351 126.155L54.8772 98.1684C53.5905 97.4256 53.5905 96.2178 54.8772 95.4749L59.5737 92.763C59.0519 91.978 58.5777 91.1608 58.1146 90.3272L52.0369 93.836Z" fill="#D9EFFB"></path>
  <path d="M120.694 116.144L72.2195 88.1567C69.3682 86.5105 64.7277 86.5105 61.8764 88.1567L58.1172 90.3275C58.5803 91.1612 59.0545 91.9783 59.5763 92.7634L64.7149 89.7956C66.0025 89.0537 68.0944 89.0537 69.3802 89.7956L117.855 117.783C118.638 118.235 119.91 118.235 120.695 117.783C121.478 117.331 121.478 116.596 120.694 116.144Z" fill="#40516C"></path>
  <path d="M121.276 117.021L121.281 48.8583L70.482 20.5399L63.378 20.0712L56.508 24.521L52.293 28.1904L101.787 106.676L117.946 116.2L121.276 117.021Z" fill="#40516C"></path>
  <path d="M102.488 125.63L117.672 116.863V50.9874L102.02 58.2637L102.488 125.63Z" fill="#81B3E4"></path>
  <path d="M49.9023 28.7183V96.7695L103.23 127.272L103.942 126.987V58.8361L49.9023 28.7183Z" fill="#D9EFFB"></path>
  <path d="M79.895 29.2809L69.2978 23.1913C68.0028 22.5925 66.1108 22.6301 64.9103 23.3225L55.0744 29.0012C54.3132 29.4414 54.0059 30.0449 54.1463 30.6181L80.9276 46.6207L102.438 59.8252L117.674 50.987L79.895 29.2809Z" fill="white"></path>
  <path d="M102.02 57.7665V128.128C102.503 128.116 102.982 128.007 103.351 127.794C103.736 127.571 103.93 127.281 103.937 126.989L103.939 126.987V126.976V126.972V58.8359L102.02 57.7665Z" fill="#40516C"></path>
  <path d="M121.28 49.708V48.8588H121.009L120.926 49.4356L121.28 49.708Z" fill="white"></path>
  <path d="M103.938 59.7197V58.8485L103.676 59.219L103.938 59.7197Z" fill="white"></path>
  <path d="M100.512 59.6436L52.0369 31.6572C49.1856 30.01 49.1856 27.3312 52.0369 25.685L61.8738 20.0062C64.7251 18.3591 69.3656 18.3591 72.2169 20.0062L120.692 47.9918C121.476 48.4457 121.476 49.1794 120.692 49.6316C119.907 50.0846 118.635 50.0846 117.852 49.6316L69.3776 21.6451C68.0918 20.9022 65.9999 20.9022 64.7122 21.6451L54.8772 27.3238C53.5905 28.0667 53.5905 29.2745 54.8772 30.0174L103.351 58.0038C104.135 58.4569 104.135 59.1906 103.351 59.6436C102.568 60.0967 101.296 60.0967 100.512 59.6436Z" fill="#D9EFFB"></path>
  <path d="M87.8807 91.9053L62.6914 77.3627V52.1111L87.8807 66.6536V91.9053Z" fill="white"></path>
  <path d="M120.695 49.6305C119.91 50.0836 118.638 50.0836 117.855 49.6305L69.3802 21.6441C68.0944 20.9012 66.0025 20.9012 64.7149 21.6441L54.8798 27.3228C54.037 27.8098 53.7499 28.4949 54.0113 29.1185C54.1479 28.7902 54.435 28.4774 54.8798 28.2216L64.7149 22.5419C66.0025 21.7991 68.0944 21.7991 69.3802 22.5419L117.855 50.5284C118.638 50.9814 119.91 50.9814 120.695 50.5284C121.288 50.1854 121.43 49.681 121.123 49.26C121.026 49.3948 120.884 49.5214 120.695 49.6305Z" fill="white"></path>
  <path d="M103.352 59.6429C102.568 60.096 101.296 60.096 100.512 59.6429L52.0375 31.6565C50.8095 30.9466 50.1134 30.046 49.9438 29.1188C49.7181 30.3441 50.4142 31.6161 52.0375 32.5534L100.512 60.5408C101.296 60.9929 102.568 60.9929 103.352 60.5408C103.946 60.1978 104.087 59.6934 103.781 59.2715C103.684 59.4073 103.541 59.5329 103.352 59.6429Z" fill="white"></path>
  <path d="M23.8931 111.293C21.0409 112.94 21.0409 115.619 23.8931 117.265L72.3668 145.251C73.1518 145.704 74.422 145.704 75.2071 145.251C75.9903 144.799 75.9903 144.064 75.2071 143.612L26.7315 115.625C25.4457 114.883 25.4457 113.675 26.7315 112.932L31.4289 110.22C30.9071 109.435 30.4339 108.618 29.9707 107.784L23.8931 111.293Z" fill="#F67024"></path>
  <path d="M92.5488 133.601L44.075 105.614C41.2228 103.968 36.5832 103.968 33.731 105.614L29.9727 107.785C30.4358 108.618 30.909 109.435 31.4309 110.22L36.5703 107.254C37.8561 106.511 39.9499 106.511 41.2357 107.254L89.7094 135.24C90.4935 135.692 91.7656 135.692 92.5488 135.24C93.3338 134.788 93.3338 134.053 92.5488 133.601Z" fill="#F67024"></path>
  <path d="M93.1323 134.479L93.1369 66.3173L42.3384 37.9988L35.2344 37.5302L28.3644 41.98L24.1484 45.6494L73.642 124.135L89.8014 133.66L93.1323 134.479Z" fill="#F67024"></path>
  <path d="M74.3427 143.089L89.5264 134.322V68.4464L73.875 75.7227L74.3427 143.089Z" fill="#855027"></path>
  <path d="M21.7539 46.1753V114.227L75.081 144.729L75.7927 144.444V76.2931L21.7539 46.1753Z" fill="#F67024"></path>
  <path d="M51.747 46.7399L41.1489 40.6512C39.8548 40.0505 37.9619 40.089 36.7623 40.7815L26.9254 46.4602C26.1633 46.9004 25.857 47.5039 25.9982 48.0771L52.7787 64.0797L74.2904 77.2842L89.5254 68.446L51.747 46.7399Z" fill="white"></path>
  <path d="M73.875 75.2255V145.587C74.3583 145.575 74.837 145.467 75.2066 145.252C75.5918 145.03 75.7853 144.74 75.7918 144.448L75.7936 144.446V144.436V144.43V76.2949L73.875 75.2255Z" fill="#F67024"></path>
  <path d="M93.1352 67.167V66.3168H92.8638L92.7812 66.8937L93.1352 67.167Z" fill="white"></path>
  <path d="M75.7936 77.1768V76.3055L75.5312 76.676L75.7936 77.1768Z" fill="white"></path>
  <path d="M72.3668 77.1006L23.8931 49.1142C21.0409 47.4671 21.0409 44.7882 23.8931 43.142L33.729 37.4632C36.5812 35.8161 41.2209 35.8161 44.0731 37.4632L92.5468 65.4497C93.3319 65.9028 93.3319 66.6355 92.5468 67.0895C91.7636 67.5416 90.4916 67.5416 89.7075 67.0895L41.2337 39.1021C39.948 38.3593 37.8542 38.3593 36.5684 39.1021L26.7315 44.7809C25.4457 45.5237 25.4457 46.7315 26.7324 47.4744L75.2071 75.4618C75.9903 75.9139 75.9903 76.6476 75.2071 77.1006C74.422 77.5537 73.1518 77.5537 72.3668 77.1006Z" fill="#F67024"></path>
  <path d="M59.7361 109.364L34.5469 94.8217V69.57L59.7361 84.1126V109.364Z" fill="white"></path>
  <path d="M92.5454 67.0904C91.7622 67.5426 90.4902 67.5426 89.706 67.0904L41.2323 39.1031C39.9465 38.3602 37.8528 38.3602 36.567 39.1031L26.7301 44.7818C25.8882 45.2688 25.602 45.9539 25.8625 46.5775C26.0001 46.2482 26.2871 45.9364 26.7301 45.6796L36.567 40.0009C37.8528 39.2581 39.9465 39.2581 41.2323 40.0018L89.706 67.9874C90.4902 68.4404 91.7622 68.4404 92.5454 67.9874C93.1406 67.6444 93.2818 67.14 92.9755 66.719C92.8774 66.8538 92.7352 66.9804 92.5454 67.0904Z" fill="white"></path>
  <path d="M75.2079 77.1019C74.4228 77.555 73.1527 77.555 72.3676 77.1019L23.8939 49.1155C22.6659 48.4065 21.9698 47.505 21.7992 46.5778C21.5736 47.8031 22.2697 49.0751 23.8939 50.0133L72.3676 77.9998C73.1527 78.4519 74.4228 78.4519 75.2079 77.9998C75.8013 77.6568 75.9434 77.1524 75.6371 76.7305C75.539 76.8662 75.3977 76.9919 75.2079 77.1019Z" fill="white"></path>
  <path d="M174.571 259.571C172.682 259.571 170.88 259.19 169.532 258.412L64.4096 197.719C61.4364 196.002 61.8087 193.004 65.2442 191.02L136.824 149.708C138.702 148.623 141.106 148.068 143.386 148.068C145.276 148.068 147.079 148.449 148.426 149.227L253.548 209.919C256.522 211.636 256.149 214.635 252.716 216.618L181.135 257.932C179.256 259.016 176.851 259.571 174.571 259.571Z" fill="#899ABF"></path>
  <path d="M283.468 93.4659L173.674 30.0764C172.398 29.34 171.102 29.2272 169.953 29.6206L169.96 29.6087L169.76 29.6839L169.713 29.7031L165.745 31.2209L169.305 32.9653L169.255 33.1588L151.371 114.564C150.475 118.639 152.268 123.394 155.374 125.188L262.528 187.052L262.146 191.593L266.482 189.913C267.939 189.231 269.106 187.69 269.588 185.496L287.471 104.09C288.367 100.016 286.574 95.2598 283.468 93.4659Z" fill="#002245"></path>
  <path d="M283.465 93.4654L173.671 30.0759C172.395 29.3394 171.099 29.2266 169.95 29.6201L169.958 29.6081L169.758 29.6833L169.71 29.7026L165.743 31.2204L169.303 32.9648L169.252 33.1583L157.465 86.81L211.186 128.663L286.934 97.8418C286.206 95.9544 284.996 94.3495 283.465 93.4654Z" fill="#4067B1"></path>
  <path d="M279.328 105.979L287.686 102.421C287.839 99.1847 286.5 95.84 284.3 94.0525L271.07 99.6166L279.328 105.979Z" fill="#2E4B8D"></path>
  <path d="M258.329 191.162L148.534 127.772C145.428 125.978 143.636 121.222 144.532 117.148L162.415 35.7423C163.309 31.6685 166.552 29.8197 169.659 31.6126L279.454 95.0022C282.559 96.796 284.352 101.552 283.456 105.626L265.572 187.032C264.678 191.106 261.434 192.955 258.329 191.162Z" fill="#D9EFFB"></path>
  <path d="M280.508 94.6178L170.713 31.2291C169.209 30.3606 167.677 30.3615 166.391 31.0411C167.423 30.8155 168.549 30.9732 169.659 31.6152L279.454 95.0039C282.561 96.7968 284.353 101.555 283.457 105.628L265.573 187.033C265.112 189.134 264.021 190.627 262.653 191.351C264.506 190.945 266.054 189.264 266.628 186.648L284.511 105.242C285.406 101.169 283.614 96.4116 280.508 94.6178Z" fill="white"></path>
  <path d="M255.95 185.107L152.691 125.519C149.849 123.878 148.208 119.525 149.027 115.798L165.393 41.3041C166.211 37.577 169.18 35.885 172.021 37.5257L275.281 97.1138C278.124 98.7545 279.764 103.106 278.945 106.835L262.579 181.327C261.761 185.056 258.793 186.747 255.95 185.107Z" fill="white"></path>
  <path d="M256.85 184.742L153.591 125.154C150.749 123.513 149.109 119.161 149.927 115.433L166.293 40.9396C166.706 39.0531 167.674 37.6939 168.894 37.0189C167.257 37.4399 165.905 38.9742 165.393 41.3055L149.027 115.798C148.208 119.526 149.849 123.879 152.69 125.521L255.95 185.108C257.354 185.919 258.787 185.909 259.978 185.25C258.997 185.503 257.915 185.356 256.85 184.742Z" fill="#40516C"></path>
  <path d="M259.848 193.922L244.84 191.94L147.959 136.006C144.854 134.214 139.428 134.438 135.842 136.509L67.1929 176.129L58.1172 174.93V180.08L58.1263 180.082C58.0667 181.271 58.7445 182.416 60.21 183.261L170.004 246.652C173.111 248.445 178.535 248.22 182.122 246.149L256.884 203C258.901 201.835 259.907 200.334 259.848 198.926V193.922Z" fill="#002245"></path>
  <path d="M187.055 158.579L180.172 154.606H104.498L67.1929 176.13L58.1172 174.931V180.081L58.1263 180.083C58.0667 181.272 58.7445 182.417 60.21 183.262L170.004 246.653C171.645 247.601 173.935 247.979 176.257 247.825L187.055 158.579Z" fill="#4067B1"></path>
  <path d="M62.1451 175.463L58.1172 174.93V180.079L58.1263 180.081C58.0667 181.271 58.7445 182.415 60.21 183.261L62.1451 184.378V175.463Z" fill="#40516C"></path>
  <path d="M171.109 247.167C174.053 248.283 178.263 248.04 181.406 246.527V235.042H171.109V247.167Z" fill="#2E4B8D"></path>
  <path d="M170.004 241.509L60.2098 178.119C57.1045 176.326 57.4934 173.194 61.0802 171.123L135.842 127.973C139.428 125.904 144.853 125.678 147.96 127.472L257.754 190.862C260.86 192.655 260.47 195.787 256.884 197.858L182.122 241.007C178.535 243.078 173.11 243.302 170.004 241.509Z" fill="#D9EFFB"></path>
  <path d="M256.881 195.977L182.119 239.127C178.533 241.197 173.108 241.421 170.002 239.628L60.2073 176.239C59.1893 175.651 58.5537 174.918 58.2768 174.127C57.7907 175.596 58.4097 177.082 60.2073 178.12L170.002 241.509C173.108 243.302 178.533 243.078 182.119 241.007L256.881 197.858C259.291 196.466 260.251 194.596 259.682 192.973C259.329 194.044 258.392 195.105 256.881 195.977Z" fill="white"></path>
  <path d="M106.905 157.133L101.938 154.264C101.539 154.034 101.588 153.632 102.049 153.366L107.913 149.98C108.374 149.714 109.071 149.686 109.469 149.916L114.437 152.785C114.836 153.015 114.785 153.416 114.325 153.683L108.462 157.068C108.001 157.334 107.304 157.363 106.905 157.133Z" fill="#40516C"></path>
  <path d="M114.577 161.562L109.61 158.694C109.21 158.464 109.26 158.063 109.721 157.797L115.584 154.411C116.045 154.145 116.742 154.116 117.14 154.346L122.108 157.214C122.507 157.444 122.457 157.847 121.996 158.113L116.133 161.498C115.673 161.764 114.976 161.792 114.577 161.562Z" fill="#40516C"></path>
  <path d="M122.249 165.992L117.281 163.123C116.882 162.894 116.932 162.491 117.393 162.225L123.256 158.84C123.716 158.574 124.413 158.545 124.813 158.775L129.78 161.644C130.179 161.874 130.13 162.277 129.669 162.543L123.805 165.928C123.344 166.194 122.647 166.222 122.249 165.992Z" fill="#40516C"></path>
  <path d="M132.858 162.334L127.89 159.465C127.492 159.235 127.541 158.833 128.002 158.567L132.924 155.725C133.384 155.459 134.081 155.431 134.481 155.661L139.448 158.529C139.847 158.759 139.798 159.162 139.337 159.427L134.414 162.27C133.953 162.535 133.258 162.564 132.858 162.334Z" fill="#40516C"></path>
  <path d="M140.529 166.763L135.561 163.896C135.163 163.665 135.214 163.263 135.673 162.997L140.596 160.155C141.057 159.89 141.753 159.86 142.152 160.09L147.12 162.959C147.519 163.189 147.469 163.591 147.008 163.857L142.087 166.699C141.625 166.965 140.928 166.994 140.529 166.763Z" fill="#40516C"></path>
  <path d="M148.202 171.193L143.234 168.325C142.835 168.094 142.886 167.693 143.346 167.427L148.268 164.585C148.728 164.319 149.425 164.29 149.823 164.52L154.791 167.388C155.19 167.618 155.141 168.021 154.68 168.286L149.757 171.129C149.297 171.394 148.6 171.424 148.202 171.193Z" fill="#40516C"></path>
  <path d="M155.874 175.621L150.906 172.753C150.507 172.523 150.557 172.12 151.018 171.855L155.94 169.012C156.4 168.747 157.097 168.718 157.495 168.948L162.463 171.817C162.862 172.047 162.812 172.449 162.351 172.714L157.429 175.557C156.969 175.823 156.272 175.851 155.874 175.621Z" fill="#40516C"></path>
  <path d="M163.546 180.051L158.578 177.183C158.18 176.953 158.228 176.55 158.69 176.284L163.612 173.442C164.072 173.176 164.769 173.148 165.168 173.378L170.136 176.246C170.534 176.476 170.485 176.879 170.024 177.145L165.101 179.987C164.641 180.252 163.945 180.281 163.546 180.051Z" fill="#40516C"></path>
  <path d="M171.218 184.481L166.25 181.613C165.851 181.383 165.901 180.979 166.362 180.714L171.284 177.872C171.745 177.606 172.441 177.577 172.84 177.807L177.808 180.675C178.206 180.906 178.157 181.308 177.696 181.574L172.774 184.415C172.314 184.681 171.617 184.711 171.218 184.481Z" fill="#40516C"></path>
  <path d="M178.889 188.911L173.922 186.042C173.522 185.812 173.573 185.409 174.033 185.143L178.955 182.302C179.417 182.036 180.113 182.007 180.512 182.237L185.48 185.105C185.879 185.335 185.828 185.738 185.368 186.004L180.446 188.845C179.985 189.11 179.288 189.141 178.889 188.911Z" fill="#40516C"></path>
  <path d="M186.561 193.34L181.593 190.472C181.194 190.242 181.245 189.838 181.705 189.573L186.627 186.731C187.088 186.466 187.785 186.436 188.184 186.666L193.151 189.535C193.551 189.765 193.5 190.167 193.04 190.433L188.118 193.275C187.657 193.541 186.96 193.57 186.561 193.34Z" fill="#40516C"></path>
  <path d="M194.233 197.769L189.265 194.901C188.866 194.67 188.917 194.268 189.377 194.002L194.299 191.161C194.76 190.895 195.457 190.866 195.857 191.095L200.824 193.963C201.223 194.193 201.172 194.597 200.713 194.863L195.79 197.705C195.328 197.971 194.632 197.999 194.233 197.769Z" fill="#40516C"></path>
  <path d="M201.905 202.197L196.937 199.329C196.539 199.099 196.588 198.696 197.049 198.431L201.972 195.588C202.432 195.323 203.128 195.294 203.527 195.524L208.495 198.393C208.894 198.622 208.844 199.025 208.383 199.291L203.462 202.133C203.001 202.399 202.304 202.427 201.905 202.197Z" fill="#40516C"></path>
  <path d="M144.162 160.236L139.195 157.368C138.796 157.138 138.846 156.736 139.306 156.47L144.229 153.628C144.691 153.362 145.387 153.333 145.786 153.564L150.754 156.432C151.152 156.662 151.102 157.064 150.642 157.33L145.72 160.172C145.259 160.438 144.562 160.466 144.162 160.236Z" fill="#40516C"></path>
  <path d="M136.378 155.742L131.41 152.874C131.012 152.643 131.06 152.241 131.522 151.975L136.444 149.134C136.904 148.868 137.601 148.838 138 149.068L142.968 151.937C143.366 152.167 143.317 152.57 142.856 152.836L137.933 155.677C137.473 155.943 136.777 155.972 136.378 155.742Z" fill="#40516C"></path>
  <path d="M128.578 151.239L117.879 145.061C117.48 144.831 117.53 144.429 117.99 144.163L122.912 141.321C123.372 141.055 124.069 141.027 124.469 141.257L135.168 147.434C135.566 147.664 135.518 148.066 135.056 148.332L130.133 151.174C129.674 151.44 128.977 151.468 128.578 151.239Z" fill="#40516C"></path>
  <path d="M134.031 145.763L125.348 140.751C124.948 140.52 124.999 140.119 125.46 139.852L130.382 137.011C130.842 136.745 131.539 136.716 131.937 136.946L140.621 141.958C141.02 142.189 140.969 142.591 140.509 142.857L135.587 145.698C135.126 145.965 134.429 145.994 134.031 145.763Z" fill="#40516C"></path>
  <path d="M151.835 164.666L146.868 161.797C146.468 161.567 146.518 161.165 146.979 160.899L151.901 158.057C152.361 157.791 153.058 157.763 153.457 157.993L158.425 160.861C158.824 161.092 158.773 161.493 158.313 161.759L153.391 164.602C152.931 164.867 152.234 164.896 151.835 164.666Z" fill="#40516C"></path>
  <path d="M159.507 169.095L154.539 166.228C154.14 165.997 154.19 165.596 154.651 165.33L159.573 162.488C160.033 162.222 160.73 162.192 161.129 162.423L166.096 165.291C166.496 165.521 166.446 165.923 165.985 166.189L161.063 169.031C160.602 169.297 159.906 169.326 159.507 169.095Z" fill="#40516C"></path>
  <path d="M167.179 173.525L162.211 170.656C161.812 170.426 161.862 170.024 162.322 169.759L167.245 166.916C167.705 166.65 168.402 166.622 168.801 166.852L173.769 169.72C174.168 169.951 174.117 170.353 173.657 170.619L168.735 173.461C168.274 173.727 167.578 173.755 167.179 173.525Z" fill="#40516C"></path>
  <path d="M174.85 177.953L169.882 175.085C169.484 174.855 169.534 174.453 169.994 174.187L174.917 171.345C175.377 171.079 176.073 171.05 176.472 171.281L181.44 174.149C181.838 174.379 181.79 174.781 181.328 175.047L176.406 177.889C175.946 178.155 175.249 178.183 174.85 177.953Z" fill="#40516C"></path>
  <path d="M182.522 182.383L177.554 179.515C177.155 179.285 177.206 178.882 177.666 178.616L182.588 175.774C183.049 175.508 183.746 175.479 184.144 175.71L189.112 178.577C189.511 178.809 189.46 179.21 189 179.477L184.078 182.318C183.617 182.584 182.92 182.613 182.522 182.383Z" fill="#40516C"></path>
  <path d="M190.194 186.813L185.227 183.945C184.828 183.715 184.877 183.312 185.338 183.046L190.261 180.204C190.721 179.938 191.418 179.909 191.816 180.14L196.784 183.008C197.183 183.238 197.132 183.64 196.672 183.906L191.75 186.747C191.29 187.013 190.592 187.043 190.194 186.813Z" fill="#40516C"></path>
  <path d="M197.867 191.242L192.899 188.374C192.499 188.143 192.549 187.741 193.011 187.475L197.932 184.634C198.393 184.368 199.09 184.338 199.489 184.568L204.457 187.436C204.855 187.667 204.805 188.07 204.344 188.336L199.422 191.177C198.962 191.443 198.266 191.472 197.867 191.242Z" fill="#40516C"></path>
  <path d="M205.537 195.672L200.57 192.804C200.171 192.574 200.221 192.171 200.681 191.905L205.604 189.064C206.065 188.798 206.761 188.768 207.161 188.999L212.129 191.867C212.527 192.097 212.477 192.5 212.017 192.766L207.095 195.607C206.634 195.873 205.937 195.902 205.537 195.672Z" fill="#40516C"></path>
  <path d="M213.209 200.101L208.241 197.233C207.843 197.002 207.893 196.6 208.354 196.334L213.276 193.493C213.736 193.227 214.432 193.197 214.832 193.427L219.799 196.295C220.199 196.526 220.149 196.929 219.688 197.195L214.766 200.037C214.306 200.303 213.609 200.331 213.209 200.101Z" fill="#40516C"></path>
  <path d="M226.847 207.975L216.007 201.716C215.609 201.486 215.658 201.084 216.119 200.818L221.041 197.975C221.502 197.71 222.199 197.681 222.598 197.911L233.437 204.169C233.836 204.4 233.786 204.802 233.325 205.068L228.403 207.91C227.943 208.176 227.246 208.205 226.847 207.975Z" fill="#40516C"></path>
  <path d="M241.781 199.351L232.632 194.07C232.234 193.84 232.284 193.437 232.744 193.171L237.666 190.33C238.126 190.063 238.823 190.034 239.222 190.265L248.371 195.547C248.77 195.777 248.72 196.179 248.26 196.445L243.337 199.287C242.876 199.553 242.179 199.582 241.781 199.351Z" fill="#40516C"></path>
  <path d="M165.268 163.801L160.3 160.933C159.901 160.703 159.952 160.299 160.412 160.033L165.334 157.192C165.795 156.926 166.492 156.897 166.891 157.127L171.859 159.995C172.258 160.226 172.207 160.628 171.746 160.894L166.825 163.735C166.363 164.002 165.667 164.031 165.268 163.801Z" fill="#40516C"></path>
  <path d="M157.405 159.26L152.437 156.391C152.038 156.161 152.089 155.759 152.549 155.493L157.471 152.651C157.932 152.385 158.629 152.356 159.027 152.586L163.995 155.454C164.394 155.684 164.344 156.088 163.883 156.353L158.961 159.195C158.5 159.46 157.803 159.49 157.405 159.26Z" fill="#40516C"></path>
  <path d="M149.546 154.72L144.578 151.853C144.179 151.621 144.229 151.22 144.69 150.954L149.612 148.112C150.072 147.846 150.768 147.817 151.168 148.048L156.135 150.916C156.535 151.146 156.485 151.548 156.024 151.814L151.102 154.656C150.641 154.922 149.944 154.951 149.546 154.72Z" fill="#40516C"></path>
  <path d="M141.682 150.181L136.714 147.313C136.316 147.083 136.366 146.681 136.826 146.415L141.749 143.573C142.209 143.307 142.905 143.279 143.305 143.509L148.272 146.377C148.671 146.607 148.622 147.009 148.161 147.275L143.239 150.117C142.778 150.383 142.081 150.412 141.682 150.181Z" fill="#40516C"></path>
  <path d="M172.94 168.23L167.972 165.362C167.574 165.132 167.623 164.729 168.084 164.463L173.006 161.622C173.466 161.356 174.163 161.327 174.562 161.558L179.53 164.424C179.928 164.655 179.88 165.058 179.418 165.323L174.496 168.166C174.036 168.431 173.339 168.461 172.94 168.23Z" fill="#40516C"></path>
  <path d="M180.612 172.658L175.644 169.79C175.246 169.56 175.295 169.157 175.757 168.891L180.679 166.049C181.139 165.784 181.835 165.755 182.234 165.985L187.202 168.854C187.601 169.084 187.551 169.486 187.09 169.752L182.168 172.594C181.708 172.86 181.011 172.888 180.612 172.658Z" fill="#40516C"></path>
  <path d="M188.285 177.088L183.317 174.219C182.917 173.989 182.967 173.587 183.429 173.321L188.351 170.479C188.811 170.213 189.508 170.185 189.906 170.415L194.874 173.283C195.273 173.513 195.223 173.916 194.762 174.181L189.84 177.024C189.38 177.289 188.683 177.318 188.285 177.088Z" fill="#40516C"></path>
  <path d="M195.956 181.517L190.989 178.649C190.589 178.419 190.639 178.017 191.1 177.751L196.022 174.909C196.483 174.644 197.18 174.614 197.578 174.844L202.546 177.713C202.945 177.943 202.895 178.345 202.434 178.611L197.512 181.453C197.052 181.719 196.356 181.747 195.956 181.517Z" fill="#40516C"></path>
  <path d="M203.627 185.945L198.66 183.077C198.261 182.846 198.311 182.445 198.771 182.179L203.693 179.337C204.154 179.071 204.851 179.042 205.251 179.272L210.218 182.14C210.617 182.37 210.567 182.773 210.107 183.038L205.184 185.881C204.724 186.146 204.027 186.176 203.627 185.945Z" fill="#40516C"></path>
  <path d="M211.299 190.375L206.331 187.507C205.933 187.277 205.983 186.874 206.444 186.609L211.366 183.766C211.826 183.501 212.522 183.472 212.922 183.702L217.889 186.571C218.289 186.801 218.239 187.202 217.778 187.468L212.856 190.31C212.395 190.576 211.699 190.605 211.299 190.375Z" fill="#40516C"></path>
  <path d="M218.972 194.805L214.004 191.936C213.605 191.707 213.655 191.304 214.115 191.038L219.038 188.196C219.498 187.93 220.195 187.902 220.593 188.132L225.561 191C225.961 191.23 225.91 191.632 225.45 191.898L220.528 194.74C220.067 195.006 219.37 195.035 218.972 194.805Z" fill="#40516C"></path>
  <path d="M226.643 199.235L221.675 196.367C221.276 196.137 221.327 195.733 221.787 195.468L226.709 192.625C227.17 192.36 227.867 192.331 228.265 192.561L233.233 195.43C233.632 195.66 233.582 196.063 233.121 196.329L228.199 199.17C227.738 199.436 227.041 199.464 226.643 199.235Z" fill="#40516C"></path>
  <path d="M234.315 203.664L229.347 200.796C228.949 200.566 228.998 200.163 229.459 199.897L234.381 197.056C234.841 196.789 235.538 196.76 235.937 196.991L240.905 199.858C241.303 200.089 241.254 200.492 240.793 200.758L235.87 203.599C235.41 203.864 234.714 203.895 234.315 203.664Z" fill="#40516C"></path>
  <path d="M161.23 152.843L156.262 149.976C155.862 149.745 155.913 149.343 156.374 149.077L161.295 146.235C161.756 145.969 162.453 145.94 162.851 146.171L167.819 149.038C168.218 149.269 168.168 149.671 167.708 149.938L162.785 152.779C162.325 153.045 161.628 153.074 161.23 152.843Z" fill="#40516C"></path>
  <path d="M153.596 148.437L148.629 145.568C148.23 145.338 148.28 144.936 148.74 144.67L153.663 141.829C154.123 141.563 154.819 141.533 155.219 141.763L160.186 144.631C160.586 144.862 160.535 145.265 160.075 145.531L155.153 148.373C154.692 148.639 153.995 148.667 153.596 148.437Z" fill="#40516C"></path>
  <path d="M145.963 144.029L140.995 141.16C140.597 140.93 140.647 140.528 141.107 140.262L146.03 137.42C146.49 137.154 147.187 137.126 147.586 137.356L152.554 140.225C152.953 140.455 152.903 140.857 152.442 141.123L147.521 143.965C147.059 144.231 146.362 144.259 145.963 144.029Z" fill="#40516C"></path>
  <path d="M138.331 139.623L133.363 136.756C132.964 136.525 133.014 136.122 133.475 135.856L138.397 133.014C138.857 132.748 139.554 132.72 139.953 132.95L144.921 135.819C145.319 136.049 145.269 136.451 144.808 136.717L139.886 139.559C139.426 139.825 138.73 139.853 138.331 139.623Z" fill="#40516C"></path>
  <path d="M146.179 135.091L141.211 132.223C140.812 131.993 140.862 131.591 141.322 131.325L142.949 130.385C143.41 130.119 144.107 130.091 144.506 130.321L149.473 133.189C149.873 133.42 149.822 133.821 149.362 134.087L147.735 135.027C147.275 135.293 146.578 135.322 146.179 135.091Z" fill="#40516C"></path>
  <path d="M156.139 140.842L151.172 137.973C150.773 137.743 150.823 137.341 151.283 137.075L152.91 136.136C153.371 135.87 154.068 135.84 154.467 136.07L159.435 138.938C159.834 139.169 159.784 139.572 159.323 139.838L157.696 140.777C157.235 141.042 156.538 141.072 156.139 140.842Z" fill="#40516C"></path>
  <path d="M163.741 145.231L158.773 142.363C158.374 142.132 158.425 141.729 158.885 141.463L160.512 140.524C160.972 140.259 161.669 140.23 162.068 140.46L167.036 143.328C167.434 143.558 167.385 143.96 166.924 144.226L165.296 145.165C164.836 145.431 164.14 145.461 163.741 145.231Z" fill="#40516C"></path>
  <path d="M171.343 149.619L166.375 146.751C165.975 146.521 166.026 146.118 166.487 145.852L168.114 144.913C168.575 144.647 169.272 144.619 169.67 144.849L174.638 147.717C175.036 147.947 174.987 148.349 174.527 148.615L172.899 149.555C172.438 149.821 171.742 149.849 171.343 149.619Z" fill="#40516C"></path>
  <path d="M178.944 154.009L173.977 151.141C173.578 150.911 173.627 150.509 174.088 150.243L175.715 149.303C176.176 149.037 176.872 149.008 177.272 149.239L182.239 152.107C182.638 152.338 182.588 152.739 182.128 153.005L180.5 153.945C180.04 154.211 179.344 154.24 178.944 154.009Z" fill="#40516C"></path>
  <path d="M221.385 178.511L216.418 175.643C216.019 175.413 216.069 175.01 216.529 174.744L218.156 173.805C218.617 173.539 219.314 173.511 219.712 173.741L224.68 176.609C225.079 176.84 225.029 177.241 224.568 177.507L222.942 178.446C222.481 178.713 221.784 178.742 221.385 178.511Z" fill="#40516C"></path>
  <path d="M228.987 182.9L224.019 180.032C223.62 179.802 223.671 179.4 224.131 179.134L225.758 178.194C226.218 177.928 226.915 177.9 227.313 178.13L232.281 180.998C232.68 181.228 232.63 181.63 232.17 181.896L230.543 182.836C230.082 183.102 229.385 183.13 228.987 182.9Z" fill="#40516C"></path>
  <path d="M236.589 187.289L231.621 184.42C231.222 184.19 231.272 183.788 231.733 183.522L233.359 182.582C233.821 182.316 234.518 182.288 234.916 182.518L239.884 185.387C240.283 185.617 240.232 186.019 239.772 186.285L238.145 187.225C237.684 187.491 236.987 187.519 236.589 187.289Z" fill="#40516C"></path>
  <path d="M244.19 191.677L239.222 188.81C238.823 188.579 238.874 188.177 239.334 187.912L240.961 186.972C241.422 186.706 242.119 186.676 242.517 186.908L247.485 189.775C247.884 190.006 247.834 190.407 247.374 190.674L245.747 191.613C245.286 191.879 244.589 191.908 244.19 191.677Z" fill="#40516C"></path>
  <path d="M168.901 157.274L163.934 154.406C163.534 154.176 163.585 153.772 164.045 153.507L168.967 150.666C169.428 150.399 170.124 150.37 170.523 150.6L175.491 153.468C175.89 153.699 175.84 154.101 175.38 154.367L170.457 157.208C169.997 157.474 169.301 157.504 168.901 157.274Z" fill="#40516C"></path>
  <path d="M176.573 161.703L171.606 158.834C171.207 158.604 171.256 158.202 171.716 157.936L176.639 155.095C177.099 154.829 177.796 154.799 178.196 155.029L183.163 157.897C183.562 158.128 183.512 158.531 183.052 158.797L178.129 161.638C177.669 161.904 176.972 161.933 176.573 161.703Z" fill="#40516C"></path>
  <path d="M184.244 166.133L179.276 163.265C178.878 163.035 178.929 162.631 179.389 162.366L184.311 159.525C184.772 159.259 185.468 159.229 185.867 159.459L190.835 162.328C191.234 162.558 191.184 162.961 190.724 163.227L185.801 166.068C185.34 166.334 184.643 166.363 184.244 166.133Z" fill="#40516C"></path>
  <path d="M191.917 170.562L186.949 167.693C186.55 167.463 186.6 167.061 187.061 166.795L191.983 163.954C192.443 163.688 193.14 163.658 193.538 163.888L198.506 166.756C198.906 166.987 198.856 167.39 198.394 167.656L193.473 170.498C193.012 170.764 192.315 170.792 191.917 170.562Z" fill="#40516C"></path>
  <path d="M199.589 174.99L194.621 172.122C194.222 171.892 194.272 171.49 194.733 171.223L199.655 168.382C200.115 168.116 200.812 168.087 201.21 168.318L206.178 171.186C206.577 171.415 206.528 171.818 206.066 172.084L201.144 174.926C200.684 175.192 199.987 175.22 199.589 174.99Z" fill="#40516C"></path>
  <path d="M207.261 179.42L202.293 176.551C201.895 176.321 201.943 175.919 202.404 175.653L207.327 172.811C207.787 172.545 208.484 172.517 208.883 172.747L213.851 175.615C214.249 175.846 214.199 176.247 213.739 176.513L208.816 179.355C208.356 179.621 207.659 179.65 207.261 179.42Z" fill="#40516C"></path>
  <path d="M214.932 183.849L209.964 180.982C209.566 180.751 209.616 180.35 210.076 180.084L214.999 177.242C215.46 176.976 216.156 176.946 216.555 177.177L221.523 180.045C221.921 180.275 221.871 180.677 221.411 180.943L216.489 183.785C216.028 184.051 215.331 184.079 214.932 183.849Z" fill="#40516C"></path>
  <path d="M222.604 188.279L217.637 185.41C217.237 185.18 217.288 184.778 217.748 184.512L222.67 181.67C223.132 181.404 223.828 181.376 224.227 181.606L229.194 184.474C229.593 184.705 229.543 185.107 229.083 185.373L224.161 188.215C223.7 188.481 223.003 188.509 222.604 188.279Z" fill="#40516C"></path>
  <path d="M230.276 192.707L225.309 189.839C224.909 189.609 224.96 189.207 225.42 188.941L230.342 186.099C230.802 185.833 231.499 185.804 231.898 186.035L236.866 188.903C237.265 189.133 237.215 189.534 236.754 189.8L231.832 192.643C231.372 192.908 230.675 192.937 230.276 192.707Z" fill="#40516C"></path>
  <path d="M125.04 157.82L110.41 149.373C110.011 149.142 110.061 148.741 110.522 148.475L115.444 145.633C115.904 145.367 116.601 145.338 116.999 145.568L131.63 154.015C132.029 154.246 131.979 154.648 131.518 154.914L126.596 157.756C126.135 158.022 125.438 158.05 125.04 157.82Z" fill="#40516C"></path>
  <path d="M219.29 212.234L204.66 203.787C204.262 203.557 204.31 203.155 204.772 202.889L209.694 200.047C210.154 199.781 210.851 199.753 211.25 199.983L225.881 208.43C226.279 208.66 226.229 209.061 225.769 209.327L220.847 212.17C220.386 212.435 219.689 212.465 219.29 212.234Z" fill="#40516C"></path>
  <path d="M188.609 204.306L183.641 201.438C183.242 201.208 183.291 200.805 183.752 200.539L189.616 197.154C190.077 196.888 190.774 196.86 191.172 197.09L196.14 199.958C196.539 200.189 196.488 200.59 196.028 200.856L190.164 204.241C189.705 204.508 189.008 204.537 188.609 204.306Z" fill="#40516C"></path>
  <path d="M132.898 172.141L124.953 167.554C124.554 167.324 124.604 166.921 125.065 166.655L130.929 163.27C131.389 163.004 132.085 162.975 132.485 163.205L140.429 167.792C140.829 168.022 140.778 168.426 140.318 168.691L134.454 172.076C133.993 172.342 133.297 172.371 132.898 172.141Z" fill="#40516C"></path>
  <path d="M181.218 200.037L173.273 195.45C172.874 195.22 172.925 194.818 173.385 194.552L179.248 191.167C179.709 190.901 180.405 190.871 180.804 191.101L188.75 195.689C189.148 195.919 189.098 196.322 188.637 196.588L182.774 199.973C182.314 200.239 181.617 200.267 181.218 200.037Z" fill="#40516C"></path>
  <path d="M143.968 178.531L136.023 173.944C135.625 173.713 135.674 173.312 136.135 173.046L141.999 169.66C142.459 169.394 143.156 169.365 143.554 169.596L151.499 174.183C151.898 174.413 151.848 174.816 151.387 175.082L145.524 178.467C145.064 178.733 144.367 178.761 143.968 178.531Z" fill="#40516C"></path>
  <path d="M143.606 169.626L178.147 189.569C178.577 189.816 178.577 190.217 178.147 190.465L172.168 193.918C171.74 194.164 171.044 194.164 170.616 193.918L136.074 173.975L143.606 169.626Z" fill="#40516C"></path>
  <path d="M210.049 212.337L215.582 215.532C215.909 215.72 215.869 216.05 215.491 216.268L213.092 217.653C212.714 217.871 212.144 217.894 211.817 217.705L206.284 214.511C205.956 214.322 205.997 213.992 206.374 213.774L208.773 212.39C209.151 212.171 209.723 212.148 210.049 212.337Z" fill="#40516C"></path>
  <path d="M202.315 207.87L207.848 211.064C208.174 211.253 208.134 211.583 207.756 211.801L205.358 213.186C204.98 213.404 204.41 213.428 204.082 213.239L198.548 210.045C198.222 209.856 198.263 209.525 198.64 209.307L201.039 207.922C201.416 207.705 201.988 207.68 202.315 207.87Z" fill="#40516C"></path>
  <path d="M194.643 203.44L200.177 206.635C200.504 206.823 200.463 207.153 200.085 207.372L197.687 208.756C197.31 208.975 196.738 208.998 196.411 208.809L190.877 205.614C190.55 205.425 190.591 205.095 190.969 204.878L193.368 203.493C193.745 203.275 194.316 203.251 194.643 203.44Z" fill="#40516C"></path>
  <path d="M206.553 205.425L212.087 208.619C212.414 208.808 212.372 209.137 211.994 209.355L209.596 210.74C209.219 210.959 208.648 210.982 208.32 210.793L202.787 207.599C202.46 207.41 202.501 207.08 202.879 206.862L205.277 205.477C205.654 205.26 206.226 205.235 206.553 205.425Z" fill="#40516C"></path>
  <path d="M191.134 71.7002L178.656 64.4954L179.187 61.8101L191.664 69.0131L191.134 71.7002Z" fill="#D9EFFB"></path>
  <path d="M189.779 77.9443L177.301 70.7395L177.833 68.0533L190.311 75.2572L189.779 77.9443Z" fill="white"></path>
  <path d="M251.02 164.54L238.543 157.337L239.074 154.65L251.551 161.855L251.02 164.54Z" fill="#D9EFFB"></path>
  <path d="M187.071 90.4307L174.594 83.2259L175.125 80.5396L187.603 87.7435L187.071 90.4307Z" fill="#D9EFFB"></path>
  <path d="M138.671 211.287L107.423 193.246C106.513 192.72 106.627 191.803 107.678 191.197L126.535 180.31C127.585 179.703 129.175 179.637 130.083 180.162L161.332 198.203C162.242 198.729 162.127 199.646 161.078 200.253L142.219 211.14C141.17 211.747 139.58 211.812 138.671 211.287Z" fill="white"></path>
  <path d="M112.613 138.452L116.383 133.829L106.407 125.692L102.637 130.316L112.613 138.452Z" fill="#40516C"></path>
  <path d="M114.108 138.545C115.366 138.067 116.56 136.603 116.774 135.276C116.989 133.948 116.145 133.259 114.887 133.737C113.629 134.215 112.436 135.678 112.221 137.005C112.006 138.333 112.851 139.022 114.108 138.545Z" fill="#40516C"></path>
  <path d="M103.21 133.171L109.319 125.68L99.1284 117.37L93.0195 124.861L103.21 133.171Z" fill="#40516C"></path>
  <path d="M108.048 127.033L111.424 129.786C110.937 131.648 109.381 133.558 107.654 134.409L104.277 131.655C104.764 129.793 106.323 127.884 108.048 127.033Z" fill="#4067B1"></path>
  <path d="M105.635 133.322C107.672 132.549 109.607 130.177 109.956 128.025C110.303 125.873 108.934 124.757 106.897 125.53C104.859 126.304 102.926 128.677 102.578 130.828C102.229 132.979 103.598 134.096 105.635 133.322Z" fill="#40516C"></path>
  <path d="M95.4399 125.007C97.4778 124.233 99.4119 121.862 99.7604 119.71C100.109 117.559 98.7397 116.442 96.7019 117.216C94.665 117.991 92.7308 120.362 92.3823 122.513C92.0338 124.664 93.4031 125.781 95.4399 125.007Z" fill="#40516C"></path>
  <path d="M95.7135 123.315C96.8663 122.878 97.9604 121.536 98.1576 120.319C98.3547 119.101 97.5798 118.47 96.4279 118.908C95.2751 119.345 94.181 120.687 93.9838 121.904C93.7866 123.121 94.5607 123.753 95.7135 123.315Z" fill="#D9EFFB"></path>
  <path d="M114.139 134.762C114.628 135.16 115.107 134.98 115.208 134.356C115.308 133.734 114.994 132.905 114.504 132.506C114.015 132.107 113.538 132.289 113.437 132.912C113.336 133.535 113.65 134.363 114.139 134.762Z" fill="#D9EFFB"></path>
  <path d="M12.6551 236.3C10.8695 236.3 9.08206 235.809 7.44961 234.828L0.39063 230.647C0.0127812 230.422 -0.112867 229.933 0.110907 229.554C0.335599 229.176 0.82168 229.05 1.2032 229.275L8.26585 233.459C11.041 235.126 14.3399 235.115 17.0939 233.424C19.8489 231.735 21.3566 228.801 21.1283 225.575L20.9779 223.446C18.4989 188.597 13.8859 123.729 41.2239 116.733C50.6426 114.323 57.0899 112.016 61.7974 110.331C75.8264 105.309 76.7885 105.586 96.1294 120.193C96.4816 120.458 96.5503 120.958 96.2853 121.309C96.0202 121.659 95.5204 121.73 95.1691 121.465C75.9576 106.956 75.7035 107.046 62.3339 111.833C57.5971 113.527 51.1095 115.85 41.6201 118.277C15.5697 124.945 20.1213 188.949 22.5672 223.334L22.7185 225.462C22.9891 229.293 21.198 232.778 17.9276 234.783C16.2795 235.794 14.4673 236.3 12.6551 236.3Z" fill="#40516C"></path>
  <path d="M66.2841 249.226C59.6653 249.226 53.0466 247.769 47.997 244.853C37.8968 239.021 37.8968 229.568 47.997 223.736C53.0466 220.821 59.6653 219.363 66.2841 219.363C72.9019 219.363 79.5207 220.821 84.5712 223.736C94.6704 229.568 94.6704 239.022 84.5712 244.853C79.5216 247.769 72.9028 249.226 66.2841 249.226Z" fill="#899ABF"></path>
  <path d="M78.6231 227.897C80.0794 228.519 80.9956 230.144 80.8755 231.889C80.8177 232.712 80.7187 233.479 80.5462 233.84C80.0831 234.812 78.5644 236.149 76.1386 235.19C73.7147 234.232 68.3295 229.172 68.1277 225.861C67.7526 219.708 74.7877 226.259 78.6231 227.897Z" fill="#002245"></path>
  <path d="M64.3747 238.072C64.3747 238.072 64.9562 241.618 64.6728 242.268C64.3912 242.918 62.7038 244.306 60.2101 244.006C57.7184 243.706 50.5447 241.233 48.9471 236.505C46.4709 229.177 62.7927 237.056 62.7927 237.056L64.3747 238.072Z" fill="#002245"></path>
  <path d="M57.3683 181.368L56.8125 236.74C56.8712 238.666 58.1331 240.292 59.8289 240.579C60.0389 240.614 60.2636 240.642 60.5039 240.663C62.2216 240.813 63.2222 240.077 63.7935 239.302C64.2548 238.675 64.4988 237.88 64.5327 237.066L65.2398 213.43L68.7688 192.296L73.6515 229.7C73.7304 230.712 74.2137 231.647 74.9923 232.163C75.5307 232.519 76.2607 232.795 77.2191 232.767C78.6167 232.725 79.587 231.977 80.1795 231.309C80.6481 230.78 80.8949 230.053 80.8857 229.307L78.9506 206.801L78.2297 178.094L57.3683 181.368Z" fill="#D9EFFB"></path>
  <path d="M64.5361 131.804L65.411 136.85C65.411 136.85 65.444 138.571 63.5227 139.048C61.6004 139.525 61.0052 138.284 61.0052 138.284L60.1367 132.602L64.5361 131.804Z" fill="#F67024"></path>
  <path d="M54.278 131.957C57.4897 135.155 62.3926 135.422 65.2319 132.554C68.0704 129.685 67.7677 124.766 64.556 121.568C61.3443 118.369 56.4396 118.102 53.6012 120.971C50.7636 123.84 51.0663 128.759 54.278 131.957Z" fill="#F5F5F5"></path>
  <path d="M64.3099 136.944C64.4438 136.889 72.4657 131.724 75.4298 137.129C80.2657 145.942 79.9805 174.314 78.4535 177.989C77.0412 181.39 73.5131 183.898 71.0406 185.31C68.8404 186.567 66.3789 187.337 63.8449 187.356C61.3385 187.377 56.5319 185.148 56.7062 181.872C57.5086 166.799 56.1761 154.095 54.9453 141.767C54.9453 141.767 56.4833 140.111 64.3099 136.944Z" fill="#40516C"></path>
  <path d="M68.7656 192.296L73.6483 229.7C73.7272 230.713 74.2105 231.647 74.9891 232.164C75.1166 232.248 75.2569 232.326 75.4073 232.399C74.393 231.638 71.4344 200.243 70.886 196.751C70.3385 193.256 68.7656 192.296 68.7656 192.296Z" fill="#4067B1"></path>
  <path d="M38.6559 138.606L34.2969 124.331L36.5988 123.376L41.7383 134.563L38.6559 138.606Z" fill="#F5F5F5"></path>
  <path d="M82.5961 127.354L79.3284 112.491L76.7266 112.519L77.7042 124.845L82.5961 127.354Z" fill="#F5F5F5"></path>
  <path d="M54.943 141.767C54.943 141.767 47.1109 143.329 42.131 134.211C41.6926 133.407 40.527 133.288 40.0648 133.993C39.266 135.21 38.2085 137.073 38.757 139.088C41.1809 147.999 54.3478 149.97 56.7121 155.138C59.0764 160.307 54.943 141.767 54.943 141.767Z" fill="#40516C"></path>
  <path d="M69.3984 135.09C69.3984 135.09 75.6008 135.567 76.4932 130.198C76.9526 127.433 77.092 125.783 77.1168 124.832C77.1342 124.188 77.6937 123.7 78.3329 123.779C79.8186 123.963 82.1178 124.407 82.4305 125.403C82.8964 126.888 83.7723 134.179 77.646 145.364C73.6327 152.692 69.3984 135.09 69.3984 135.09Z" fill="#40516C"></path>
  <path d="M79.341 112.528L79.2814 110.832C79.2612 110.234 79.086 109.652 78.7742 109.14L77.0565 106.318L76.609 105.753C76.1953 105.231 75.4552 105.106 74.8921 105.46L74.4969 105.708C73.9934 106.025 73.7026 106.592 73.7412 107.186L74.6298 109.598L73.5064 109.38C73.2881 109.338 73.0772 109.482 73.0377 109.701C73.0038 109.887 73.1056 110.071 73.2808 110.141L75.1159 110.882L76.7832 113.241L79.341 112.528Z" fill="#F5F5F5"></path>
  <path d="M34.2348 124.406L33.7157 122.791C33.5314 122.221 33.4974 121.614 33.6166 121.027L34.2742 117.79L34.5044 117.107C34.7162 116.475 35.3692 116.105 36.0195 116.247L36.4753 116.347C37.0567 116.473 37.5226 116.909 37.6886 117.48L37.6712 120.051L38.6543 119.464C38.8451 119.35 39.0927 119.414 39.2046 119.607C39.299 119.77 39.2651 119.978 39.1248 120.104L37.6501 121.424L36.7889 124.554L34.2348 124.406Z" fill="#F5F5F5"></path>
  <path d="M58.612 152.567C59.3265 155.823 57.3235 181.1 63.8441 187.356C61.3377 187.377 56.5311 185.148 56.7054 181.872C57.2437 171.764 56.8145 162.733 56.1074 154.153C53.5505 150.841 46.5154 148.731 42.1133 144.482C42.4343 144.581 57.9059 149.343 58.612 152.567Z" fill="#4067B1"></path>
  <path d="M67.1953 135.518L66.081 134.374C66.081 134.374 64.2486 136.246 62.7766 136.571C62.7766 136.571 61.0048 137.072 60.139 137.116L59.4219 139.093C59.4219 139.093 65.2565 138.675 67.1953 135.518Z" fill="white"></path>
  <path d="M58.9764 129.652C58.7004 129.79 58.3831 129.799 58.1107 129.655C57.6375 129.406 56.8689 127.52 55.8821 127.658C54.3396 127.874 52.1055 131.112 49.3248 126.595C47.8794 124.247 48.7269 122.979 48.0234 121.647C48.0234 121.647 48.2711 122.37 54.3249 118.675C60.3787 114.979 65.3293 119.483 66.8645 122.059C68.3997 124.634 69.3966 129.666 65.4228 132.506C64.7634 132.976 60.5236 132.136 60.4356 131.782C60.3493 131.426 61.4847 130.855 60.8428 130.024C60.3081 129.331 59.6964 129.293 58.9764 129.652Z" fill="#002245"></path>
  <path d="M139.718 50.0537L123.266 40.5552L139.718 31.0577L156.169 40.5552L139.718 50.0537Z" fill="#899ABF"></path>
  <path d="M156.17 28.4947L139.719 37.9932V18.9971L156.17 9.49862V28.4947Z" fill="#002245"></path>
  <path d="M139.718 18.9971L123.266 9.49858L139.718 0.000114441L156.169 9.4995L139.718 18.9971Z" fill="#D9EFFB"></path>
  <path d="M139.718 37.9932L123.266 28.4947V9.49862L139.718 18.9971V37.9932Z" fill="#40516C"></path>
  <path d="M133.793 27.7314L129.191 25.0746V19.7618L133.793 22.4186V27.7314Z" fill="white"></path>
</svg>
