<?xml version="1.0" encoding="UTF-8"?>
<svg xmlns="http://www.w3.org/2000/svg" width="1440" height="1234" viewBox="0 0 1440 1234" fill="none">
  <g clip-path="url(#clip0_12004_25566)">
    <rect width="1442" height="1234" transform="translate(-1)" fill="url(#paint0_linear_12004_25566)"></rect>
    <g opacity="0.12">
      <path d="M1710.32 -179.716C1726.17 -76.8211 1637.65 22.3695 1512.36 41.6735C1387.06 60.9776 1272.79 -6.9677 1256.94 -109.862C1241.08 -212.757 1329.61 -311.948 1454.9 -331.252C1580.19 -350.556 1694.47 -282.611 1710.32 -179.716Z" stroke="white"></path>
      <path d="M1681.37 -175.256C1701.28 -46.0467 1590.12 78.4695 1432.85 102.7C1275.58 126.931 1132.1 41.6476 1112.19 -87.5613C1092.28 -216.77 1203.44 -341.286 1360.71 -365.517C1517.98 -389.748 1661.46 -304.464 1681.37 -175.256Z" stroke="white"></path>
      <path d="M1589.58 -161.113C1611.75 -17.2107 1487.95 121.447 1312.83 148.429C1137.7 175.41 977.91 80.4457 955.739 -63.4566C933.568 -207.359 1057.37 -346.016 1232.49 -372.998C1407.61 -399.98 1567.41 -305.015 1589.58 -161.113Z" stroke="white"></path>
    </g>
    <g opacity="0.12">
      <path d="M-311.706 1099.62C-291.696 1201.79 -174.761 1265.05 -50.3537 1240.68C74.0538 1216.31 158.484 1113.62 138.474 1011.45C118.463 909.281 1.5285 846.023 -122.879 870.39C-247.287 894.756 -331.717 997.454 -311.706 1099.62Z" stroke="white"></path>
      <path d="M-282.962 1093.99C-257.833 1222.29 -111.012 1301.68 45.1462 1271.1C201.304 1240.51 307.325 1111.59 282.197 983.299C257.068 855.003 110.247 775.606 -45.9112 806.191C-202.069 836.776 -308.09 965.695 -282.962 1093.99Z" stroke="white"></path>
      <path d="M-191.818 1076.14C-163.832 1219.03 -0.321782 1307.43 173.565 1273.38C347.452 1239.32 465.528 1095.76 437.542 952.873C409.557 809.987 246.046 721.578 72.1597 755.635C-101.727 789.693 -219.803 933.254 -191.818 1076.14Z" stroke="white"></path>
    </g>
  </g>
  <defs>
    <linearGradient id="paint0_linear_12004_25566" x1="310.931" y1="819.628" x2="1498.19" y2="308.415" gradientUnits="userSpaceOnUse">
      <stop stop-color="#070A10"></stop>
      <stop offset="1" stop-color="#0A152C"></stop>
    </linearGradient>
    <clipPath id="clip0_12004_25566">
      <rect width="1442" height="1234" fill="white" transform="translate(-1)"></rect>
    </clipPath>
  </defs>
</svg>
