<?xml version="1.0" encoding="UTF-8"?>
<svg xmlns="http://www.w3.org/2000/svg" width="271" height="260" viewBox="0 0 271 260" fill="none">
  <g clip-path="url(#clip0_12004_26200)">
    <path d="M27.111 60.8744L4.29726 47.7029C3.84555 47.4422 3.43748 47.4318 3.11793 47.6085L3.11944 47.5934L0.90625 48.8723C0.90625 48.8723 1.88627 49.2294 2.46153 49.44V66.0545C2.46153 67.4062 3.28286 68.9762 4.29726 69.5618L26.1033 82.1514V84.1001L28.3386 82.8126L28.3268 82.8088C28.704 82.5783 28.9468 82.073 28.9468 81.3456V64.3817C28.9468 63.0299 28.1251 61.46 27.111 60.8744Z" fill="#CE480A"></path>
    <path d="M24.8604 84.032L2.04657 70.8605C1.03264 70.2749 0.210938 68.705 0.210938 67.3533V50.3893C0.210938 49.0376 1.03264 48.416 2.04657 49.0017L24.8604 62.1731C25.874 62.7588 26.6957 64.3287 26.6957 65.6804V82.6444C26.6957 83.9961 25.874 84.6177 24.8604 84.032Z" fill="#F67024"></path>
    <path d="M25.4212 61.7698L2.6073 48.5984C1.96525 48.2281 1.40218 48.3434 1.07422 48.8194C1.35722 48.7448 1.68849 48.7949 2.04753 49.0017L24.8614 62.1732C25.875 62.7588 26.6967 64.3288 26.6967 65.6805V82.6445C26.6967 83.1404 26.5849 83.5352 26.3941 83.811C26.9107 83.676 27.2568 83.1149 27.2568 82.2411V65.2771C27.2568 63.9254 26.4351 62.3555 25.4212 61.7698Z" fill="white"></path>
    <path d="M9.71944 65.0146C9.71944 65.996 9.03055 66.3946 8.18003 65.9034C7.3299 65.4132 6.64062 64.2192 6.64062 63.2369C6.64062 62.2554 7.3299 61.8578 8.18003 62.3489C9.03055 62.8392 9.71944 64.0332 9.71944 65.0146Z" fill="white"></path>
    <path d="M14.3796 67.7068C14.3796 68.6892 13.6903 69.0868 12.8402 68.5957C11.9904 68.1054 11.3008 66.9114 11.3008 65.93C11.3008 64.9476 11.9904 64.55 12.8402 65.0412C13.6903 65.5314 14.3796 66.7254 14.3796 67.7068Z" fill="white"></path>
    <path d="M19.0432 70.3996C19.0432 71.3811 18.354 71.7787 17.5039 71.2875C16.6537 70.7973 15.9648 69.6033 15.9648 68.6219C15.9648 67.6404 16.6537 67.2428 17.5039 67.733C18.354 68.2242 19.0432 69.4172 19.0432 70.3996Z" fill="white"></path>
    <path d="M160.91 162.829C159.693 162.647 158.542 162.284 157.589 161.735C154.733 160.085 154.733 157.412 157.589 155.763C160.444 154.115 165.074 154.115 167.93 155.763C168.883 156.313 169.51 156.979 169.828 157.68L189.588 146.273L147.543 121.996C144.011 119.957 138.284 119.957 134.751 121.996L92.707 146.272L112.07 157.45C111.322 157.652 110.618 157.927 110 158.284C107.143 159.932 107.143 162.607 110 164.255C112.855 165.904 117.485 165.904 120.341 164.255C120.959 163.898 121.435 163.492 121.785 163.059L141.149 174.238L160.91 162.829Z" fill="#F2F2F2"></path>
    <path d="M255.004 188.449L212.959 164.174L193.198 175.583C192.882 174.881 192.255 174.216 191.302 173.666C188.445 172.017 183.816 172.017 180.96 173.666C178.104 175.314 178.104 177.987 180.96 179.636C181.912 180.186 183.065 180.548 184.28 180.731L164.52 192.14L184.863 203.886C184.971 202.896 185.673 201.924 186.982 201.169C189.838 199.519 194.468 199.519 197.323 201.169C200.18 202.817 200.18 205.49 197.324 207.139C196.014 207.895 194.332 208.3 192.617 208.363L212.961 220.108L255.004 195.834C258.537 193.794 258.536 190.487 255.004 188.449Z" fill="#F2F2F2"></path>
    <path d="M100.834 205.328C99.9017 204.79 98.7776 204.429 97.5893 204.243L117.322 192.851L97.9587 181.671C97.6082 182.103 97.1321 182.51 96.5144 182.867C93.6579 184.516 89.0275 184.516 86.172 182.867C83.3165 181.219 83.3165 178.546 86.172 176.895C86.7907 176.539 87.4944 176.264 88.2425 176.062L68.8802 164.883L26.8367 189.157C23.3044 191.196 23.3044 194.503 26.8367 196.542L68.8821 220.817L88.6138 209.424C88.9378 210.111 89.5593 210.759 90.4926 211.298C93.349 212.948 97.9794 212.948 100.834 211.298C103.69 209.649 103.69 206.976 100.834 205.328Z" fill="#F2F2F2"></path>
    <path d="M167.723 223.879C169.344 223.819 170.936 223.436 172.174 222.721C174.875 221.162 174.875 218.633 172.174 217.074C169.473 215.514 165.093 215.513 162.393 217.074C161.153 217.789 160.49 218.707 160.387 219.643L141.147 208.535L122.483 219.31C123.608 219.487 124.67 219.826 125.553 220.337C128.254 221.895 128.254 224.424 125.553 225.983C122.853 227.543 118.473 227.543 115.772 225.982C114.89 225.473 114.3 224.86 113.995 224.21L95.332 234.986L135.099 257.946C138.441 259.874 143.857 259.874 147.198 257.946L186.964 234.987L167.723 223.879Z" fill="#F2F2F2"></path>
    <path d="M186.682 113.813L148.894 91.9968C144.616 89.5267 137.679 89.5267 133.401 91.9968L93.7645 114.881L82.4766 110.271V121.398L100.84 132V139.396C100.763 140.761 101.617 142.139 103.421 143.18C106.879 145.177 112.487 145.177 115.947 143.18C116.695 142.748 117.272 142.256 117.697 141.732L141.149 155.272L165.083 141.454V131.568C168.025 131.125 171.283 131.564 173.588 132.895C174.742 133.562 175.501 134.367 175.886 135.217L199.82 121.399V110.272L186.682 113.813Z" fill="#CE480A"></path>
    <path d="M162.85 131.178L162.463 131.705L162.68 131.714L141.149 144.146L117.697 130.605C117.272 131.129 116.695 131.621 115.947 132.053C112.487 134.05 106.879 134.05 103.421 132.053C102.021 131.245 101.197 130.233 100.931 129.183C100.538 130.728 101.362 132.356 103.421 133.545C106.879 135.542 112.487 135.542 115.947 133.545C116.695 133.112 117.272 132.619 117.697 132.097L141.149 145.637L165.083 131.818V130.328L162.85 131.178Z" fill="white"></path>
    <path d="M165.083 130.327C163.611 130.105 162.216 129.666 161.061 129C157.603 127.003 157.602 123.765 161.061 121.768C164.52 119.771 170.128 119.772 173.588 121.768C174.742 122.435 175.501 123.241 175.886 124.091L199.82 110.272L148.894 80.8699C144.616 78.3998 137.679 78.3998 133.401 80.8699L82.4766 110.27L105.929 123.811C105.022 124.057 104.169 124.39 103.42 124.822C99.962 126.819 99.962 130.057 103.421 132.054C106.879 134.051 112.487 134.051 115.947 132.054C116.695 131.621 117.272 131.129 117.697 130.606L141.149 144.146L165.083 130.327Z" fill="#F67024"></path>
    <path d="M105.929 123.811L82.4766 110.271V111.762L104.335 124.381C104.842 124.16 105.369 123.962 105.929 123.811Z" fill="white"></path>
    <path d="M175.885 124.09C175.501 123.24 174.741 122.435 173.587 121.768C170.128 119.772 164.52 119.772 161.061 121.768C159.002 122.957 158.179 124.585 158.572 126.129C158.838 125.079 159.661 124.068 161.061 123.259C164.52 121.262 170.128 121.262 173.587 123.259C174.741 123.925 175.501 124.731 175.885 125.581L199.819 111.763V110.272L175.885 124.09Z" fill="white"></path>
    <path d="M258.951 158.734L213.358 132.412L189.424 146.23C189.04 145.379 188.279 144.574 187.126 143.908C185.916 143.209 184.442 142.761 182.891 142.551C182.12 141.547 179.541 138.468 179.285 138.395C178.983 138.308 172.01 136.292 172.01 136.292V147.463C171.983 148.792 172.844 150.126 174.6 151.139C175.754 151.806 177.149 152.245 178.622 152.467L166.579 159.42L154.688 155.158V166.285L179.326 180.511C179.458 179.312 180.307 178.135 181.894 177.22C183.766 176.139 186.269 175.648 188.72 175.738V185.934L213.36 200.159L264.283 170.759C266.471 169.496 267.533 167.832 267.484 166.177L267.488 166.18V155.273L258.951 158.734Z" fill="#002245"></path>
    <path d="M179.324 160.734V180.507C179.457 179.309 180.307 178.134 181.892 177.22C185.35 175.223 190.958 175.223 194.417 177.22C195.159 177.648 195.734 178.137 196.157 178.655C198.001 178.077 199.935 177.75 201.91 177.649V160.734H179.324Z" fill="#006CAC"></path>
    <path d="M213.356 132.412L213.18 132.513V200.057L213.358 200.159L264.281 170.759C266.469 169.496 267.531 167.832 267.482 166.177L267.486 166.18V155.273L258.949 158.734L213.356 132.412Z" fill="#006CAC"></path>
    <path d="M188.719 178.027V174.807L191.507 176.416L188.719 178.027Z" fill="#002245"></path>
    <path d="M267.406 155.904C267.128 157.266 266.092 158.586 264.282 159.631L213.359 189.032L191.881 176.632C191.857 176.295 191.758 175.613 191.758 175.613L188.719 174.807V176.298L213.359 190.523L264.282 161.122C266.75 159.697 267.786 157.762 267.406 155.904Z" fill="white"></path>
    <path d="M264.283 150.686L213.358 121.284L189.424 135.103C189.04 134.253 188.279 133.447 187.126 132.78C183.667 130.783 178.058 130.783 174.6 132.78C171.14 134.778 171.14 138.015 174.6 140.013C175.754 140.679 177.149 141.118 178.622 141.339L154.688 155.158L179.326 169.383C179.458 168.185 180.308 167.009 181.895 166.092C185.353 164.096 190.961 164.096 194.42 166.093C197.879 168.09 197.879 171.328 194.42 173.324C192.834 174.24 190.796 174.731 188.72 174.807L213.36 189.033L264.283 159.631C268.562 157.161 268.562 153.157 264.283 150.686Z" fill="#D9EFFB"></path>
    <path d="M174.596 141.504C175.25 141.88 175.986 142.178 176.763 142.41L178.619 141.339C177.146 141.118 175.751 140.679 174.596 140.013C173.197 139.204 172.374 138.193 172.107 137.142C171.714 138.687 172.537 140.315 174.596 141.504Z" fill="white"></path>
    <path d="M196.91 170.454C197.303 168.909 196.479 167.281 194.42 166.093C190.961 164.096 185.353 164.096 181.895 166.092C180.308 167.008 179.458 168.185 179.326 169.383L154.688 155.157V156.649L179.326 170.875C179.458 169.676 180.308 168.5 181.895 167.584C185.353 165.587 190.961 165.587 194.42 167.584C195.82 168.392 196.644 169.405 196.91 170.454Z" fill="white"></path>
    <path d="M127.383 166.285V155.157L115.69 159.533L103.93 152.744C103.506 153.268 102.929 153.759 102.181 154.192C98.722 156.19 93.1139 156.19 89.6548 154.192C86.275 152.241 86.207 149.108 89.4309 147.103L92.1627 148.632V134.823H83.6991L82.8613 140.579L68.7103 132.41L23.6639 158.418L14.5781 155.157V166.284C14.5781 167.903 15.6474 169.522 17.7867 170.755L68.7122 200.158L92.6123 186.359C93.0034 187.19 93.7581 187.976 94.8879 188.628C98.347 190.626 103.955 190.626 107.414 188.629C109.21 187.593 110.065 186.221 109.996 184.863V176.323L127.383 166.285Z" fill="#006CAC"></path>
    <path d="M68.7103 132.41L23.6639 158.418L14.5781 155.157V166.284C14.5781 167.903 15.6474 169.522 17.7867 170.755L68.7121 200.158V132.411L68.7103 132.41Z" fill="#002245"></path>
    <path d="M90.1456 134.875L89.8537 135.628L89.9236 135.695C89.8339 135.74 89.7413 135.784 89.6554 135.834C87.5962 137.023 86.7725 138.65 87.1654 140.195C87.4327 139.145 88.2555 138.133 89.6554 137.325C90.4044 136.893 91.2565 136.559 92.1633 136.315V134.823L90.1456 134.875Z" fill="white"></path>
    <path d="M107.415 170.27C106.284 169.617 104.923 169.182 103.484 168.956L127.383 155.159L103.931 141.618C103.507 142.142 102.93 142.633 102.181 143.066C98.7224 145.063 93.1143 145.063 89.6552 143.066C86.1961 141.069 86.1961 137.831 89.6552 135.834C90.4042 135.401 91.2563 135.069 92.1631 134.823L68.7107 121.282L17.7871 150.684C13.5085 153.155 13.5085 157.159 17.7871 159.629L68.7125 189.032L92.6127 175.233C93.0038 176.064 93.7585 176.85 94.8882 177.502C98.3473 179.499 103.955 179.499 107.415 177.502C110.873 175.505 110.873 172.267 107.415 170.27Z" fill="#5F92D3"></path>
    <path d="M107.414 177.502C103.955 179.499 98.3467 179.499 94.8876 177.502C93.7578 176.85 93.0031 176.064 92.612 175.233L68.7119 189.031L17.7864 159.629C15.9766 158.584 14.9408 157.264 14.6623 155.903C14.2827 157.76 15.318 159.696 17.7864 161.12L68.7119 190.522L92.612 176.724C93.0031 177.555 93.7578 178.34 94.8876 178.993C98.3467 180.99 103.955 180.99 107.414 178.993C109.473 177.804 110.296 176.176 109.904 174.632C109.636 175.681 108.814 176.694 107.414 177.502Z" fill="white"></path>
    <path d="M103.484 168.956C104.118 169.056 104.733 169.203 105.324 169.385L127.384 156.649V155.157L103.484 168.956Z" fill="white"></path>
    <path d="M188.38 204.794L175.184 197.175C177.259 197.099 179.298 196.609 180.885 195.693C182.332 194.857 183.165 193.804 183.401 192.717L183.477 192.767V192.1V192.053V180.901L172.316 185.239L174.883 186.971C172.53 186.931 170.154 187.424 168.358 188.461C166.771 189.376 165.922 190.553 165.791 191.752L141.151 177.526L126.673 185.885L125.171 180.866L117.251 180.199V192.565L119.671 191.951C120.204 192.147 120.716 192.37 121.181 192.639C124.641 194.636 124.641 197.873 121.182 199.871C117.722 201.868 112.114 201.868 108.656 199.871C107.525 199.218 106.772 198.432 106.381 197.601L93.1516 205.239L82.4805 200.273V211.4L133.406 240.802C137.685 243.272 144.622 243.272 148.9 240.802L199.824 211.402V200.274L188.38 204.794Z" fill="#CE480A"></path>
    <path d="M121.18 181.512C120.638 181.199 120.032 180.951 119.399 180.738L119.184 180.317L117.25 180.199V181.689C118.69 181.915 120.051 182.351 121.18 183.003C122.58 183.812 123.404 184.824 123.67 185.873C124.063 184.33 123.24 182.701 121.18 181.512Z" fill="white"></path>
    <path d="M175.184 186.048C177.259 185.973 179.298 185.482 180.885 184.566C184.343 182.568 184.343 179.331 180.884 177.333C177.426 175.337 171.818 175.337 168.358 177.333C166.771 178.25 165.922 179.427 165.791 180.625L141.151 166.399L117.251 180.198C118.691 180.424 120.052 180.86 121.181 181.511C124.641 183.508 124.641 186.746 121.182 188.743C117.722 190.741 112.114 190.741 108.656 188.743C107.525 188.09 106.772 187.305 106.381 186.474L82.4805 200.273L133.406 229.675C137.685 232.146 144.622 232.146 148.9 229.675L199.824 200.274L175.184 186.048Z" fill="#F67024"></path>
    <path d="M183.373 181.697C183.107 182.746 182.284 183.758 180.884 184.567C179.297 185.482 177.259 185.972 175.184 186.049L177.352 187.3C178.644 187.06 179.858 186.649 180.884 186.057C182.942 184.869 183.766 183.24 183.373 181.697Z" fill="white"></path>
    <path d="M148.9 229.675C144.622 232.146 137.685 232.146 133.406 229.675L82.4805 200.273V201.765L133.406 231.166C137.685 233.636 144.622 233.636 148.9 231.166L199.824 201.766V200.274L148.9 229.675Z" fill="white"></path>
    <path d="M85.6401 167.534C76.4728 172.826 61.6124 172.826 52.4451 167.534C43.2787 162.242 43.2787 153.661 52.4451 148.37C61.6114 143.078 76.4728 143.078 85.6391 148.37C94.8055 153.662 94.8055 162.243 85.6401 167.534Z" fill="#002245"></path>
    <path d="M57.8086 19.2356C57.8086 19.2356 58.3196 29.7707 59.1216 36.8505C59.9235 43.9302 76.9735 31.4124 76.9735 31.4124V23.3513L57.8086 19.2356Z" fill="#F67024"></path>
    <path d="M66.8911 150.306C67.1471 150.947 71.565 156.324 75.9828 157.669C77.9041 158.254 79.1954 158.33 80.0418 158.229C80.891 158.128 81.4152 157.254 81.129 156.447C80.3695 154.307 78.1894 149.85 72.6541 147.104C65.1625 143.392 66.8911 150.306 66.8911 150.306Z" fill="#006CAC"></path>
    <path d="M65.4161 152.373C65.4161 152.373 67.0814 156.277 67.5934 159.542C67.9061 161.535 66.8122 164.122 65.912 165.837C65.3538 166.902 63.9378 167.141 63.048 166.333C61.6037 165.023 59.7656 162.747 59.4623 159.479C58.9494 153.973 59.4623 153.012 59.4623 153.012L65.4161 152.373Z" fill="#006CAC"></path>
    <path d="M54.776 85.8203C54.776 85.8203 54.1989 92.7659 54.776 100.448C55.3522 108.132 57.4152 144.063 57.7987 152.707C57.7987 152.707 57.607 155.325 62.6729 154.747C67.7387 154.171 67.3307 151.267 67.3307 151.267C67.3307 151.267 74.4463 151.17 74.6702 146.977C74.894 142.782 81.9568 96.8976 81.9568 80.4002L54.776 85.8203Z" fill="#D9EFFB"></path>
    <path d="M84.5867 49.9058L88.0722 55.3051L100.054 69.7781C100.054 69.7781 99.6426 71.1204 98.1511 71.4727C96.9854 71.7476 86.9075 62.1317 82.5549 57.9131C81.3987 56.7928 81.2069 55.0084 82.0958 53.6652L84.5867 49.9058Z" fill="#FAB6A9"></path>
    <path d="M77.7891 27.7454C77.7891 27.7454 83.3263 27.6018 85.2542 35.6044C87.1821 43.6071 88.6897 53.6273 87.013 54.4605C81.9802 56.9599 78.796 54.0345 78.796 54.0345L77.7891 27.7454Z" fill="#5F92D3"></path>
    <path d="M79.4424 28.0847C78.4978 27.6908 77.4379 27.6379 76.4537 27.9204C71.7364 29.2758 53.9987 34.4806 51.0752 36.98C47.6983 39.8676 56.1411 56.0891 56.0192 61.4082C55.8974 66.7272 55.2975 72.9974 54.8281 78.7793C54.3577 84.5621 53.722 87.7321 58.4506 90.19C63.1802 92.6488 71.2555 92.7621 77.2991 88.1563C83.3445 83.5504 82.2478 80.3992 81.9965 77.0563C81.7443 73.7125 79.6861 59.2516 79.8646 55.1464C79.8646 55.1464 81.9947 53.5774 83.5721 50.8872C85.1496 48.1961 82.363 43.2502 81.2059 40.0348C80.0488 36.8194 81.8586 33.1421 81.5006 30.5189C81.3164 29.1682 80.4531 28.5069 79.4424 28.0847Z" fill="#5F92D3"></path>
    <path d="M65.8867 39.0137L67.9025 41.3251C68.1651 41.6255 68.2832 42.0241 68.2265 42.419L66.4639 54.728C66.4147 55.0728 66.5007 55.4232 66.7057 55.7066L71.0159 61.6736C71.2076 61.9372 71.6166 61.8777 71.7243 61.5697L74.3645 53.978C74.4646 53.6899 74.4646 53.3772 74.3635 53.091L70.3868 41.7597C70.2989 41.5122 70.2857 41.2448 70.3471 40.9889L71.0537 38.0323L65.8867 39.0137Z" fill="white"></path>
    <path d="M73.7734 33.6153C74.1475 36.5379 71.4667 39.2876 67.7866 39.7599C64.1064 40.2313 60.8192 38.2448 60.4452 35.3231C60.0702 32.4015 62.7509 29.6508 66.4311 29.1795C70.1122 28.7081 73.3993 30.6937 73.7734 33.6153Z" fill="white"></path>
    <path d="M71.8715 33.8588C72.1388 35.9473 70.2231 37.913 67.5924 38.2503C64.9617 38.5875 62.6125 37.1678 62.3452 35.0793C62.0779 32.9908 63.9935 31.025 66.6242 30.6878C69.2549 30.3506 71.6041 31.7703 71.8715 33.8588Z" fill="#FAB6A9"></path>
    <path d="M69.2593 27.0032C69.2593 27.0032 66.058 24.3696 65.4289 25.7034C64.7998 27.0372 64.2812 32.7614 64.2812 32.7614L70.6403 34.4692L69.6749 28.6704C69.6749 28.6704 70.9482 27.5907 69.2593 27.0032Z" fill="#FAB6A9"></path>
    <path d="M79.1986 20.7299C78.8898 25.9648 74.3954 29.9576 69.1614 29.6487C63.9264 29.3389 59.9336 24.8455 60.2434 19.6105C60.5523 14.3765 65.0467 10.3837 70.2807 10.6926C75.5157 11.0024 79.5075 15.4959 79.1986 20.7299Z" fill="#FAB6A9"></path>
    <path d="M64.9857 27.3622C64.9291 27.6617 64.8762 27.9819 64.8242 28.3097C65.4628 31.612 70.4058 33.0591 70.4058 33.0591L69.6757 28.6705C69.6757 28.6705 70.2755 28.1614 70.1055 27.6532C68.152 27.0363 65.6904 26.4904 64.9857 27.3622Z" fill="#EB8B8A"></path>
    <path d="M79.1986 20.7299C78.8898 25.9648 74.3954 29.9576 69.1614 29.6487C63.9264 29.3389 59.9336 24.8455 60.2434 19.6105C60.5523 14.3765 65.0467 10.3837 70.2807 10.6926C75.5157 11.0024 79.5075 15.4959 79.1986 20.7299Z" fill="#FAB6A9"></path>
    <path d="M46.3242 60.3596L47.3878 85.7664L51.102 86.1499L53.5201 63.2784L46.3242 60.3596Z" fill="#FAB6A9"></path>
    <path d="M58.5345 58.2362C58.3342 57.3511 56.7076 56.6238 56.4602 55.4705C55.184 49.5516 54.877 40.8245 54.877 40.8245L53.8398 52.7462C55.0366 56.2819 56.0653 59.5275 56.0228 61.4082C55.951 64.5301 55.7139 67.9816 55.4362 71.4681V71.4785C55.4362 71.4785 59.7644 63.662 58.5345 58.2362Z" fill="#002245"></path>
    <path d="M51.7863 36.4596C51.7863 36.4596 48.8165 37.5941 47.1352 46.717C45.4547 55.8399 44.1975 64.9788 47.1937 66.1568C50.1909 67.3347 52.695 68.2197 53.5764 65.7798C54.4567 63.339 55.0027 51.5816 55.1142 47.3536C55.2237 43.1247 55.3853 37.2946 51.7863 36.4596Z" fill="#5F92D3"></path>
    <path d="M99.1676 68.7204C99.1676 68.7204 100.776 69.3107 101.938 70.5774C102.892 71.6165 103.414 72.4978 103.832 73.1203C104.757 74.5003 105.538 77.4824 104.973 77.8546C104.409 78.2258 101.182 72.8596 100.663 74.1083C100.142 75.3561 100.667 76.5104 99.9998 76.5293C99.3329 76.5473 97.0148 71.1347 95.1908 69.4562C93.3668 67.7776 99.1676 68.7204 99.1676 68.7204Z" fill="#FAB6A9"></path>
    <path d="M67.3281 151.267C67.3281 151.267 68.2104 151.253 69.3618 151.056L70.7542 95.202L67.3281 151.267Z" fill="#002245"></path>
    <path d="M61.9547 121.095L59.9786 118.516L39.1947 106.482C38.5278 106.096 37.9884 105.064 37.9894 104.174L38.0073 87.1578L36.8125 85.5973L37.9355 84.9474L37.9365 84.9493C38.1518 84.8105 38.4371 84.8142 38.7517 84.9956L62.3061 98.6327C62.973 99.0191 63.5114 100.052 63.5105 100.941L63.4906 119.472C63.4897 119.973 63.3187 120.322 63.0504 120.46L61.9547 121.095Z" fill="#002245"></path>
    <path d="M47.5817 111.338L46.1053 110.484L37.9998 96.4043L38.0073 87.1577L36.8125 85.5972L37.9355 84.9473L37.9365 84.9492C38.1518 84.8104 38.4371 84.8141 38.7517 84.9955L62.3061 98.6326C62.6584 98.8367 62.9739 99.222 63.194 99.6717L47.5817 111.338Z" fill="#002245"></path>
    <path d="M37.3433 86.2896L36.8125 85.5972L37.9355 84.9473L37.9365 84.9492C38.1518 84.8103 38.4371 84.8141 38.7517 84.9955L39.1663 85.2363L37.3433 86.2896Z" fill="#002245"></path>
    <path d="M62.5187 98.784C63.041 99.2119 63.4472 100.021 63.502 100.769L61.2009 102.097L60.0977 100.182L62.5187 98.784Z" fill="#002245"></path>
    <path d="M61.1848 99.2829L37.6304 85.6457C36.9644 85.2603 36.4234 85.6675 36.4223 86.5573L36.4023 105.088C36.4017 105.977 36.9408 107.012 37.6068 107.397L61.1612 121.034C61.8281 121.42 62.3684 121.011 62.3694 120.123L62.3902 101.591C62.3911 100.703 61.8517 99.6692 61.1848 99.2829Z" fill="#D9EFFB"></path>
    <path d="M61.5377 99.069L37.9832 85.4319C37.5903 85.2042 37.2446 85.259 37.0234 85.5197C37.2021 85.4848 37.407 85.5169 37.6271 85.6453L61.1816 99.2825C61.8485 99.6688 62.3878 100.702 62.3869 101.591L62.3661 120.122C62.3661 120.488 62.2716 120.765 62.1177 120.947C62.4776 120.875 62.7213 120.503 62.7222 119.909L62.742 101.378C62.743 100.489 62.2036 99.4553 61.5377 99.069Z" fill="white"></path>
    <path d="M56.3448 112.575L55.2227 111.926V102.289L56.3448 102.937V112.575Z" fill="white"></path>
    <path d="M53.7228 111.061L52.6016 110.414V100.775L53.7228 101.423V111.061Z" fill="white"></path>
    <path d="M51.1026 109.548L49.9805 108.9V99.2617L51.1026 99.9097V109.548Z" fill="white"></path>
    <path d="M47.4195 85.5541C47.4195 85.5541 46.438 91.4852 46.5854 93.3839C46.7327 95.2844 47.7501 98.4167 48.5218 98.3505C49.2935 98.2844 48.5473 90.7125 49.9019 91.4663C51.2574 92.2201 51.4 93.5142 52.013 93.057C52.627 92.6008 50.9428 86.1284 51.3924 83.3211C51.8411 80.5147 47.4195 85.5541 47.4195 85.5541Z" fill="#FAB6A9"></path>
    <path d="M73.3651 20.9992C78.1278 22.6909 79.0544 21.6594 79.1007 21.6037C79.1442 21.3165 79.1791 21.0256 79.1961 20.73C79.2585 19.6786 79.1395 18.6604 78.8797 17.6969L66.5234 16.0287C66.5234 16.0287 68.474 19.263 73.3651 20.9992Z" fill="#EB8B8A"></path>
    <path d="M79.5393 11.2708C78.4161 10.3092 74.3657 5.55224 67.1093 6.67442C62.5753 7.37625 58.7525 10.4698 57.9042 17.5269C57.3328 22.282 59.0784 26.9653 62.2928 30.4272C62.4676 30.346 62.6471 30.2723 62.8086 30.1665C64.626 28.9707 64.8225 28.3132 64.8215 28.3066L65.223 24.7058C65.2107 24.1948 64.8281 23.7395 64.318 23.7074C63.9232 23.6828 63.4443 23.4939 62.988 22.8969C61.9462 21.5339 62.427 19.4095 64.5117 19.3292C65.6008 19.2876 66.023 18.6982 66.177 18.1447C66.3111 17.6639 66.8184 17.3965 67.2888 17.5666C69.6607 18.4243 75.5039 20.2747 79.2644 19.2092C84.0743 17.8462 80.6614 12.2334 79.5393 11.2708Z" fill="#F67024"></path>
    <path d="M74.1273 25.2876L77.031 24.4903C77.031 24.4903 75.6443 26.6714 73.6201 27.2278C71.5958 27.7841 71.2812 26.0697 71.2812 26.0697L74.1273 25.2876Z" fill="white"></path>
    <path d="M52.3577 92.8735L49.8828 91.4566L50.8123 92.9736L52.0639 93.4355L52.3577 92.8735Z" fill="#002245"></path>
    <path d="M64.1765 23.1324C64.1765 23.6765 63.7363 24.1177 63.1922 24.1177C62.6482 24.1177 62.207 23.6765 62.207 23.1324C62.207 22.5893 62.6482 22.1482 63.1922 22.1482C63.7363 22.1482 64.1765 22.5893 64.1765 23.1324Z" fill="white"></path>
    <path d="M229.321 164.17C220.314 169.37 205.711 169.37 196.704 164.17C187.698 158.969 187.698 150.538 196.704 145.338C205.71 140.138 220.313 140.138 229.321 145.338C238.328 150.538 238.328 158.97 229.321 164.17Z" fill="#6F9CD6"></path>
    <path d="M214.363 147.739C214.105 148.382 209.668 153.783 205.232 155.133C203.303 155.72 202.006 155.797 201.156 155.696C200.303 155.595 199.776 154.715 200.064 153.906C200.827 151.757 203.016 147.28 208.575 144.523C216.098 140.794 214.363 147.739 214.363 147.739Z" fill="#006CAC"></path>
    <path d="M215.843 149.814C215.843 149.814 214.171 153.736 213.656 157.016C213.343 159.015 214.441 161.614 215.345 163.337C215.905 164.405 217.328 164.646 218.221 163.834C219.671 162.519 221.517 160.234 221.822 156.95C222.337 151.422 221.822 150.456 221.822 150.456L215.843 149.814Z" fill="#006CAC"></path>
    <path d="M226.532 82.977C226.532 82.977 227.111 89.9528 226.532 97.6683C225.953 105.384 223.882 141.469 223.496 150.15C223.496 150.15 223.689 152.778 218.6 152.199C213.513 151.621 213.923 148.703 213.923 148.703C213.923 148.703 206.778 148.607 206.553 144.395C206.327 140.183 199.234 94.1015 199.234 77.5342L226.532 82.977Z" fill="#D9EFFB"></path>
    <path d="M213.921 148.703C213.921 148.703 213.036 148.69 211.879 148.492L210.48 92.3986L213.921 148.703Z" fill="#002245"></path>
    <path d="M218.976 31.7924C230.519 36.5777 230.287 43.4005 230.287 43.4005C230.287 43.4005 228.026 68.4153 228.798 85.1205C229.121 92.1039 191.693 92.6376 197.275 74.0054C203.857 52.0369 201.389 34.253 204.47 31.5704C207.551 28.8887 215.99 30.554 218.976 31.7924Z" fill="#5F92D3"></path>
    <path d="M222.69 37.8424C222.086 40.185 219.015 41.4205 215.831 40.5996C212.647 39.7797 210.555 37.2151 211.158 34.8716C211.763 32.5281 214.834 31.2925 218.017 32.1134C221.201 32.9333 223.294 35.4988 222.69 37.8424Z" fill="#FAB6A9"></path>
    <path d="M216.045 32.5837C215.279 32.5837 214.545 32.716 213.891 32.9786C212.815 33.4122 212.095 34.148 211.861 35.052C211.629 35.9569 211.904 36.9497 212.637 37.8489C213.422 38.8115 214.621 39.5388 216.012 39.8977C217.403 40.2567 218.804 40.1981 219.957 39.7343C221.033 39.3017 221.754 38.5659 221.987 37.661C222.22 36.757 221.945 35.7633 221.212 34.865C220.427 33.9015 219.227 33.1741 217.837 32.8161C217.234 32.6603 216.63 32.5837 216.045 32.5837ZM217.801 41.5801C217.094 41.5801 216.37 41.4875 215.65 41.3024C213.962 40.8679 212.492 39.9667 211.513 38.7652C210.48 37.5004 210.105 36.0533 210.457 34.6911C210.807 33.3281 211.835 32.2427 213.35 31.6335C214.788 31.0544 216.51 30.9751 218.199 31.4106C219.887 31.846 221.356 32.7472 222.336 33.9477C223.368 35.2135 223.743 36.6606 223.392 38.0227C223.041 39.3848 222.014 40.4711 220.499 41.0804C219.673 41.4119 218.754 41.5801 217.801 41.5801Z" fill="white"></path>
    <path d="M214.346 31.271C214.346 31.271 214.446 31.7348 214.247 35.3922C214.184 36.5418 218.209 37.6158 219.25 36.5758C220.291 35.5349 219.875 34.4524 220.125 30.5389C220.374 26.6255 214.346 31.271 214.346 31.271Z" fill="#FAB6A9"></path>
    <path d="M220.125 30.5386C220.125 30.5386 219.133 34.1667 214.246 35.5591L214.32 32.2606L220.125 30.5386Z" fill="#EB8B8A"></path>
    <path d="M223.22 21.3194C224.448 26.0698 221.592 30.9165 216.842 32.1455C212.09 33.3744 207.244 30.5179 206.016 25.7676C204.787 21.0172 207.642 16.1695 212.394 14.9415C217.144 13.7136 221.992 16.5691 223.22 21.3194Z" fill="#FAB6A9"></path>
    <path d="M216.658 23.8699C216.658 23.8699 211.766 25.965 208.379 25.9886C204.992 26.0132 205.738 23.1766 205.738 23.1766L215.793 21.7238L216.658 23.8699Z" fill="#EB8B8A"></path>
    <path d="M207.372 24.4215C207.372 24.4215 211.633 22.6126 215.371 23.3664C216.25 23.544 217.064 24.0144 217.631 24.7096C217.815 24.9363 218.048 25.1441 218.314 25.2037C218.977 25.3538 220.062 22.6041 221.351 22.5408C222.639 22.4785 223.499 23.391 222.443 25.0818C221.386 26.7736 221.744 28.6665 222.229 28.9376C222.716 29.2087 227.871 25.2603 223.323 16.2508C218.775 7.24123 207.222 12.0936 205.426 13.9195C205.426 13.9195 203.532 15.5688 201.993 14.1009C201.993 14.1009 200.267 27.0267 207.372 24.4215Z" fill="#F67024"></path>
    <path d="M198.822 29.7435L192.615 27.0684C191.904 26.7614 191.355 26.1701 191.102 25.4371L184.973 7.67491L182.133 8.16893L187.087 30.2725C187.319 31.304 187.977 32.1891 188.899 32.7067L199.233 38.5112L198.822 29.7435Z" fill="#FAB6A9"></path>
    <path d="M263.398 32.6318L264.822 31.9791C266.035 31.4228 267.142 30.6586 268.09 29.7206L269.082 28.742C269.641 28.1904 269.808 27.3534 269.503 26.6289C269.264 26.0641 268.597 25.8185 268.049 26.0952L265.075 27.5981C265.075 27.5981 265.541 26.2813 265.317 25.9384C265.093 25.5965 262.791 28.1374 261.726 29.9388C260.662 31.7401 263.398 32.6318 263.398 32.6318Z" fill="#FAB6A9"></path>
    <path d="M238.629 39.7364L243.938 39.1432C245.193 39.0034 246.407 38.6105 247.506 37.988L261.728 29.9391L263.4 32.6321L248.858 43.8596C248.41 44.2063 247.918 44.4943 247.397 44.7173L238.724 48.4248L238.629 39.7364Z" fill="#FAB6A9"></path>
    <path d="M182.132 8.16895L181.59 7.54458C180.966 6.8248 180.561 5.94158 180.423 4.99982L180.044 2.4088C179.926 1.60306 180.241 0.783144 180.897 0.298567L180.968 0.247578C181.657 -0.227553 182.616 0.11626 182.935 0.888939L184.212 3.97589C184.212 3.97589 183.809 2.37669 184.325 2.20005C184.703 2.0697 185.42 4.05335 184.996 5.15664C184.573 6.25993 184.972 7.67492 184.972 7.67492L182.132 8.16895Z" fill="#FAB6A9"></path>
    <path d="M211.095 29.661L208.801 29.031C208.801 29.031 209.897 30.7539 211.496 31.1922C213.094 31.6324 213.342 30.2788 213.342 30.2788L211.095 29.661Z" fill="white"></path>
    <path d="M207.653 30.2951C207.653 30.2951 197.286 28.2463 194.119 27.2838C190.953 26.3222 189.631 35.0191 189.871 37.2228C190.111 39.4275 200.893 41.8872 202.175 45.6665C203.458 49.4468 207.653 30.2951 207.653 30.2951Z" fill="#5F92D3"></path>
    <path d="M223.508 34.1115C223.508 34.1115 231.086 37.3637 243.767 38.9468C244.281 39.012 244.724 39.353 244.895 39.8442C245.383 41.2479 246.218 44.314 245.566 47.4671C245.298 48.7669 244.121 49.6793 242.793 49.6699C238.823 49.6425 230.28 50.0241 228.893 53.7345C227.076 58.5973 223.508 34.1115 223.508 34.1115Z" fill="#5F92D3"></path>
    <path d="M219.048 40.9483L216.97 43.204C216.701 43.4968 216.571 43.8926 216.618 44.2884L218.046 56.64C218.085 56.9866 217.99 57.3352 217.778 57.6119L213.308 63.4599C213.109 63.7197 212.701 63.6479 212.602 63.3371L210.169 55.6774C210.076 55.3874 210.086 55.0748 210.193 54.7895L214.475 43.5715C214.569 43.3259 214.59 43.0586 214.537 42.8016L213.909 39.8271L219.048 40.9483Z" fill="white"></path>
    <path d="M241.745 47.3705C239.477 47.634 233.91 48.1139 229.629 48.47C227.175 48.675 225.546 51.0402 226.166 53.4225C228.449 62.1855 225.427 76.2732 225.973 81.0406C226.625 86.7459 223.167 88.9516 223.148 88.9639C226.563 88.2261 228.876 86.8782 228.795 85.1203C228.322 74.8591 228.992 61.4733 229.579 52.664C232.073 49.9436 239.303 49.6432 242.834 49.6706C244.181 49.681 245.314 48.7175 245.578 47.396C245.907 45.7533 245.831 44.1447 245.618 42.7788C245.618 42.8666 245.616 46.9209 241.745 47.3705Z" fill="#002245"></path>
    <path d="M124.902 212.662C135.563 218.816 152.847 218.816 163.509 212.662C174.17 206.506 174.171 196.526 163.51 190.371C152.848 184.216 135.564 184.216 124.902 190.371C114.241 196.527 114.241 206.506 124.902 212.662Z" fill="#CE480A"></path>
    <path d="M127.478 193.163C125.576 193.976 124.379 196.096 124.538 198.374C124.612 199.449 124.742 200.451 124.966 200.921C125.571 202.192 127.555 203.935 130.72 202.684C133.886 201.433 140.917 194.828 141.179 190.504C141.67 182.472 132.485 191.025 127.478 193.163Z" fill="#006CAC"></path>
    <path d="M146.077 206.447C146.077 206.447 145.318 211.079 145.687 211.927C146.056 212.776 148.259 214.588 151.514 214.196C154.769 213.805 164.134 210.575 166.22 204.404C169.453 194.836 148.143 205.121 148.143 205.121L146.077 206.447Z" fill="#006CAC"></path>
    <path d="M155.228 132.416L155.952 204.709C155.877 207.224 154.229 209.347 152.014 209.72C151.741 209.766 151.448 209.804 151.134 209.832C148.891 210.028 147.585 209.066 146.84 208.055C146.235 207.237 145.918 206.198 145.873 205.136L144.95 174.275L140.343 146.683L133.969 195.518C133.866 196.84 133.234 198.061 132.217 198.735C131.514 199.199 130.561 199.56 129.31 199.522C127.486 199.467 126.219 198.491 125.446 197.619C124.834 196.928 124.511 195.979 124.524 195.004L127.05 165.621L127.99 128.142L155.228 132.416Z" fill="#D9EFFB"></path>
    <path d="M145.866 67.7056L144.723 74.2932C144.723 74.2932 144.68 76.5404 147.19 77.1629C149.699 77.7863 150.475 76.1663 150.475 76.1663L151.61 68.7475L145.866 67.7056Z" fill="#FAB6A9"></path>
    <path d="M159.699 64.0974C157.918 69.7414 152.405 73.0163 147.385 71.4133C142.366 69.8104 139.741 63.9359 141.523 58.2929C143.304 52.6499 148.817 49.375 153.837 50.977C158.856 52.5809 161.481 58.4544 159.699 64.0974Z" fill="#FAB6A9"></path>
    <path d="M146.165 74.4133C145.992 74.3434 135.518 67.599 131.647 74.6571C125.334 86.1632 129.951 99.3573 127.699 128.003C127.323 132.797 134.15 135.718 137.378 137.561C140.25 139.202 143.464 140.207 146.772 140.234C150.045 140.26 156.321 137.35 156.093 133.072C155.045 113.394 156.785 96.8059 158.392 80.7119C158.392 80.7119 156.383 78.5507 146.165 74.4133Z" fill="#5F92D3"></path>
    <path d="M140.342 146.683L133.968 195.518C133.865 196.84 133.233 198.061 132.216 198.735C132.05 198.844 131.866 198.946 131.672 199.042C132.994 198.049 136.859 157.059 137.574 152.498C138.289 147.936 140.342 146.683 140.342 146.683Z" fill="#002245"></path>
    <path d="M180.125 80.3755L188.893 62.9713L186.143 61.2333L177.055 74.4907L180.125 80.3755Z" fill="#FAB6A9"></path>
    <path d="M122.289 61.8945L126.556 42.4888L129.953 42.5265L128.676 58.6206L122.289 61.8945Z" fill="#FAB6A9"></path>
    <path d="M158.392 80.7119C158.392 80.7119 168.198 84.5809 176.625 73.9505C177.368 73.0134 178.892 73.1183 179.331 74.128C180.09 75.8699 181.039 78.5015 179.888 80.9726C174.795 91.9025 157.418 91.5228 153.231 97.6494C149.045 103.777 158.392 80.7119 158.392 80.7119Z" fill="#5F92D3"></path>
    <path d="M139.524 71.9953C139.524 71.9953 131.427 72.6178 130.26 65.6089C129.661 61.9996 129.48 59.844 129.447 58.6028C129.424 57.7612 128.694 57.1246 127.859 57.2285C125.92 57.4684 122.917 58.0484 122.51 59.3472C121.902 61.2883 120.758 70.8061 128.757 85.4095C133.996 94.9773 139.524 71.9953 139.524 71.9953Z" fill="#5F92D3"></path>
    <path d="M126.539 42.537L126.617 40.3247C126.644 39.5435 126.872 38.7822 127.278 38.1153L129.521 34.4304L130.106 33.6927C130.646 33.0126 131.612 32.8473 132.347 33.3101L132.864 33.6341C133.522 34.0479 133.899 34.7884 133.85 35.564L132.69 38.7132L134.157 38.4289C134.442 38.3732 134.717 38.5621 134.768 38.8474C134.812 39.0901 134.68 39.331 134.451 39.4226L132.055 40.3899L129.879 43.4702L126.539 42.537Z" fill="#FAB6A9"></path>
    <path d="M188.96 63.082L189.986 61.1201C190.348 60.4277 190.526 59.6531 190.502 58.872L190.374 54.5599L190.229 53.6304C190.096 52.7718 189.338 52.1512 188.47 52.1889L187.86 52.2163C187.085 52.2513 186.39 52.7075 186.05 53.4065L185.502 56.7173L184.367 55.7453C184.147 55.5564 183.815 55.5848 183.629 55.8077C183.471 55.9966 183.467 56.2715 183.621 56.4642L185.226 58.4885L185.641 62.707L188.96 63.082Z" fill="#FAB6A9"></path>
    <path d="M151.998 95.4578C151.146 99.3448 156.28 128.664 150.57 139.387C153.426 138.23 156.248 135.966 156.094 133.072C155.345 118.999 156.023 106.511 157.057 94.6502C161.939 92.1763 169.569 90.7008 174.966 86.7496C169.18 88.8825 152.759 91.9883 151.998 95.4578Z" fill="#002245"></path>
    <path d="M142.398 72.5535L143.853 71.0591C143.853 71.0591 146.245 73.5037 148.166 73.9278C148.166 73.9278 150.48 74.5824 151.61 74.6391L152.546 77.2207C152.546 77.2207 144.929 76.6747 142.398 72.5535Z" fill="white"></path>
    <path d="M152.867 64.273C153.268 64.2654 153.641 64.0831 153.87 63.7534C154.268 63.1772 154.015 60.5314 155.24 60.0941C157.156 59.4111 161.7 61.8076 162.185 54.8988C162.437 51.3074 160.69 50.3534 160.697 48.3858C160.697 48.3858 160.849 49.3729 151.609 48.758C142.369 48.144 139.365 56.3497 139.146 60.2575C138.927 64.1653 140.818 70.5914 147.134 71.4736C148.181 71.62 152.579 68.0835 152.465 67.6197C152.351 67.1559 150.691 67.1823 150.931 65.8315C151.132 64.7065 151.816 64.2918 152.867 64.273Z" fill="#006CAC"></path>
    <path d="M268.401 73.907L245.064 60.4342C244.603 60.1678 244.186 60.1584 243.859 60.3379L243.86 60.3228L241.598 61.6301C241.598 61.6301 242.599 61.9956 243.187 62.211V79.2052C243.187 80.5872 244.028 82.193 245.064 82.7918L267.369 95.6686V97.6626L269.656 96.3458L269.643 96.3421C270.029 96.1059 270.277 95.5883 270.277 94.8449V77.4945C270.277 76.1116 269.437 74.5049 268.401 73.907Z" fill="#5F92D3"></path>
    <path d="M266.095 97.593L242.761 84.1212C241.723 83.5223 240.883 81.9165 240.883 80.5336V63.1823C240.883 61.8004 241.723 61.1647 242.761 61.7635L266.095 75.2353C267.132 75.8342 267.972 77.44 267.972 78.8229V96.1732C267.972 97.5561 267.132 98.1918 266.095 97.593Z" fill="#D9EFFB"></path>
    <path d="M266.093 75.235L242.757 61.7632C242.168 61.4222 241.649 61.492 241.305 61.8604C241.556 61.8397 241.835 61.8982 242.133 62.0711L265.467 75.5439C266.505 76.1418 267.345 77.7485 267.345 79.1305V96.4818C267.345 97.0778 267.182 97.5246 266.921 97.8042C267.54 97.7522 267.97 97.1571 267.97 96.1729V78.8226C267.97 77.4397 267.13 75.8339 266.093 75.235Z" fill="white"></path>
    <path d="M250.605 78.1416C250.605 79.1457 249.901 79.5528 249.032 79.0503C248.162 78.5487 247.457 77.3274 247.457 76.3232C247.457 75.3191 248.162 74.913 249.032 75.4145C249.901 75.9161 250.605 77.1375 250.605 78.1416Z" fill="white"></path>
    <path d="M255.376 80.8952C255.376 81.8993 254.671 82.3064 253.801 81.8048C252.933 81.3023 252.227 80.0809 252.227 79.0768C252.227 78.0727 252.933 77.6665 253.801 78.1681C254.671 78.6707 255.376 79.8911 255.376 80.8952Z" fill="white"></path>
    <path d="M260.145 83.6486C260.145 84.6527 259.44 85.0598 258.571 84.5582C257.701 84.0557 256.996 82.8353 256.996 81.8312C256.996 80.8271 257.701 80.42 258.571 80.9215C259.44 81.4241 260.145 82.6454 260.145 83.6486Z" fill="white"></path>
  </g>
  <defs>
    <clipPath id="clip0_12004_26200">
      <rect width="270.627" height="260" fill="white"></rect>
    </clipPath>
  </defs>
</svg>
